<?xml version="1.0" encoding="utf-8"?>
<!-- Generator: Adobe Illustrator 25.1.0, SVG Export Plug-In . SVG Version: 6.00 Build 0)  -->
<svg version="1.1" id="Layer_1" xmlns="http://www.w3.org/2000/svg" xmlns:xlink="http://www.w3.org/1999/xlink" x="0px" y="0px"
	 viewBox="0 0 100 100" style="enable-background:new 0 0 100 100;" xml:space="preserve">
<style type="text/css">
	.st0{fill:none;}
	.st1{fill:#00008B;}
	.st2{fill:#FFFFFF;}
	.st3{fill:#FF0000;}
</style>
<path class="st0" d="M100,23v54c0,1.1-0.1,2.2-0.2,3.2c-0.3,2.2-0.9,4.3-1.8,6.3c-3.6,8-11.6,13.5-21,13.5H23
	c-9.4,0-17.4-5.6-21-13.6c-0.5-1.1-0.9-2.3-1.3-3.6v0c-0.3-1.3-0.5-2.6-0.6-3.9C0,78.3,0,77.6,0,77V23c0-0.9,0-1.8,0.2-2.6
	c0.3-2.6,1-5,2.1-7.3C4.1,9.2,7,5.9,10.6,3.6c0.9-0.6,1.8-1.1,2.8-1.5C16.3,0.8,19.6,0,23,0h54c8.7,0,16.3,4.8,20.2,11.9
	c1.6,3,2.6,6.3,2.8,9.9C100,22.2,100,22.6,100,23z"/>
<g transform="translate(-1623 -4099)">
	<g transform="translate(1584.427 4098.997)">
		<path class="st1" d="M138.6,23v54c0,1.1-0.1,2.2-0.2,3.2c-0.3,2.2-0.9,4.3-1.8,6.3c-3.6,8-11.6,13.5-21,13.5h-54
			c-9.4,0-17.4-5.6-21-13.6c-0.5-1.1-0.9-2.3-1.3-3.6v0c-0.3-1.3-0.5-2.6-0.6-3.9c-0.1-0.6-0.1-1.3-0.1-1.9V23c0-0.9,0-1.8,0.2-2.6
			c0.3-2.6,1-5,2.1-7.3c1.9-3.9,4.8-7.2,8.4-9.5C50.1,3,51,2.5,52,2.1C54.9,0.8,58.2,0,61.6,0h54c8.7,0,16.3,4.8,20.2,11.9
			c1.6,3,2.6,6.3,2.8,9.9C138.6,22.2,138.6,22.6,138.6,23z"/>
		<path class="st2" d="M90,6.6L70.8,17.2H90v15.6H70.8L90,43.4V50H78.2L52,35.4V50H38.6V23c0-0.9,0-1.8,0.2-2.6c0.3-2.6,1-5,2.1-7.3
			c1.9-3.9,4.8-7.2,8.4-9.5C50.1,3,51,2.5,52,2.1v12.5L78.2,0H90V6.6z"/>
		<path class="st3" d="M90,50L59,32.8h6.4L90,46.6V50z"/>
		<path class="st3" d="M52.8,17.2H59L90,0h-6.2L52.8,17.2z"/>
		<path class="st3" d="M90,20.4v9.2H49.2V50h-8.4V29.6h-2.2V23c0-0.9,0-1.8,0.2-2.6h2.1v-7.3c1.9-3.9,4.8-7.2,8.4-9.5v16.8H90z"/>
		<path class="st2" d="M50.6,79l1.2,9.4l-6.6-6.8l-4.6,4.8c-0.5-1.1-0.9-2.3-1.3-3.6v0l0.5-3.8l-1.1-0.1c-0.1-0.6-0.1-1.3-0.1-1.9
			v-3.6l0,0l0,0v-5.8l3.6,1.4l3.2-9l2.8,9l8.8-3.4l-5.2,7.8l8.2,4.8L50.6,79z"/>
		<path class="st2" d="M138.3,80.2c-0.3,2.2-0.9,4.3-1.8,6.3l-2.9,3.1l0.6-4.4l-4.4-0.4l3.8-2.2l-2.4-3.8l4.2,1.6l1-4.2l1.4,4.2
			L138.3,80.2z"/>
		<path class="st2" d="M111.4,36.6l1.4,4.2l4.2-1.6l-2.4,3.8l3.8,2.2l-4.4,0.4l0.6,4.4l-3-3.2l-3,3.2l0.6-4.4l-4.4-0.4l3.8-2.2
			l-2.4-3.8l4.2,1.6L111.4,36.6z"/>
		<path class="st2" d="M138.5,21.9l-1.9-2.1l-3,3.2l0.4-4.4l-4.4-0.4l3.8-2.2l-2.4-3.8l4.2,1.6l0.5-1.9
			C137.4,14.9,138.4,18.3,138.5,21.9z"/>
	</g>
</g>
</svg>
