<svg xmlns="http://www.w3.org/2000/svg" width="35" height="35" viewBox="0 0 35 35"><defs><style>.a{fill:#fff;}.b{fill:#b22234;}.c{fill:#3c3b6e;}.d{fill:none;}</style></defs><g transform="translate(-888 -862)"><g transform="translate(888 862)"><path class="a" d="M35,8.19V26.915A8.2,8.2,0,0,1,26.81,35H8.19A8.2,8.2,0,0,1,0,26.915V8.05c0-.245.035-.49.035-.735a8.024,8.024,0,0,1,2.1-4.655l.1-.105c.07-.035.14-.14.21-.21A8.223,8.223,0,0,1,8.19,0H26.775A8.209,8.209,0,0,1,35,8.085Z"/><path class="b" d="M36.83,2.695H6.1l.105-.105c.07-.07.14-.175.21-.245A8.223,8.223,0,0,1,12.155,0H30.74A8.16,8.16,0,0,1,36.83,2.695Z" transform="translate(-3.965)"/><path class="b" d="M35,18.1H0c0-.245.035-.49.035-.735A7.6,7.6,0,0,1,.49,15.4H34.51A7.969,7.969,0,0,1,35,18.1Z" transform="translate(0 -10.01)"/><rect class="b" width="35" height="2.695" transform="translate(0 10.78)"/><rect class="b" width="35" height="2.695" transform="translate(0 16.17)"/><rect class="b" width="35" height="2.695" transform="translate(0 21.525)"/><path class="b" d="M35,76.9a7.969,7.969,0,0,1-.49,2.695H.49A7.969,7.969,0,0,1,0,76.9Z" transform="translate(0 -49.985)"/><path class="b" d="M36.765,92.3a8.16,8.16,0,0,1-6.09,2.7H12.09A8.274,8.274,0,0,1,6,92.3Z" transform="translate(-3.9 -59.995)"/><path class="c" d="M17.5,0V18.83H0V8.05c0-.245.035-.49.035-.735a8.024,8.024,0,0,1,2.1-4.655l.1-.105c.07-.035.14-.14.21-.21A8.223,8.223,0,0,1,8.19,0Z"/><path class="a" d="M9.1,8.835h.77l.245-.735.245.735h.77l-.63.455.245.735-.63-.455-.63.455L9.73,9.29Z" transform="translate(-5.915 -5.265)"/><path class="a" d="M21.7,8.835h.77l.245-.735.245.735h.77l-.63.455.245.735-.63-.455-.63.455.245-.735Z" transform="translate(-14.105 -5.265)"/><path class="a" d="M34.3,8.835h.77l.245-.735.245.735h.77l-.63.455.245.735-.63-.455-.63.455.245-.735Z" transform="translate(-22.295 -5.265)"/><path class="a" d="M6.785,7.225,6.54,7.05l-.14-.1c.07-.07.14-.175.21-.245l.105.35Z" transform="translate(-4.16 -4.355)"/><path class="a" d="M15.4,3.435h.77l.245-.735.245.735h.77l-.63.455.245.735-.63-.455-.63.455.245-.735Z" transform="translate(-10.01 -1.755)"/><path class="a" d="M28,3.435h.77l.245-.735.245.735h.77l-.63.455.245.735-.63-.455-.63.455.245-.735Z" transform="translate(-18.2 -1.755)"/><path class="a" d="M40.6,3.435h.77l.245-.735.245.735h.77L42,3.89l.245.735-.63-.455-.63.455.245-.735Z" transform="translate(-26.39 -1.755)"/><path class="a" d="M.28,21.67l.14.49L0,21.81v-.175c0-.245.035-.49.035-.735h.77l-.63.455Z" transform="translate(0 -13.585)"/><path class="a" d="M9.1,19.635h.77l.245-.735.245.735h.77l-.63.455.245.735-.63-.455-.63.455.245-.735Z" transform="translate(-5.915 -12.285)"/><path class="a" d="M21.7,19.635h.77l.245-.735.245.735h.77l-.63.455.245.735-.63-.455-.63.455.245-.735Z" transform="translate(-14.105 -12.285)"/><path class="a" d="M34.3,19.635h.77l.245-.735.245.735h.77l-.63.455.245.735-.63-.455-.63.455.245-.735Z" transform="translate(-22.295 -12.285)"/><path class="a" d="M2.8,14.235h.77l.245-.735.245.735h.77l-.63.455.245.735-.63-.455-.63.455.245-.735Z" transform="translate(-1.82 -8.775)"/><path class="a" d="M15.4,14.235h.77l.245-.735.245.735h.77l-.63.455.245.735-.63-.455-.63.455.245-.735Z" transform="translate(-10.01 -8.775)"/><path class="a" d="M28,14.235h.77l.245-.735.245.735h.77l-.63.455.245.735-.63-.455-.63.455.245-.735Z" transform="translate(-18.2 -8.775)"/><path class="a" d="M40.6,14.235h.77l.245-.735.245.735h.77L42,14.69l.245.735-.63-.455-.63.455.245-.735Z" transform="translate(-26.39 -8.775)"/><path class="a" d="M.175,32.06.42,32.8,0,32.48V31.5l.035.105h.77Z" transform="translate(0 -20.475)"/><path class="a" d="M9.1,30.37h.77l.245-.77.245.77h.77l-.63.455.245.735-.63-.455-.63.455.245-.735Z" transform="translate(-5.915 -19.24)"/><path class="a" d="M21.7,30.37h.77l.245-.77.245.77h.77l-.63.455.245.735-.63-.455-.63.455.245-.735Z" transform="translate(-14.105 -19.24)"/><path class="a" d="M34.3,30.37h.77l.245-.77.245.77h.77l-.63.455.245.735-.63-.455-.63.455.245-.735Z" transform="translate(-22.295 -19.24)"/><path class="a" d="M2.8,24.97h.77l.245-.77.245.77h.77l-.63.455.245.735-.63-.455-.63.455.245-.735Z" transform="translate(-1.82 -15.73)"/><path class="a" d="M15.4,24.97h.77l.245-.77.245.77h.77l-.63.455.245.735-.63-.455-.63.455.245-.735Z" transform="translate(-10.01 -15.73)"/><path class="a" d="M28,24.97h.77l.245-.77.245.77h.77l-.63.455.245.735-.63-.455-.63.455.245-.735Z" transform="translate(-18.2 -15.73)"/><path class="a" d="M40.6,24.97h.77l.245-.77.245.77h.77l-.63.455.245.735-.63-.455-.63.455.245-.735Z" transform="translate(-26.39 -15.73)"/><path class="a" d="M.175,42.66.42,43.4,0,43.115V42.1l.035.1h.77Z" transform="translate(0 -27.365)"/><path class="a" d="M9.1,41.035h.77l.245-.735.245.735h.77l-.63.455.245.735-.63-.455-.63.455.245-.735Z" transform="translate(-5.915 -26.195)"/><path class="a" d="M21.7,41.035h.77l.245-.735.245.735h.77l-.63.455.245.735-.63-.455-.63.455.245-.735Z" transform="translate(-14.105 -26.195)"/><path class="a" d="M34.3,41.035h.77l.245-.735.245.735h.77l-.63.455.245.735-.63-.455-.63.455.245-.735Z" transform="translate(-22.295 -26.195)"/><path class="a" d="M2.8,35.635h.77l.245-.735.245.735h.77l-.63.455.245.735-.63-.455-.63.455.245-.735Z" transform="translate(-1.82 -22.685)"/><path class="a" d="M15.4,35.635h.77l.245-.735.245.735h.77l-.63.455.245.735-.63-.455-.63.455.245-.735Z" transform="translate(-10.01 -22.685)"/><path class="a" d="M28,35.635h.77l.245-.735.245.735h.77l-.63.455.245.735-.63-.455-.63.455.245-.735Z" transform="translate(-18.2 -22.685)"/><path class="a" d="M40.6,35.635h.77l.245-.735.245.735h.77L42,36.09l.245.735-.63-.455-.63.455.245-.735Z" transform="translate(-26.39 -22.685)"/><path class="a" d="M2.8,46.335h.77l.245-.735.245.735h.77l-.63.49.245.735-.63-.455-.63.455.245-.735Z" transform="translate(-1.82 -29.64)"/><path class="a" d="M15.4,46.335h.77l.245-.735.245.735h.77l-.63.49.245.735-.63-.455-.63.455.245-.735Z" transform="translate(-10.01 -29.64)"/><path class="a" d="M28,46.335h.77l.245-.735.245.735h.77l-.63.49.245.735-.63-.455-.63.455.245-.735Z" transform="translate(-18.2 -29.64)"/><path class="a" d="M40.6,46.335h.77l.245-.735.245.735h.77l-.63.49.245.735-.63-.455-.63.455.245-.735Z" transform="translate(-26.39 -29.64)"/><path class="d" d="M35,8.19V26.915A8.2,8.2,0,0,1,26.81,35H8.19A8.2,8.2,0,0,1,0,26.915V8.05c0-.245.035-.49.035-.735a8.024,8.024,0,0,1,2.1-4.655l.1-.105c.07-.035.14-.14.21-.21A8.223,8.223,0,0,1,8.19,0H26.775A8.209,8.209,0,0,1,35,8.085Z"/></g></g></svg>