<?xml version="1.0" encoding="utf-8"?>
<!-- Generator: Adobe Illustrator 25.1.0, SVG Export Plug-In . SVG Version: 6.00 Build 0)  -->
<svg version="1.1" id="Layer_1" xmlns="http://www.w3.org/2000/svg" xmlns:xlink="http://www.w3.org/1999/xlink" x="0px" y="0px"
	 viewBox="0 0 100 100" style="enable-background:new 0 0 100 100;" xml:space="preserve">
<style type="text/css">
	.st0{fill:none;}
	.st1{fill:#00247D;}
	.st2{fill:#FFFFFF;}
	.st3{fill:#CC142B;}
</style>
<path class="st0" d="M100,23v54.2c0,1.9-0.3,3.7-0.7,5.5c-0.1,0.3-0.2,0.6-0.2,0.8C96.2,93.1,87.4,100,77,100H23
	C10.3,100,0,89.7,0,77V23c0-1,0.1-2,0.2-3c0.3-2.1,0.8-4.1,1.6-6C3.7,9.6,7,5.8,11,3.4c1-0.6,2-1.1,3-1.5C16.8,0.6,19.8,0,23,0h54
	c9.6,0,17.8,5.8,21.2,14.2c0.2,0.4,0.3,0.9,0.5,1.3c0.8,2.3,1.2,4.7,1.3,7.3C100,22.8,100,22.9,100,23z"/>
<g transform="translate(-1566 -4099)">
	<g transform="translate(1527.389 4099)">
		<path class="st1" d="M138.6,23v54.2c0,1.9-0.3,3.7-0.7,5.5c-0.1,0.3-0.2,0.6-0.2,0.8c-2.8,9.5-11.6,16.4-22,16.4h-54
			c-12.7,0-23-10.3-23-23V23c0-1,0.1-2,0.2-3c0.3-2.1,0.8-4.1,1.6-6c1.9-4.4,5.1-8.2,9.2-10.7c1-0.6,2-1.1,3-1.5
			c2.8-1.2,5.8-1.8,9-1.8h54c9.6,0,17.8,5.8,21.2,14.2c0.2,0.4,0.3,0.9,0.5,1.3c0.8,2.3,1.2,4.7,1.3,7.3
			C138.6,22.8,138.6,22.9,138.6,23z"/>
		<path class="st2" d="M90.1,5.6l-20,11h20v16.8h-20l20,11V50h-10L52.7,34.8V50h-14V23c0-1,0.1-2,0.2-3c0.3-2.1,0.8-4.1,1.6-6
			c1.9-4.4,5.1-8.2,9.2-10.7c1-0.6,2-1.1,3-1.5v13.4L80.1,0h10V5.6z"/>
		<path class="st3" d="M53.3,16.6L83.3,0h6.8l-30,16.6H53.3z"/>
		<path class="st3" d="M60.1,33.4h6.8l23.2,12.8V50L60.1,33.4z"/>
		<path class="st3" d="M90.1,20v10H49.7v20h-9.2V30h-1.8v-7c0-1,0.1-2,0.2-3h1.6v-6c1.9-4.4,5.1-8.2,9.2-10.7V20H90.1z"/>
		<path class="st2" d="M138.6,23v0.8l-1.1-0.8l-4.6,3.4l1.8-5.4l-4.8-3.4h5.8l1.1-3.4c0.2,0.4,0.3,0.9,0.5,1.3
			c0.8,2.3,1.2,4.7,1.3,7.3C138.6,22.8,138.6,22.9,138.6,23z"/>
		<path class="st3" d="M138.6,22.7l-1-0.7l-3,2.2l1.2-3.6l-3.2-2.2h3.8l1-3C138.1,17.7,138.6,20.2,138.6,22.7z"/>
		<path class="st2" d="M114.5,35.2l-1.8,5.6h-5.8l4.6,3.4l-1.8,5.4l4.8-3.4l4.6,3.4l-1.8-5.4l4.8-3.4h-5.8L114.5,35.2z"/>
		<path class="st3" d="M114.5,38l-1.2,3.6h-3.8l3,2.2l-1.2,3.8l3.2-2.4l3,2.4l-1.2-3.8l3.2-2.2h-3.8L114.5,38z"/>
		<path class="st2" d="M138.6,74.5v2.8c0,1.9-0.3,3.7-0.7,5.5c-0.1,0.3-0.2,0.6-0.2,0.8l-0.1-0.1l-5.2,3.8l2-6.2l-5.2-3.8h6.4l2-6
			L138.6,74.5z"/>
		<path class="st3" d="M138.6,77.2L138.6,77.2c0,1.9-0.3,3.8-0.7,5.5l-0.3-0.2l-3.6,2.6l1.4-4.2l-3.6-2.6h4.4l1.4-4.4L138.6,77.2z"
			/>
	</g>
</g>
</svg>
