<svg xmlns="http://www.w3.org/2000/svg" width="35" height="35" viewBox="0 0 35 35"><defs><style>.a{fill:#f93;}.b{fill:#fff;}.c{fill:#128807;}.d{fill:#008;}</style></defs><g transform="translate(-672 -862)"><g transform="translate(672 862)"><path class="a" d="M35,8.19v3.465H0V8.19A8.211,8.211,0,0,1,8.015,0h18.97A8.211,8.211,0,0,1,35,8.19Z"/><rect class="b" width="35" height="11.655" transform="translate(0 11.655)"/><path class="c" d="M35,66.7v3.465a8.2,8.2,0,0,1-8.19,8.19H8.19A8.2,8.2,0,0,1,0,70.165V66.7Z" transform="translate(0 -43.355)"/><circle class="d" cx="4.655" cy="4.655" r="4.655" transform="translate(12.845 12.845)"/><circle class="b" cx="4.095" cy="4.095" r="4.095" transform="translate(13.405 13.405)"/><circle class="d" cx="0.805" cy="0.805" r="0.805" transform="translate(16.695 16.695)"/><path class="d" d="M61.145,50.9c.1,0,.175.1.175.245,0,.1-.1.175-.245.175-.105,0-.175-.105-.175-.245h0A.263.263,0,0,1,61.145,50.9Z" transform="translate(-39.585 -33.085)"/><path class="d" d="M49.74,54.94l.14-2.45-.14-1.19-.14,1.155Z" transform="translate(-32.24 -33.345)"/><path class="d" d="M60.456,53.876a.211.211,0,1,1-.28.1A.235.235,0,0,1,60.456,53.876Z" transform="translate(-39.106 -35.011)"/><path class="d" d="M47,54.8l.77-2.345.175-1.155-.42,1.085Z" transform="translate(-30.55 -33.345)"/><path class="d" d="M58.989,56.529a.2.2,0,1,1-.28.035h0A.217.217,0,0,1,58.989,56.529Z" transform="translate(-38.129 -36.719)"/><path class="d" d="M44.2,54.25l1.33-2.065.455-1.085-.7.945Z" transform="translate(-28.73 -33.215)"/><path class="d" d="M56.944,58.744a.2.2,0,1,1-.28-.035h0A.185.185,0,0,1,56.944,58.744Z" transform="translate(-36.784 -38.129)"/><path class="d" d="M41.8,53.555l1.82-1.645.735-.91-.945.7Z" transform="translate(-27.17 -33.15)"/><path class="d" d="M54.261,60.353a.211.211,0,1,1-.28-.1.194.194,0,0,1,.28.1Z" transform="translate(-35.011 -39.143)"/><path class="d" d="M39.9,52.42l2.205-1.12.945-.7-1.085.49Z" transform="translate(-25.935 -32.89)"/><path class="d" d="M51.32,61.175A.213.213,0,1,1,51.075,61C51.215,61,51.32,61.07,51.32,61.175Z" transform="translate(-33.085 -39.65)"/><path class="d" d="M38.7,51.31l2.415-.49L42.2,50.4l-1.155.175Z" transform="translate(-25.155 -32.76)"/><path class="d" d="M48.32,61.145c0,.1-.1.175-.245.175s-.175-.1-.175-.245c0-.105.1-.175.245-.175h0A.263.263,0,0,1,48.32,61.145Z" transform="translate(-31.135 -39.585)"/><path class="d" d="M38.3,49.74l2.45.14,1.155-.14L40.75,49.6Z" transform="translate(-24.895 -32.24)"/><path class="d" d="M45.361,60.456a.211.211,0,1,1-.1-.28A.235.235,0,0,1,45.361,60.456Z" transform="translate(-29.226 -39.106)"/><path class="d" d="M38.7,47l2.345.77,1.155.175-1.085-.42Z" transform="translate(-25.155 -30.55)"/><path class="d" d="M42.724,58.989a.2.2,0,1,1-.035-.28h0A.217.217,0,0,1,42.724,58.989Z" transform="translate(-27.534 -38.129)"/><path class="d" d="M39.9,44.2l2.065,1.33,1.085.455-.945-.7Z" transform="translate(-25.935 -28.73)"/><path class="d" d="M40.509,56.944a.212.212,0,0,1-.28-.035.2.2,0,0,1,.315-.245h0A.185.185,0,0,1,40.509,56.944Z" transform="translate(-26.124 -36.784)"/><path class="d" d="M41.8,41.8l1.645,1.82.91.735-.735-.945Z" transform="translate(-27.17 -27.17)"/><path class="d" d="M38.828,54.261a.235.235,0,0,1-.28-.1c-.07-.1,0-.21.105-.28a.235.235,0,0,1,.28.1.194.194,0,0,1-.1.28Z" transform="translate(-25.038 -35.011)"/><path class="d" d="M44.2,39.9l1.12,2.205.7.945-.49-1.085Z" transform="translate(-28.73 -25.935)"/><path class="d" d="M38.045,51.307a.213.213,0,1,1-.07-.42c.105-.035.21.07.245.175A.191.191,0,0,1,38.045,51.307Z" transform="translate(-24.57 -33.072)"/><path class="d" d="M47,38.7l.49,2.415.42,1.085-.175-1.155Z" transform="translate(-30.55 -25.155)"/><path class="d" d="M38.075,48.32c-.1,0-.175-.1-.175-.245,0-.1.105-.175.245-.175.105,0,.175.1.175.245h0A.263.263,0,0,1,38.075,48.32Z" transform="translate(-24.635 -31.135)"/><path class="d" d="M49.74,38.3l-.14,2.45.14,1.155.14-1.155Z" transform="translate(-32.24 -24.895)"/><path class="d" d="M38.781,45.361a.211.211,0,1,1,.28-.1A.235.235,0,0,1,38.781,45.361Z" transform="translate(-25.131 -29.226)"/><path class="d" d="M51.245,38.7l-.77,2.345L50.3,42.2l.42-1.085Z" transform="translate(-32.695 -25.155)"/><path class="d" d="M40.244,42.724a.2.2,0,1,1,.28-.035h0a.217.217,0,0,1-.28.035Z" transform="translate(-26.104 -27.534)"/><path class="d" d="M52.485,39.9l-1.33,2.065L50.7,43.05l.7-.945Z" transform="translate(-32.955 -25.935)"/><path class="d" d="M42.329,40.509a.2.2,0,1,1,.28.035h0A.185.185,0,0,1,42.329,40.509Z" transform="translate(-27.489 -26.124)"/><path class="d" d="M53.455,41.8l-1.82,1.61-.735.91.91-.735Z" transform="translate(-33.085 -27.17)"/><path class="d" d="M44.976,38.856a.211.211,0,1,1,.28.105.194.194,0,0,1-.28-.105Z" transform="translate(-29.226 -25.066)"/><path class="d" d="M54.25,44.2l-2.2,1.12-.945.7,1.085-.455Z" transform="translate(-33.215 -28.73)"/><path class="d" d="M47.9,38.045a.213.213,0,1,1,.245.175h0A.191.191,0,0,1,47.9,38.045Z" transform="translate(-31.135 -24.57)"/><path class="d" d="M54.8,47l-2.415.49-1.085.42,1.155-.175Z" transform="translate(-33.345 -30.55)"/><path class="d" d="M50.9,38.075c0-.1.1-.175.245-.175.1,0,.175.105.175.245,0,.105-.105.175-.245.175h0a.263.263,0,0,1-.175-.245Z" transform="translate(-33.085 -24.635)"/><path class="d" d="M54.94,49.74l-2.45-.14-1.19.14,1.155.14Z" transform="translate(-33.345 -32.24)"/><path class="d" d="M53.876,38.781a.211.211,0,1,1,.1.28.235.235,0,0,1-.1-.28Z" transform="translate(-35.011 -25.131)"/><path class="d" d="M54.8,51.245l-2.345-.77L51.3,50.3l1.085.42Z" transform="translate(-33.345 -32.695)"/><path class="d" d="M56.529,40.244a.2.2,0,1,1,.035.28h0A.217.217,0,0,1,56.529,40.244Z" transform="translate(-36.719 -26.104)"/><path class="d" d="M54.25,52.485l-2.065-1.33L51.1,50.7l.945.7Z" transform="translate(-33.215 -32.955)"/><path class="d" d="M58.744,42.329a.2.2,0,1,1-.035.28A.185.185,0,0,1,58.744,42.329Z" transform="translate(-38.129 -27.489)"/><path class="d" d="M53.52,53.49l-1.61-1.855L51,50.9l.735.91Z" transform="translate(-33.15 -33.085)"/><path class="d" d="M60.353,44.976a.211.211,0,1,1-.1.28h0A.194.194,0,0,1,60.353,44.976Z" transform="translate(-39.143 -29.226)"/><path class="d" d="M52.42,54.25l-1.12-2.2-.7-.945.455,1.085Z" transform="translate(-32.89 -33.215)"/><path class="d" d="M61.162,47.9a.213.213,0,1,1-.175.245A.191.191,0,0,1,61.162,47.9Z" transform="translate(-39.637 -31.135)"/><path class="d" d="M51.31,54.8l-.49-2.415L50.4,51.3l.175,1.155Z" transform="translate(-32.76 -33.345)"/></g></g></svg>