<svg xmlns="http://www.w3.org/2000/svg" xmlns:xlink="http://www.w3.org/1999/xlink" viewBox="0 0 40.74 50"><defs><style>.cls-1{fill:url(#linear-gradient);}</style><linearGradient id="linear-gradient" x1="-645.251" y1="402.279" x2="-645.251" y2="401.84" gradientTransform="matrix(40.74, 0, 0, -50, 26307.881, 20142)" gradientUnits="userSpaceOnUse"><stop offset="0" stop-color="#0e90d0"/><stop offset="1" stop-color="#00c0ff"/></linearGradient></defs><g id="Layer_2" data-name="Layer 2"><g id="Layer_1-2" data-name="Layer 1"><path class="cls-1" d="M29.981,5.093h5.556a2.7,2.7,0,0,0,2.37,1.389,2.778,2.778,0,1,0-2.389-4.167H24.074V0H16.667V2.315H5.167A2.74,2.74,0,0,0,2.778.926a2.778,2.778,0,0,0,0,5.556,2.683,2.683,0,0,0,2.37-1.389H10.7a18.13,18.13,0,0,0-8,11.574H0v7.407H7.407V16.667H5.556A15.278,15.278,0,0,1,16.667,5.556V7.407h1.574L10.259,28.87l4.185,13.722H11.926V50H28.593V42.593H26.315L30.5,28.87,22.574,7.407h1.5V5.556A15.24,15.24,0,0,1,35.185,16.667H33.333v7.407H40.74V16.667h-2.7A18.072,18.072,0,0,0,29.981,5.093ZM4.63,21.3H2.778V19.444H4.63ZM25.815,47.222H14.7V45.37H25.815ZM19.444,2.778H21.3V4.63H19.444Zm8.13,26.167L23.426,42.593H17.333L13.185,28.944l5.852-15.759V26.3a2.7,2.7,0,0,0-1.444,2.4,2.778,2.778,0,0,0,5.556,0,2.721,2.721,0,0,0-1.333-2.352V13.185ZM37.963,21.3H36.111V19.444h1.852Z"/></g></g></svg>