<svg id="Layer_2" data-name="Layer 2" xmlns="http://www.w3.org/2000/svg" xmlns:xlink="http://www.w3.org/1999/xlink" width="50" height="50" viewBox="0 0 50 50">
  <defs>
    <linearGradient id="linear-gradient" x1="0.5" x2="0.5" y2="1" gradientUnits="objectBoundingBox">
      <stop offset="0" stop-color="#0e90d0"/>
      <stop offset="1" stop-color="#00c0ff"/>
    </linearGradient>
  </defs>
  <g id="Layer_1" data-name="Layer 1">
    <g id="Group_1225" data-name="Group 1225">
      <g id="Ellipse_199" data-name="Ellipse 199">
        <path id="Path_7617" data-name="Path 7617" d="M25,0A25,25,0,1,0,50,25,25,25,0,0,0,25,0Zm1.562,3.187a21.833,21.833,0,0,1,16.667,9.688l-8.667,4.979a11.729,11.729,0,0,0-8-4.667Zm-3.125,0v10a11.729,11.729,0,0,0-8,4.667L6.812,12.875A21.833,21.833,0,0,1,23.438,3.187ZM3.125,25a21.813,21.813,0,0,1,2.083-9.4L13.9,20.583A11.583,11.583,0,0,0,13.042,25a11.9,11.9,0,0,0,.937,4.667h0L5.4,34.687A21.6,21.6,0,0,1,3.125,25ZM23.438,46.813A21.833,21.833,0,0,1,6.979,37.5l8.646-5a11.771,11.771,0,0,0,7.813,4.437Zm0-13.125a8.715,8.715,0,0,1-5.187-14.25,8.687,8.687,0,0,1,5.271-3.1,8.437,8.437,0,0,1,3.125,0,8.646,8.646,0,0,1,5.25,3.1,8.333,8.333,0,0,1,1.438,2.729,8.521,8.521,0,0,1,.5,2.833,8.251,8.251,0,0,1-2.1,5.812,8.688,8.688,0,0,1-5.062,2.875,8.438,8.438,0,0,1-3.125,0Zm3.125,13.125V36.833a11.917,11.917,0,0,0,7.813-4.417L43,37.5a21.75,21.75,0,0,1-16.437,9.312Zm9.417-17.083A11.854,11.854,0,0,0,36.958,25a11.583,11.583,0,0,0-.854-4.417l8.625-5A21.625,21.625,0,0,1,46.812,25a21.375,21.375,0,0,1-2.292,9.708Z" fill="url(#linear-gradient)"/>
      </g>
      <g id="Ellipse_198" data-name="Ellipse 198" transform="translate(14.021 29.729)">
        <path id="Path_7618" data-name="Path 7618" d="M6.73,14.27Z" transform="translate(-6.73 -14.27)" fill="url(#linear-gradient)"/>
      </g>
    </g>
  </g>
</svg>
