<svg xmlns="http://www.w3.org/2000/svg" xmlns:xlink="http://www.w3.org/1999/xlink" viewBox="0 0 58 50"><defs><style>.cls-1{fill:url(#linear-gradient);}</style><linearGradient id="linear-gradient" x1="-641.741" y1="402.341" x2="-641.741" y2="401.341" gradientTransform="matrix(58, 0, 0, -50, 37250, 20117.049)" gradientUnits="userSpaceOnUse"><stop offset="0" stop-color="#0e90d0"/><stop offset="1" stop-color="#00c0ff"/></linearGradient></defs><g id="Layer_2" data-name="Layer 2"><g id="Layer_1-2" data-name="Layer 1"><path class="cls-1" d="M5,50a5,5,0,0,1-5-5V5A5,5,0,0,1,5,0H53a5,5,0,0,1,5,5V45a5,5,0,0,1-5,5ZM3.2,45A1.8,1.8,0,0,0,5,46.8H53A1.8,1.8,0,0,0,54.8,45V13.061H3.2Zm0-40V9.859H54.8V5A1.808,1.808,0,0,0,53,3.2H5A1.807,1.807,0,0,0,3.2,5ZM31,44V29H48V44Zm3.2-3.2H44.8V32.2H34.2ZM10,44V41H28v3Zm0-6V35H28v3Zm0-6V29H28v3Zm0-6V17H48v9Zm3.2-3.2H44.8V20.2H13.2Zm.158-15.211a1.673,1.673,0,0,1-.344-.519,1.587,1.587,0,1,1,3.048-.611,1.619,1.619,0,0,1-.12.611,1.706,1.706,0,0,1-.345.519,1.569,1.569,0,0,1-2.241,0Zm-3.609.349a1.569,1.569,0,0,1-.507-.349A1.694,1.694,0,0,1,8.9,7.07a1.615,1.615,0,0,1,.345-1.741A1.59,1.59,0,0,1,11.823,7.07a1.848,1.848,0,0,1-.344.519,1.59,1.59,0,0,1-1.122.471,1.521,1.521,0,0,1-.61-.122ZM5.116,7.589a1.647,1.647,0,0,1-.345-.519,1.558,1.558,0,0,1-.119-.611,1.6,1.6,0,0,1,.464-1.13A1.548,1.548,0,0,1,6.543,4.89a1.378,1.378,0,0,1,.3.089,1.652,1.652,0,0,1,.278.149,1.121,1.121,0,0,1,.234.2,1.591,1.591,0,0,1,0,2.26,1.562,1.562,0,0,1-2.209.026L5.12,7.588Z"/></g></g></svg>