<svg id="Layer_2" data-name="Layer 2" xmlns="http://www.w3.org/2000/svg" xmlns:xlink="http://www.w3.org/1999/xlink" width="1136.443" height="1002.778" viewBox="0 0 1136.443 1002.778">
  <defs>
    <linearGradient id="linear-gradient" x1="0.5" x2="0.5" y2="1" gradientUnits="objectBoundingBox">
      <stop offset="0" stop-color="#0e90d0"/>
      <stop offset="1" stop-color="#00c0ff"/>
    </linearGradient>
  </defs>
  <g id="Layer_1" data-name="Layer 1">
    <path id="Group_1233" data-name="Group 1233" d="M1118.712,144.654a69.183,69.183,0,0,0-49.528-20.833H196.541L183.176,56.6A70.362,70.362,0,0,0,114.387,0H0V58.962H114.387A11.4,11.4,0,0,1,125.393,68L255.5,726.416a69.969,69.969,0,0,0,68.4,56.211h698.114V723.665H323.9a10.613,10.613,0,0,1-9.434-9.041l-17.689-89.23H994.5a70.362,70.362,0,0,0,66.824-55.818l74.685-361.243a60.911,60.911,0,0,0,0-14.544,69.576,69.576,0,0,0-17.3-49.135Zm-113.6,412.736a11.006,11.006,0,0,1-10.613,9.041H283.805L207.941,182.783h861.243a11.007,11.007,0,0,1,10.613,13.365ZM370.677,1002.753a78.617,78.617,0,1,1,56.865-22.32A78.617,78.617,0,0,1,370.677,1002.753Zm0-101.415a21.226,21.226,0,1,0,15.262,6.074A21.226,21.226,0,0,0,370.677,901.338Zm568.4,101.415a78.616,78.616,0,1,1,78.616-78.617A78.616,78.616,0,0,1,939.074,1002.753Zm0-101.415A21.226,21.226,0,1,0,960.3,922.564,21.226,21.226,0,0,0,939.074,901.338Z" fill="url(#linear-gradient)"/>
  </g>
</svg>
