<svg xmlns="http://www.w3.org/2000/svg" xmlns:xlink="http://www.w3.org/1999/xlink" viewBox="0 0 59.575 50"><defs><style>.cls-1{fill:url(#linear-gradient);}</style><linearGradient id="linear-gradient" x1="-641.056" y1="402.341" x2="-641.056" y2="401.341" gradientTransform="matrix(59.575, 0, 0, -50, 38220.815, 20117.049)" gradientUnits="userSpaceOnUse"><stop offset="0" stop-color="#0e90d0"/><stop offset="1" stop-color="#00c0ff"/></linearGradient></defs><g id="Layer_2" data-name="Layer 2"><g id="Layer_1-2" data-name="Layer 1"><path class="cls-1" d="M15.959,50V46.809h6.382V42.552H4.253A4.267,4.267,0,0,1,0,38.3V4.254A4.267,4.267,0,0,1,4.253,0H55.318a4.267,4.267,0,0,1,4.257,4.254V38.3a4.267,4.267,0,0,1-4.257,4.254H37.234v4.257h6.382V50Zm9.573-3.191h8.511V42.552H25.532ZM3.19,38.3a1.052,1.052,0,0,0,1.04,1.063H55.319a1.055,1.055,0,0,0,1.066-1.043V13.3H3.19Zm0-34.044v5.851H56.384V4.254a1.054,1.054,0,0,0-1.047-1.062H4.253A1.054,1.054,0,0,0,3.19,4.235v.02ZM23.5,34.56l7.938-18.2,2.925,1.274-7.936,18.2Zm13.944-3.915L42,26.1l-4.547-4.544L39.7,19.3l6.8,6.8-6.8,6.8ZM11.359,26.1l6.8-6.8,2.257,2.257L15.869,26.1l4.547,4.547L18.159,32.9ZM13.766,7.721A1.593,1.593,0,0,1,13.3,6.594a1.54,1.54,0,0,1,.128-.617,1.607,1.607,0,0,1,.339-.51,1.586,1.586,0,0,1,2.6.51,1.5,1.5,0,0,1,.129.617A1.594,1.594,0,0,1,13.77,7.721Zm-3.744.341a1.613,1.613,0,0,1-.51-.341,1.586,1.586,0,0,1-.47-1.127,1.523,1.523,0,0,1,.128-.617,1.662,1.662,0,0,1,.342-.51,1.6,1.6,0,0,1,2.254,0,1.659,1.659,0,0,1,.341.51A1.6,1.6,0,0,1,10.639,8.19a1.525,1.525,0,0,1-.617-.127ZM5.255,7.721a1.593,1.593,0,0,1-.467-1.127,1.54,1.54,0,0,1,.128-.617,1.583,1.583,0,0,1,2.067-.859L7,5.125a1.652,1.652,0,0,1,.513.342,1.367,1.367,0,0,1,.339.51,1.5,1.5,0,0,1,.128.617,1.593,1.593,0,0,1-.467,1.127A1.7,1.7,0,0,1,7,8.062a1.519,1.519,0,0,1-.617.128,1.6,1.6,0,0,1-1.127-.468Z"/></g></g></svg>