<svg xmlns="http://www.w3.org/2000/svg" xmlns:xlink="http://www.w3.org/1999/xlink" viewBox="0 0 41 50"><defs><style>.cls-1{fill:url(#linear-gradient);}</style><linearGradient id="linear-gradient" x1="-645.354" y1="402.84" x2="-645.354" y2="401.84" gradientTransform="matrix(41, 0, 0, -50, 26480, 20142)" gradientUnits="userSpaceOnUse"><stop offset="0" stop-color="#0e90d0"/><stop offset="1" stop-color="#00c0ff"/></linearGradient></defs><g id="Layer_2" data-name="Layer 2"><g id="Layer_1-2" data-name="Layer 1"><path class="cls-1" d="M30.71,12.93A10.2,10.2,0,0,0,31,10.5a10.5,10.5,0,0,0-21,0,10.2,10.2,0,0,0,.29,2.43H0L15,31.22V50l11-4.12V31.22L41,12.93ZM20.5,3.2a7.315,7.315,0,0,1,7.3,7.3,7.019,7.019,0,0,1-.43,2.43H23.82a1.652,1.652,0,0,0,.09-.53v-.87c0-.82-.57-1.39-1.63-1.77L19.83,8.9a.686.686,0,0,1-.52-.6V8.11c0-.52.49-.69,1.22-.69s1.24.17,1.24.69v.33c0,.29.1.39.38.39H23.4c.31,0,.39-.1.39-.39V8.11c0-.88-.54-1.83-2.09-2.15V4.88c0-.3-.1-.44-.39-.44H19.89c-.29,0-.41.14-.41.44V5.94c-1.63.29-2.2,1.27-2.2,2.17v.55a2.1,2.1,0,0,0,1.35,1.8l2.46.9c.55.2.77.36.77.65v.28c0,.35-.26.55-.65.64H19.77c-.39-.09-.65-.29-.65-.64v-.28c0-.28-.1-.39-.39-.39H17.47c-.29,0-.39.11-.39.39v.39a1.9,1.9,0,0,0,.07.53H13.63a7.019,7.019,0,0,1-.43-2.43A7.309,7.309,0,0,1,20.5,3.2Zm3.02,25.99-.72.89V43.66l-4.6,1.72V30.08l-.73-.89L6.76,16.13H34.24Z"/></g></g></svg>