<svg xmlns="http://www.w3.org/2000/svg" xmlns:xlink="http://www.w3.org/1999/xlink" viewBox="0 0 61.908 50.004"><defs><style>.cls-1{fill:url(#linear-gradient);}</style><linearGradient id="linear-gradient" x1="-639.981" y1="402.841" x2="-639.981" y2="401.841" gradientTransform="matrix(61.908, 0, 0, -50.004, 39650.936, 20143.641)" gradientUnits="userSpaceOnUse"><stop offset="0" stop-color="#0e90d0"/><stop offset="1" stop-color="#00c0ff"/></linearGradient></defs><g id="Layer_2" data-name="Layer 2"><g id="Layer_1-2" data-name="Layer 1"><path class="cls-1" d="M24.416,0H4.166A4.179,4.179,0,0,0,0,4.167v41.67A4.179,4.179,0,0,0,4.166,50h20.25a4.179,4.179,0,0,0,4.166-4.167V4.167A4.179,4.179,0,0,0,24.416,0Zm1.041,45.832a1.044,1.044,0,0,1-1.041,1.042H4.166a1.044,1.044,0,0,1-1.041-1.042V4.167A1.045,1.045,0,0,1,4.166,3.126H7.187a3.2,3.2,0,0,0-.042.437,2.391,2.391,0,0,0,2.375,2.4h9.542a2.391,2.391,0,0,0,2.375-2.4,3.2,3.2,0,0,0-.042-.437h3.021a1.045,1.045,0,0,1,1.041,1.041Zm22.165-5.357h0A2.381,2.381,0,0,1,50,42.858h0a2.381,2.381,0,0,1-2.381,2.381h0a2.381,2.381,0,0,1-2.381-2.381h0a2.381,2.381,0,0,1,2.382-2.382h0Zm0,4.763A2.382,2.382,0,1,1,50,42.858a2.386,2.386,0,0,1-2.381,2.381Zm4.085-23.287,1.389-2.4a.288.288,0,1,0-.478-.322.379.379,0,0,0-.02.034L51.2,21.7a8.7,8.7,0,0,0-7.133,0l-1.406-2.431a.29.29,0,0,0-.387-.133h0a.289.289,0,0,0-.132.387h0a.243.243,0,0,0,.02.035l1.389,2.4a8.178,8.178,0,0,0-4.254,6.552H55.961a8.2,8.2,0,0,0-4.245-6.554ZM43.79,26.131a.691.691,0,0,1-.691-.691h0a.691.691,0,0,1,.69-.692h0a.692.692,0,0,1,.692.692h0a.692.692,0,0,1-.694.69h0Zm7.673,0a.692.692,0,0,1-.692-.692h0a.692.692,0,0,1,.692-.692h0a.692.692,0,0,1,.692.692h0a.692.692,0,0,1-.694.69h0ZM14.4,20.266c-.658,0-1.677-.748-2.75-.721A4.062,4.062,0,0,0,8.2,21.629c-1.469,2.558-.379,6.327,1.056,8.4.705,1.01,1.534,2.145,2.634,2.11,1.054-.046,1.458-.685,2.733-.685s1.629.685,2.75.658,1.856-1.029,2.552-2.056a9.077,9.077,0,0,0,1.154-2.371,3.68,3.68,0,0,1-2.237-3.365,3.748,3.748,0,0,1,1.8-3.164,3.9,3.9,0,0,0-3.048-1.65c-1.377-.108-2.544.76-3.194.76Zm2.346-2.131a3.648,3.648,0,0,0,.864-2.66,3.748,3.748,0,0,0-2.452,1.262,3.486,3.486,0,0,0-.883,2.579,3.109,3.109,0,0,0,2.471-1.181M57.741,50H37.5a4.17,4.17,0,0,1-4.166-4.166V4.167A4.171,4.171,0,0,1,37.5,0H57.741a4.173,4.173,0,0,1,4.167,4.167v41.67A4.172,4.172,0,0,1,57.744,50ZM37.5,3.125a1.043,1.043,0,0,0-1.041,1.042v41.67A1.043,1.043,0,0,0,37.5,46.878H57.741a1.043,1.043,0,0,0,1.042-1.041V4.167a1.044,1.044,0,0,0-1.042-1.042Z"/></g></g></svg>