<svg xmlns="http://www.w3.org/2000/svg" viewBox="0 0 227.87 220.63"><defs><style>.cls-1{fill:#3498db;}.cls-2{fill:#3880ff;}.cls-3{fill:#ef3e29;}.cls-4{fill:#ee350f;}.cls-5{fill:#70e1fc;}.cls-6,.cls-7{fill:#fff;}.cls-7{fill-rule:evenodd;}</style></defs><g id="Layer_2" data-name="Layer 2"><g id="Layer_1-2" data-name="Layer 1"><circle class="cls-1" cx="40" cy="93.72" r="40"/><circle class="cls-2" cx="187.87" cy="93.72" r="40"/><circle class="cls-3" cx="159.63" cy="180.63" r="40"/><circle class="cls-4" cx="68.24" cy="180.63" r="40"/><circle class="cls-5" cx="113.93" cy="40" r="40"/><g id="Layer_2-2" data-name="Layer 2"><g id="Layer_1-3" data-name="Layer 1"><path id="Path_7633" data-name="Path 7633" class="cls-6" d="M188,84.63a9.08,9.08,0,1,0,9.07,9.08h0A9.08,9.08,0,0,0,188,84.63Z"/><circle id="Ellipse_184" data-name="Ellipse 184" class="cls-6" cx="200.98" cy="81.3" r="4.15"/><path id="Path_7634" data-name="Path 7634" class="cls-6" d="M206.07,85.45l-.16-.38-.27.32a6.39,6.39,0,0,1-2.49,1.71l-.27.11.1.27a15.69,15.69,0,0,1,1.25,6.23A16.26,16.26,0,1,1,194.94,79l.24.11.11-.27a6.25,6.25,0,0,1,1.84-2.41l.33-.27-.38-.19a20,20,0,1,0,9,9.48Z"/></g></g><circle id="Ellipse_131" data-name="Ellipse 131" class="cls-6" cx="113.93" cy="39.88" r="4.05"/><path id="Path_6310" data-name="Path 6310" class="cls-6" d="M113.93,32.52a41.12,41.12,0,0,1,15.18,2.56c3.4,1.39,5.43,3.19,5.43,4.8s-2,3.4-5.43,4.8a41.53,41.53,0,0,1-15.18,2.56,41.52,41.52,0,0,1-15.17-2.56c-3.4-1.4-5.43-3.19-5.43-4.8s2-3.41,5.43-4.8A41.1,41.1,0,0,1,113.93,32.52Zm0-1.86c-12.4,0-22.46,4.13-22.46,9.22s10.06,9.22,22.46,9.22S136.4,45,136.4,39.88,126.34,30.66,113.93,30.66Z"/><path id="Path_6311" data-name="Path 6311" class="cls-6" d="M120.31,36.2a41.25,41.25,0,0,1,5.37,14.42c.49,3.64-.05,6.29-1.44,7.1s-4,0-6.87-2.3a41.23,41.23,0,0,1-9.81-11.86,41.3,41.3,0,0,1-5.37-14.43c-.49-3.64,0-6.29,1.44-7.1s4,.06,6.87,2.3A41.27,41.27,0,0,1,120.31,36.2Zm1.61-.93c-6.2-10.75-14.81-17.39-19.22-14.85s-3,13.32,3.25,24.07,14.81,17.39,19.22,14.84S128.12,46,121.92,35.27Z"/><path id="Path_6312" data-name="Path 6312" class="cls-6" d="M120.31,43.56a41.23,41.23,0,0,1-9.81,11.86c-2.91,2.25-5.47,3.11-6.87,2.3s-1.93-3.46-1.44-7.1a41.25,41.25,0,0,1,5.37-14.42,41.27,41.27,0,0,1,9.81-11.87c2.9-2.24,5.47-3.1,6.87-2.3s1.93,3.46,1.44,7.1A41.3,41.3,0,0,1,120.31,43.56Zm1.61.93c6.2-10.75,7.66-21.52,3.25-24.07s-13,4.1-19.22,14.85-7.66,21.52-3.25,24.06,13-4.1,19.22-14.84Z"/><path class="cls-6" d="M175.17,177.25a9.15,9.15,0,0,1,2.26,3.63c1.81,6.38-4.92,13.73-14.8,16.54s-19.47.11-21.29-6.28a9.24,9.24,0,0,1,0-4.28c.5-2.21-3.1,2.55-1.8,7.13,2.1,7.39,12.36,10.29,23.81,7s19.19-11.28,17.09-18.67c-1.3-4.57-6.87-6.74-5.29-5.12"/><path class="cls-6" d="M175.24,162.35c-6.2,6.53,2.85,20.52-10.66,27.1,7.28-9.69,1.61-20.67,3.3-24s7.36-3.1,7.36-3.1m-9.93,2.55c-5.08,7.4-.28,19-3.44,23.4s-6.42,1.09-6.88,0c7.09,3.78-4.48-17.45,10.32-23.37"/><path class="cls-6" d="M161.29,189c-3.71,3.92-9.54,3.45-16.64,1.6,3.14-3.76,1.22-8.83,2-13.54.77-4.47,5.33-8.36,10.43-9.86-6.33,5.16-5.67,14-4.65,17.43,1.85,6.28,8.83,4.37,8.83,4.37"/><path class="cls-7" d="M62,92,52.49,75.46a3.56,3.56,0,0,0-3-1.74h-19a3.56,3.56,0,0,0-3,1.74L18,92a3.61,3.61,0,0,0,0,3.49L27.51,112a3.59,3.59,0,0,0,3,1.75h19a3.59,3.59,0,0,0,3-1.75L62,95.46A3.61,3.61,0,0,0,62,92ZM49.23,104.06H46a.44.44,0,0,1-.37-.23l-5.54-9.92a.66.66,0,0,1,0-.15.38.38,0,0,1,0,.15l-5.55,9.92a.45.45,0,0,1-.36.23H30.77a.45.45,0,0,1-.37-.64l5.41-9.7L30.4,84a.44.44,0,0,1,.29-.62H34a.43.43,0,0,1,.36.21L40,93.5a.49.49,0,0,1,0,.16,1,1,0,0,1,0-.16l5.54-9.91a.4.4,0,0,1,.37-.21h3.27a.44.44,0,0,1,.37.62l-5.42,9.72,5.42,9.7A.45.45,0,0,1,49.23,104.06Z"/><path class="cls-7" d="M64.37,200.26l21-30a20,20,0,0,1-17.12,30.34,20.56,20.56,0,0,1-3.87-.37Zm-9-35a20,20,0,0,1,25.68,0ZM83.72,168h-31a19.89,19.89,0,0,0-4.16,8.87l0,.19a1.55,1.55,0,0,0,0,.21c0,.1,0,.2-.05.29,0,.24-.07.47-.1.71,0,0,0,.06,0,.09a19.46,19.46,0,0,0-.13,2.3c0,.31,0,.62,0,.93l0,.49c0,.09,0,.18,0,.28a20,20,0,0,0,13.33,17.19L83.72,168Z"/></g></g></svg>