<svg xmlns="http://www.w3.org/2000/svg" xmlns:xlink="http://www.w3.org/1999/xlink" viewBox="0 0 299.999 351.604">
  <defs>
    <linearGradient id="a" x1="0.585" y1="622.096" x2="291.935" y2="622.096" gradientTransform="translate(0 -463.812)" gradientUnits="userSpaceOnUse">
      <stop offset="0" stop-color="#8c2529"/>
      <stop offset="0.077" stop-color="#9f2c33"/>
      <stop offset="0.254" stop-color="#c73a46"/>
      <stop offset="0.396" stop-color="#df4353"/>
      <stop offset="0.482" stop-color="#e84657"/>
      <stop offset="0.575" stop-color="#df4353"/>
      <stop offset="0.727" stop-color="#c73a46"/>
      <stop offset="0.917" stop-color="#9f2c33"/>
      <stop offset="1" stop-color="#8c2529"/>
    </linearGradient>
    <linearGradient id="b" x1="0.639" y1="641.992" x2="291.972" y2="641.992" xlink:href="#a"/>
    <linearGradient id="c" x1="0.639" y1="752.022" x2="291.972" y2="752.022" xlink:href="#a"/>
  </defs>
  <g>
    <path d="M191.6,47.585c-47.989,83.3-115.2,143.83-115.2,143.83C71.492,149.834,89.76,75.806,89.76,75.806c-45.26,21.4-62.3,67.894-62.3,67.894s-7.907,73.755,49.216,172.868C31,291.618,1.485,243.2.054,187.462-1.2,138.644,19.586,96.229,53.793,69.327c24.96-19.629,58.87-28.695,93.089-28.695a136.015,136.015,0,0,1,18.405,1.227L150.018,83.713c1.363-1.908,16.905-22.358,27.13-39.945,9-15.133,11.588-29.333,0-26.47-20.041,5.044-29.121,17.483-36.074,18.164-5.842.573-4.756-.376-3.666-1.6C156.359,10.955,239.589-35.713,191.6,47.585Z" fill="url(#a)"/>
    <path d="M177.148,43.768c-10.225,17.587-25.767,38.037-27.13,39.945l15.269-41.854A107.551,107.551,0,0,1,177.148,43.768Z" fill="#6f1d20"/>
    <path d="M291.666,296.254c-11.588,1.363-24.085-3-38.4-8.045C192.326,266.942,114.845,203,107.347,196.323c3.408,2.317,17.313,11.452,22.767,11.724,6.408,0,57.532-73.618,89.433-148.192a146.936,146.936,0,0,1,54.879,200.421q-1.611,2.825-3.345,5.576c-6.135,1.091-37.9-5.726-41.445-6.544,13.224,6.135,25.494,11.725,35.31,15.405,9.543,3.682,16.632,5.454,20.04,3.818,6.953-3.272-3.953-20.45-2.862-22.222,1.09-1.909,4.363-8.726,4.363-8.726S313.07,293.8,291.666,296.254Z" fill="url(#b)"/>
    <path d="M271.081,265.852c-1.909,3-3.954,6-6.135,8.861-9.816-3.68-22.086-9.27-35.31-15.405C233.18,260.126,264.946,266.942,271.081,265.852Z" fill="#6f1d20"/>
    <path d="M185.191,329.382a148.4,148.4,0,0,1-38.309,5.045,145.513,145.513,0,0,1-40.217-5.59h-.273a7.023,7.023,0,0,0-3.681.955c-3.135,2.454-.954,21.812-.954,21.812a187.941,187.941,0,0,1-8.725-27.4c-8.862-34.9-16.223-82.89-16.223-82.89s-12-20.45-8.181-15.814C109.255,277.031,185.191,329.382,185.191,329.382Z" fill="url(#c)"/>
  </g>
</svg>
