<svg xmlns="http://www.w3.org/2000/svg" viewBox="0 0 200 200">
  <g>
    <rect width="200" height="200" rx="100" fill="#31b4e7"/>
    <g>
      <path d="M85.354,103.064a7.578,7.578,0,1,1-.026-6.946l.069.136h4.951l-.107-.328a12.21,12.21,0,1,0,.019,7.333l.1-.328H85.427Z" fill="#fff"/>
      <path d="M141.212,105.388a3.068,3.068,0,0,0-.028,6.136h.094a3,3,0,0,0,3.1-2.895c0-.066,0-.133,0-.2a3.038,3.038,0,0,0-3.033-3.043C141.3,105.385,141.257,105.386,141.212,105.388Z" fill="#fff"/>
      <path d="M27.642,97.473l-.448-.145c-2.546-.816-4.746-1.522-4.746-3.095v-.088c0-1.352,1.255-2.225,3.2-2.225a13.472,13.472,0,0,1,6.524,2.187l.057.036,2.174-3.9-.051-.031a16.223,16.223,0,0,0-8.574-2.651c-4.909,0-8.338,2.941-8.338,7.151V94.8c0,4.45,3.772,5.887,7.308,6.883.182.056.366.107.548.166,2.471.747,4.6,1.394,4.6,3.032v.085c0,1.531-1.327,2.445-3.545,2.445a13.163,13.163,0,0,1-7.578-2.849l-.054-.041L16.3,108.194l-.032.048.043.034a16.328,16.328,0,0,0,9.9,3.492c5.36,0,8.691-2.824,8.691-7.372v-.087C34.905,100.291,31.413,98.648,27.642,97.473Z" fill="#fff"/>
      <path d="M46.133,82.124h-5.22v6.258h-2.89v4.487h2.89v11.994c0,5,2.719,6.69,6.557,6.69a9.028,9.028,0,0,0,4.7-1.166v-4.269a7.031,7.031,0,0,1-3.237.776c-1.767,0-2.8-.82-2.8-2.85V92.866h6.129V88.384H46.133Z" fill="#fff"/>
      <path d="M62.643,88.374H57.422v22.785h5.221Z" fill="#fff"/>
      <path d="M115.07,88.368h-6.343l-9.451,10.1V79.651H94.055v31.508h5.221v-6.521l3.236-3.366,6.734,9.882h6.126l-9.361-13.509Z" fill="#fff"/>
      <path d="M134.317,88.371l-5.912,16.919-6.428-16.919h-5.612l9.5,22.828c-.864,1.941-1.767,2.59-3.236,2.59a6.435,6.435,0,0,1-3.063-.863l-1.767,3.882a10.753,10.753,0,0,0,5.394,1.381c3.669,0,5.7-1.728,7.51-6.388l9.062-23.433h-5.442Z" fill="#fff"/>
      <path d="M59.958,74.767a4.568,4.568,0,0,0-4.576,4.56v.013a4.539,4.539,0,0,0,4.483,4.6c.063,0,.127,0,.19,0a4.483,4.483,0,0,0,4.636-4.324c0-.1,0-.2,0-.3a4.537,4.537,0,0,0-4.521-4.553C60.1,74.763,60.029,74.764,59.958,74.767Z" fill="#fff"/>
      <path d="M154.893,88.407h-5.22v22.784h5.221Z" fill="#fff"/>
      <path d="M152.366,124.787a4.584,4.584,0,0,0,0-9.168h-.1a4.484,4.484,0,0,0-4.635,4.325q0,.147,0,.294a4.539,4.539,0,0,0,4.526,4.552C152.228,124.791,152.3,124.79,152.366,124.787Z" fill="#fff"/>
      <path d="M171.4,87.668A12.117,12.117,0,0,0,159.018,99.52c0,.087,0,.174,0,.262v.087A11.986,11.986,0,0,0,171,111.855c.1,0,.2,0,.305,0a12.119,12.119,0,0,0,12.419-11.81c0-.087,0-.173,0-.259v-.089a12,12,0,0,0-11.978-12.03C171.632,87.663,171.513,87.665,171.4,87.668Zm7.024,12.2c0,4-2.723,7.331-7.021,7.331a7.141,7.141,0,0,1-7.07-7.213c0-.068,0-.137,0-.2v-.089c0-4.036,2.722-7.373,6.979-7.373a7.163,7.163,0,0,1,7.116,7.21q0,.126-.006.252v.087Z" fill="#fff"/>
    </g>
  </g>
</svg>
