<svg xmlns="http://www.w3.org/2000/svg" viewBox="0 0 29.91 25.3"><defs><style>.cls-1{fill:#36f;}</style></defs><g id="Layer_2" data-name="Layer 2"><g id="Layer_1-2" data-name="Layer 1"><path class="cls-1" d="M25,0V2.5a2.58,2.58,0,0,1,2.6,2.6v15a2.69,2.69,0,0,1-2.7,2.7,3,3,0,0,1-1.6-.5L5.5,9.3v3.1L21.8,24.3a5.66,5.66,0,0,0,3,1,4.65,4.65,0,0,0,2.3-.6,5.27,5.27,0,0,0,2.8-4.6V5.1A4.83,4.83,0,0,0,25,0Z"/><path class="cls-1" d="M4,2.8A2.59,2.59,0,0,1,6.8,3L24.6,16V12.9L8.2,1A5.06,5.06,0,0,0,1,2.2a4.53,4.53,0,0,0-1,3v15a5.12,5.12,0,0,0,5.1,5.1V22.8a2.58,2.58,0,0,1-2.6-2.6V5.2A2.79,2.79,0,0,1,4,2.8Z"/></g></g></svg>