<svg xmlns="http://www.w3.org/2000/svg" width="375.363" height="460.797" viewBox="0 0 375.363 460.797">
  <path id="apple" d="M190.6,132.4c-18.2,0-46.377-20.695-76.048-19.947A112.288,112.288,0,0,0,19.311,170.3C-21.331,240.859,8.839,345.082,48.483,402.429c19.448,27.926,42.387,59.342,72.806,58.345,29.172-1.247,40.143-18.95,75.549-18.95,35.156,0,45.13,18.95,76.048,18.2,31.416-.5,51.363-28.424,70.562-56.6a250.585,250.585,0,0,0,31.915-65.576A101.716,101.716,0,0,1,313.528,244.6,103.439,103.439,0,0,1,363.4,157.082a107.936,107.936,0,0,0-84.276-45.629C240.722,108.461,208.557,132.4,190.6,132.4Zm64.828-58.843A100.8,100.8,0,0,0,279.369,0a103.677,103.677,0,0,0-67.82,34.907,96.412,96.412,0,0,0-24.435,71.31,85.962,85.962,0,0,0,68.318-32.663" fill="#030708"/>
</svg>
