<svg xmlns="http://www.w3.org/2000/svg" viewBox="0 0 318 416"><title>codeigniter_logo</title><g id="e9ef198f-a7b8-4721-9975-2355feb01573" data-name="Layer 2"><g id="aabbb619-2bf0-4d54-b217-ffae222e3796" data-name="Layer 1"><path d="M150.418,0s24.293,37.228-37.605,95.774S0,209.317,0,290.038,66.557,408.46,101.166,416c0,0-46.146-23.507-42.6-74.512,0,0-.444-33.708,38.159-63.868,0,0-9.762,37.7,25.291,41.248,0,0,19.967-1.331,23.961-18.185s-3.106-29.716-15.086-41.691-29.729-47.458,1.774-78.948c0,0-9.318,26.168,43.484,56.771s71.437,65.642,76.318,82.053,7.987,67.416-52.358,97.132c0,0,103.385-23.063,117.14-119.752,0,0,14.2-89.593-81.2-140.6,0,0,4.965,28.649-23.517,30.16-27.177,1.441-34.609-35.482-30.616-47.9s8.431-32.378,8.431-32.378S208.988,49.259,150.418,0Z" fill="#dd4814"/></g></g></svg>