<svg xmlns="http://www.w3.org/2000/svg" viewBox="0 0 30.925 30.928"><title>ionic_icon</title><g id="a08652c5-0ff9-4d52-8bc7-a6e18725d849" data-name="Layer 2"><g id="adb8cd4e-4cb8-4247-8a4c-e4a8e0030f83" data-name="Layer 1"><path d="M15.55,8.445a7.017,7.017,0,1,0,7.017,7.017h0A7.017,7.017,0,0,0,15.55,8.445Z" fill="#3880ff"/><circle cx="25.604" cy="5.869" r="3.205" fill="#3880ff"/><path d="M29.542,9.073l-.126-.293-.209.252a4.882,4.882,0,0,1-1.927,1.319l-.21.084.084.209a12.3,12.3,0,0,1,.964,4.818A12.578,12.578,0,1,1,20.933,4.088l.189.084.083-.209A4.8,4.8,0,0,1,22.63,2.1l.251-.209-.293-.147a15.46,15.46,0,1,0,6.954,7.331Z" fill="#3880ff"/></g></g></svg>