<?xml version="1.0" encoding="utf-8"?>
<!-- Generator: Adobe Illustrator 24.0.3, SVG Export Plug-In . SVG Version: 6.00 Build 0)  -->
<svg version="1.1" id="Layer_1" xmlns="http://www.w3.org/2000/svg" xmlns:xlink="http://www.w3.org/1999/xlink" x="0px" y="0px"
	 viewBox="0 0 180 180" style="enable-background:new 0 0 180 180;" xml:space="preserve">
<style type="text/css">
	.st0{fill:#FFFFFF;}
	.st1{fill:#34313F;}
</style>
<path class="st0" d="M136.2,111.3c-0.7-0.2-1-0.9-0.8-1.5c0.1-0.4,0.4-0.7,0.7-0.8c6.7-3,12.9-9.8,12.9-19.1
	c0-11.7-10.1-22.5-27.2-22.5h-11l-66.1,65.9l29.5-29.4v50.7c0.1,0.7,0.7,1.3,1.4,1.3h47.6c17.3,0,26.3-10.7,26.3-24
	C149.4,122.4,143.9,114.3,136.2,111.3z M93.5,85.2c0.1-0.7,0.7-1.3,1.4-1.3h22.7c6.5,0,10.5,3.9,10.5,9.3c0,5.7-4.1,9.3-10.5,9.3
	H94.9c-0.7,0-1.3-0.6-1.4-1.3V85.2z M118.3,139.2H94.9c-0.8,0-1.4-0.6-1.4-1.4v-17.6c0.1-0.7,0.7-1.3,1.4-1.3h23.5
	c7.4,0,11.5,4.5,11.5,10.1C129.8,135.5,125.5,139.2,118.3,139.2z"/>
<path class="st0" d="M93.5,101.2V85.2c0.1-0.7,0.7-1.3,1.4-1.3h22.7c6.5,0,10.5,3.9,10.5,9.3c0,5.7-4.1,9.3-10.5,9.3H94.9
	C94.1,102.5,93.5,101.9,93.5,101.2z"/>
<path class="st0" d="M93.5,137.8v-17.6c0.1-0.7,0.7-1.3,1.4-1.3h23.5c7.4,0,11.5,4.5,11.5,10.1c0,6.5-4.3,10.1-11.5,10.1H94.9
	C94.1,139.2,93.5,138.5,93.5,137.8z"/>
<title>bigcommerce-icon</title>
<g id="f8429da1-72b5-40de-8cc9-7db7d0019e50">
	<g id="b1ed97a0-24d1-40c3-bda4-5cd61a1739f5">
		<g>
			<path class="st1" d="M128.1,93.2c0,5.7-4.1,9.3-10.5,9.3H94.9c-0.7,0-1.3-0.6-1.4-1.3V85.2c0.1-0.7,0.7-1.3,1.4-1.3h22.7
				C124,83.9,128.1,87.8,128.1,93.2z"/>
			<path class="st1" d="M129.8,129.1c0,6.5-4.3,10.1-11.5,10.1H94.9c-0.8,0-1.4-0.6-1.4-1.4v-17.6c0.1-0.7,0.7-1.3,1.4-1.3h23.5
				C125.8,118.9,129.8,123.5,129.8,129.1z"/>
		</g>
		<path class="st1" d="M180,1.2v177.6c0,0.6-0.5,1.2-1.2,1.2H1.5c-0.9,0-1.6-0.7-1.5-1.6c0-0.4,0.2-0.8,0.5-1.1l26.1-26l1.5-1.5
			l16.6-16.5v0l29.5-29.4v50.7c0.1,0.7,0.7,1.3,1.4,1.3h47.6c17.3,0,26.3-10.7,26.3-24c0-9.5-5.5-17.5-13.2-20.6
			c-0.7-0.2-1-0.9-0.8-1.5c0.1-0.4,0.4-0.7,0.7-0.8c6.7-3,12.9-9.8,12.9-19.1c0-11.7-10.1-22.5-27.2-22.5h-11l27.1-27l4.6-4.6h0
			l34.2-34.1l1.2-1.2c0.2-0.2,0.5-0.3,0.8-0.3c0.3,0,0.6,0.1,0.8,0.3C179.9,0.6,180,0.9,180,1.2z"/>
	</g>
</g>
</svg>
