<svg xmlns="http://www.w3.org/2000/svg" viewBox="0 0 666.66667 666.66653"><defs><style>.a{fill:#32373c;}</style></defs><title>wordpress-icon</title><path class="a" d="M333.33327,20A311.77726,311.77726,0,0,1,508.507,73.50042,314.30536,314.30536,0,0,1,622.0516,211.37583a312.89471,312.89471,0,0,1-28.88549,297.131,314.30447,314.30447,0,0,1-137.8754,113.54463,312.8958,312.8958,0,0,1-297.131-28.88536A314.30455,314.30455,0,0,1,44.61506,455.29043a312.89579,312.89579,0,0,1,28.88536-297.131A314.30594,314.30594,0,0,1,211.3761,44.61506,311.35344,311.35344,0,0,1,333.33327,20m0-20C149.23852,0,0,149.23825,0,333.33327,0,517.428,149.23852,666.66653,333.33327,666.66653c184.095,0,333.3334-149.23852,333.3334-333.33326C666.66667,149.23825,517.42828,0,333.33327,0Z"/><path class="a" d="M55.55562,333.32283c0,109.94508,63.8901,204.96758,156.56027,249.98851L79.60806,220.27785A276.69755,276.69755,0,0,0,55.55562,333.32283Zm465.30069-14.00932c0-34.3402-12.33474-58.10808-22.89931-76.605-14.08189-22.89174-27.28612-42.25887-27.28612-65.14987,0-25.5298,19.36046-49.29842,46.64658-49.29842,1.23258,0,2.39982.1485,3.59676.225A276.74034,276.74034,0,0,0,333.3337,55.5555c-97.04953,0-182.42148,49.79515-232.09159,125.19733,6.52229.20641,12.66739.33709,17.87765.33709,29.04811,0,74.03441-3.53129,74.03441-3.53129,14.96623-.87688,16.73565,21.12239,1.77611,22.891,0,0-15.05311,1.76267-31.78876,2.63955l101.14975,300.8833,60.79751-182.30973L281.814,203.08918c-14.96623-.87688-29.135-2.63955-29.135-2.63955-14.97365-.88431-13.21908-23.76788,1.762-22.891,0,0,45.86322,3.53129,73.15676,3.53129,29.04809,0,74.04181-3.53129,74.04181-3.53129,14.97368-.87688,16.73565,21.12239,1.76943,22.891,0,0-15.068,1.76267-31.7895,2.63955l100.38572,298.592,28.65614-90.80165C513.39284,371.197,520.85631,343.08213,520.85631,319.31351ZM338.21354,357.6201l-83.356,242.17231A277.89478,277.89478,0,0,0,425.58288,595.362a25.33346,25.33346,0,0,1-1.99368-3.82828Zm238.879-157.55442A213.36351,213.36351,0,0,1,578.96,228.62716c0,28.17678-5.27932,59.86333-21.12989,99.48932L472.99126,573.41394c82.583-48.14608,138.1198-137.61482,138.1198-240.09111A276.4553,276.4553,0,0,0,577.09252,200.06568Z"/></svg>