<svg id="Layer_2" data-name="Layer 2" xmlns="http://www.w3.org/2000/svg" width="396.785" height="396.785" viewBox="0 0 396.785 396.785">
  <g id="Layer_1" data-name="Layer 1">
    <path id="Path_7632" data-name="Path 7632" d="M198.423,0C88.823,0,0,88.823,0,198.393S88.823,396.785,198.393,396.785s198.393-88.823,198.393-198.393C396.785,88.843,307.985.024,198.429,0ZM305.337,114.8a13.907,13.907,0,0,1-15.771-13.509,14.237,14.237,0,0,1,2.751-8.864c2.078-3.973,2.506-4.462,2.445-6.174-.183-5.257-8.13-5.5-10.27-5.379-29.77.978-37.655,41.2-44.013,73.843l-3.118,17.238c17.177,2.506,29.342-.55,36.127-4.951,9.536-6.174-2.69-12.592-1.161-19.622a14.06,14.06,0,0,1,13.326-10.82A13.674,13.674,0,0,1,297.94,151.6c-.244,12.654-17.055,30.075-50.676,29.342a107.068,107.068,0,0,1-11.37-.795l-6.357,35.027c-5.685,26.53-13.2,62.718-40.223,94.321-23.168,27.569-46.7,31.909-57.216,32.215-19.745.672-32.826-9.842-33.315-23.84a21.022,21.022,0,0,1,19.5-21.273,16.859,16.859,0,0,1,18.094,16.077,10.667,10.667,0,0,1-6.235,11.125c-1.712,1.406-4.279,2.812-4.157,5.868a5.129,5.129,0,0,0,5.807,4.218,31.023,31.023,0,0,0,17.727-7.213c19.255-16.016,26.652-43.89,36.31-94.627l2.017-12.348c3.3-16.5,6.969-34.9,12.531-53.243-13.509-10.208-21.639-22.862-39.856-27.813-12.47-3.362-20.111-.489-25.429,6.3a18.455,18.455,0,0,0,1.895,24.574l10.086,11.125C159.484,195,166.27,206.125,163.7,221.163c-4.034,23.9-32.581,42.3-66.263,31.909-28.792-8.864-34.171-29.219-30.748-40.467a13.558,13.558,0,0,1,18.583-9.414,16.168,16.168,0,0,1,9.108,20.234,29.219,29.219,0,0,1-1.528,4.034,49.343,49.343,0,0,0-3.484,6.418c-1.895,6.052,6.418,10.331,12.165,12.1a22.508,22.508,0,0,0,28.608-13.2,18.339,18.339,0,0,0-5.624-18.828l-12.165-13.081c-5.563-6.174-17.85-23.534-11.859-42.973a41.665,41.665,0,0,1,14.243-20.723,51.348,51.348,0,0,1,46.458-8.5c19.989,5.746,29.586,18.95,42,29.158a170.255,170.255,0,0,1,31.114-57.216,70.909,70.909,0,0,1,50.8-27.2c20.172-.672,35.393,8.436,35.882,22.862A17.116,17.116,0,0,1,305.337,114.8Z" fill="#1a171b"/>
  </g>
</svg>
