<svg xmlns="http://www.w3.org/2000/svg" viewBox="0 0 112.33207 100"><defs><style>.a{fill:#70e1fc;}</style></defs><title>1-react</title><circle class="a" cx="56.16603" cy="50" r="10.12398"/><path class="a" d="M56.166,31.59414c14.41091,0,27.88827,2.27455,37.94936,6.40467,8.49474,3.4871,13.56623,7.97355,13.56623,12.00119s-5.07149,8.5141-13.56623,12.00121C84.0543,66.13129,70.57694,68.40584,56.166,68.40584s-27.88827-2.27455-37.94936-6.40463C9.72193,58.5141,4.65045,54.02765,4.65045,50s5.07148-8.51409,13.56622-12.00119c10.06109-4.13012,23.53845-6.40467,37.94936-6.40467Zm0-4.65045C25.14638,26.94369,0,37.26635,0,50S25.14638,73.05629,56.166,73.05629,112.33207,62.73365,112.33207,50,87.18569,26.94369,56.166,26.94369Z"/><path class="a" d="M72.106,40.79707C79.31142,53.27729,84.08028,66.0863,85.534,76.86451c1.22745,9.10022-.12219,15.73548-3.61023,17.74931s-9.90917-.135-17.17646-5.74811C56.14,82.2176,47.43155,71.68314,40.22609,59.20292S28.25178,33.9137,26.798,23.13549C25.57055,14.03528,26.92019,7.4,30.40823,5.3862s9.90917.135,17.17645,5.74809C56.192,17.7824,64.90052,28.31686,72.106,40.79707Zm4.0274-2.32522C60.62355,11.60805,39.11067-5.008,28.083,1.35879s-7.39414,33.30555,8.11568,60.16936S73.22137,105.008,84.249,98.64122s7.39417-33.30556-8.11566-60.16937Z"/><path class="a" d="M72.106,59.20292C64.90052,71.68314,56.192,82.2176,47.58469,88.8657c-7.26729,5.61311-13.68842,7.76192-17.17646,5.7481S25.57055,85.96471,26.798,76.8645c1.45378-10.7782,6.22264-23.58721,13.4281-36.06743s15.914-23.01467,24.52125-29.66279c7.26729-5.61311,13.68842-7.76192,17.17646-5.7481s4.83768,8.64909,3.61023,17.7493C84.08028,33.9137,79.31143,46.72271,72.106,59.20292Zm4.02741,2.32523C91.6432,34.66434,95.2767,7.7256,84.249,1.35878S51.70851,11.60805,36.19869,38.47185,17.05534,92.27438,28.083,98.64121,60.62355,88.392,76.13338,61.52815Z"/></svg>