<svg xmlns="http://www.w3.org/2000/svg" viewBox="0 0 430.96 295.023"><title>laravel-icon</title><g id="ff331fc2-bf99-43dd-9794-88622a65dc8c" data-name="Layer 2"><g id="e523caf3-9b87-4c88-b5c3-adb027fb5d37" data-name="Layer 1"><path d="M429.307,137.828c-2.852-3.209-42.3-52.591-49.254-60.97s-10.34-6.864-14.619-6.24-54.2,9-59.989,9.983-9.448,3.3-5.883,8.29c3.171,4.439,35.986,50.962,43.214,61.208L212.315,181.352,108.56,7.889C104.43,1.765,103.572-.375,94.172.053S12.78,6.461,7.653,6.889-3.1,9.6,2.024,21.705,88.911,209.994,91.189,215.121s8.2,13.445,22.077,10.112c14.213-3.415,63.5-16.28,90.434-23.333,14.231,25.77,43.254,78.045,48.621,85.535,7.166,10,12.1,8.346,23.1,5.012,8.589-2.6,134.4-47.845,140.068-50.178s9.167-4,5.333-9.667c-2.819-4.166-36.008-48.629-53.392-71.89,11.907-3.169,54.244-14.44,58.758-15.664C431.446,143.622,432.16,141.037,429.307,137.828ZM192.135,186.32c-1.56.334-74.63,17.822-78.529,18.713s-3.9.446-4.344-.891S22.383,24.583,21.183,22.355s-1.138-3.993,0-3.993S90.191,12.3,92.592,12.169s2.149.379,3.033,1.895c0,0,95.73,165.239,97.4,168.135S193.694,185.986,192.135,186.32Zm206.02,38.615c1.166,1.834,2.332,3-1.334,4.334s-123.667,41.833-126,42.833-4.166,1.333-7.166-3-42.042-71.9-42.042-71.9l127.208-33.1c3.167-1,4.167-1.667,6.167,1.5S396.989,223.1,398.155,224.935Zm8.155-90.316c-2.853.624-49.561,12.212-49.561,12.212l-38.2-52.413c-1.07-1.515-1.961-3.031.713-3.387s46.084-8.2,48.045-8.647,3.655-.98,6.062,2.318,35.437,45.1,36.685,46.708-.89,2.585-3.743,3.209Z" fill="#fb503b"/></g></g></svg>