<?xml version="1.0" encoding="utf-8"?>
<!-- Generator: Adobe Illustrator 23.0.4, SVG Export Plug-In . SVG Version: 6.00 Build 0)  -->
<svg version="1.1" id="Layer_1" xmlns="http://www.w3.org/2000/svg" xmlns:xlink="http://www.w3.org/1999/xlink" x="0px" y="0px"
	 viewBox="0 0 2160 2160" style="enable-background:new 0 0 2160 2160;" xml:space="preserve">
<style type="text/css">
	.st0{fill:#0678BE;}
</style>
<path class="st0" d="M1842.9,317.1C1638.9,113.1,1368,0,1080,0C485.1,0,0,485.1,0,1080s485.1,1080,1080,1080s1080-485.1,1080-1080
	C2160,792,2046.9,521.1,1842.9,317.1z M1080,1781.1c-325.7,0-591.4-265.7-591.4-591.4c0-276,185.1-461.1,348-624
	c108-108,212.6-212.6,243.4-329.1c30.9,116.6,133.7,221.1,243.4,329.1c162.9,162.9,348,348,348,624
	C1671.4,1515.4,1405.7,1781.1,1080,1781.1z"/>
</svg>
