<?xml version="1.0" encoding="utf-8"?>
<!-- Generator: Adobe Illustrator 23.0.2, SVG Export Plug-In . SVG Version: 6.00 Build 0)  -->
<svg version="1.1" id="Layer_1" xmlns="http://www.w3.org/2000/svg" xmlns:xlink="http://www.w3.org/1999/xlink" x="0px" y="0px"
	 viewBox="0 0 300 322.6" style="enable-background:new 0 0 300 322.6;" xml:space="preserve">
<style type="text/css">
	.st0{fill:#3BA1D9;}
</style>
<title>response-icon</title>
<g id="bcf87d2e-1ad6-4955-9029-cd74ae2c3ca9">
	<g id="ae8551f7-215a-4629-9e90-027dee997bc8">
		<path class="st0" d="M0,0l57.9,47.4h173.7c0,0-26.3,31.6-52.6,31.6H15.8V200h52.6v-73.7h52.6l89.5,73.7h78.9L200,126.3
			c58.8-13.5,100.3-66,100-126.3H0z"/>
		<path class="st0" d="M73.1,313.4c-2.5,1.9-5.1,3.5-7.9,4.9c-2.9,1.4-6,2.4-9.2,3.2c-3.5,0.8-7.1,1.2-10.7,1.1
			c-6,0.1-12-1.1-17.5-3.5c-5.3-2.3-10-5.5-14-9.7c-4-4.2-7.1-9.1-9.2-14.4c-2.2-5.7-3.3-11.7-3.3-17.8v-0.2
			c0-6.1,1.1-12.1,3.3-17.7c2.1-5.4,5.3-10.4,9.2-14.6c8.2-8.7,19.7-13.6,31.6-13.4c3.6,0,7.2,0.3,10.7,1c3.1,0.6,6.1,1.6,8.9,2.9
			c2.7,1.3,5.3,2.8,7.7,4.5c2.5,1.8,4.8,3.7,7,5.7l-4.7,4.8c-1.9-1.8-3.9-3.6-6.1-5.2c-2.1-1.6-4.4-3-6.8-4.1
			c-2.5-1.2-5.1-2.1-7.8-2.7c-3-0.7-6.1-1-9.1-1c-10.1-0.1-19.7,4.1-26.6,11.4c-3.4,3.7-6,7.9-7.8,12.6c-1.9,5-2.9,10.2-2.8,15.5
			v0.3c0,5.3,0.9,10.6,2.9,15.6c1.8,4.7,4.5,9,7.9,12.6c3.3,3.6,7.3,6.5,11.8,8.5c4.6,2.1,9.7,3.1,14.8,3.1
			c5.8,0.1,11.5-1.1,16.7-3.5c5.1-2.7,9.7-6.1,13.8-10.2l4.4,4.3C78.1,309.4,75.7,311.5,73.1,313.4z"/>
		<path class="st0" d="M162.1,321l-28.2-36.6H105V321h-6.6v-88.4h37.1c4.4-0.1,8.8,0.6,13,1.8c3.6,1.1,7,2.8,9.9,5.2
			c2.7,2.2,4.9,4.9,6.4,7.9c1.6,3.2,2.3,6.6,2.3,10.2v0.2c0.1,3.4-0.6,6.8-2,9.9c-1.3,2.9-3.1,5.4-5.4,7.5c-2.4,2.2-5.2,3.9-8.2,5.1
			c-3.3,1.3-6.7,2.3-10.3,2.7l29.2,37.8H162.1z M160.6,258c0.2-5.5-2.2-10.8-6.6-14.2c-5.5-3.8-12.1-5.6-18.8-5.2H105v39.9h29.8
			c3.5,0,6.9-0.4,10.3-1.4c2.9-0.8,5.7-2.2,8.2-4c2.2-1.7,4.1-3.9,5.4-6.3c1.3-2.7,2-5.6,1.9-8.6L160.6,258z"/>
		<path class="st0" d="M266.6,321v-76.8l-35,50.9h-0.5l-35-50.9V321h-6.3v-88.4h6.2l35.5,52.3l35.5-52.3h6.2V321L266.6,321z"/>
	</g>
</g>
</svg>
