<svg xmlns="http://www.w3.org/2000/svg" viewBox="0 0 300 289"><title>jquery-icon</title><g id="e8bb51e4-0f6c-41b8-a197-1c67fa71a1d0" data-name="Layer 2"><g id="bed772be-de91-4773-9904-1c2c5e3ac527" data-name="Layer 1"><path d="M39.238,41.412S5.986,99.739,46.821,168.564,157.66,249.055,157.66,249.055s84.587,21.581,134.173-40.829c0,0-32.085,86.324-137.09,80.491S11.82,187.812,11.82,187.812-9.765,139.984,5.4,93.906C5.4,93.906,9.486,76.408,39.238,41.412Z" fill="#0769ad"/><path d="M116.825,13.415s-28,44.912,4.083,96.239S202.579,167.4,202.579,167.4,263.248,182.563,300,132.985c0,0-19.834,53.077-77.587,62.409-60.67,9.916-113.172-33.246-129.506-79.324S96.99,36.746,116.825,13.415Z" fill="#0769ad"/><path d="M291.833,78.158S274.332,107.321,230,95.073s-54.836-51.911-54.836-51.911S166.994,21.581,178.661,0c0,0-26.835,26.247-15.168,61.243s46.669,54.827,72.921,52.494S277.832,104.405,291.833,78.158Z" fill="#0769ad"/></g></g></svg>