<?xml version="1.0" encoding="utf-8"?>
<!-- Generator: Adobe Illustrator 25.2.3, SVG Export Plug-In . SVG Version: 6.00 Build 0)  -->
<svg version="1.1" id="Layer_1" xmlns="http://www.w3.org/2000/svg" xmlns:xlink="http://www.w3.org/1999/xlink" x="0px" y="0px"
	 viewBox="0 0 40 40" style="enable-background:new 0 0 40 40;" xml:space="preserve">
<style type="text/css">
	.st0{fill:#9B5C8F;}
	.st1{fill:#FFFFFF;}
</style>
<g transform="translate(-1107 -3697)">
	<rect x="1107" y="3697" class="st0" width="40" height="40"/>
	<path class="st1" d="M1113.5,3705.8c0.4-0.5,1-0.8,1.7-0.8c1.1-0.2,2.1,0.5,2.3,1.6c0,0.1,0,0.3,0,0.4c0.8,5.7,1.8,10.5,2.7,14.4
		l5.9-11.3c0.3-0.9,1.1-1.5,2-1.6c1.2-0.1,1.9,0.7,2.2,2.3c0.6,3.2,1.4,6.3,2.6,9.3c0.7-6.9,1.9-11.9,3.6-14.9
		c0.3-0.7,1-1.2,1.8-1.2c0.6-0.1,1.2,0.1,1.7,0.5c0.5,0.4,0.8,0.9,0.8,1.5c0,0.5-0.1,0.9-0.3,1.3c-1.1,2-1.9,5.2-2.6,9.8
		c-0.6,3.4-0.9,6.9-0.8,10.3c0.1,0.6,0,1.2-0.3,1.8c-0.3,0.6-0.8,0.9-1.4,1c-0.8,0-1.6-0.4-2.1-1c-2.5-2.6-4.5-6.4-6-11.6
		c-1.8,3.5-3.1,6.1-3.9,7.8c-1.6,3.1-3,4.6-4.1,4.7c-0.7,0.1-1.4-0.6-1.9-1.9c-1.4-3.6-2.9-10.4-4.5-20.6
		C1112.9,3707,1113.1,3706.3,1113.5,3705.8z"/>
</g>
</svg>
