<?xml version="1.0" encoding="utf-8"?>
<!-- Generator: Adobe Illustrator 22.1.0, SVG Export Plug-In . SVG Version: 6.00 Build 0)  -->
<svg version="1.1"
	 id="svg3430" xmlns:cc="http://creativecommons.org/ns#" xmlns:dc="http://purl.org/dc/elements/1.1/" xmlns:rdf="http://www.w3.org/1999/02/22-rdf-syntax-ns#" xmlns:svg="http://www.w3.org/2000/svg"
	 xmlns="http://www.w3.org/2000/svg" xmlns:xlink="http://www.w3.org/1999/xlink" x="0px" y="0px" viewBox="0 0 711.2 383.6"
	 style="enable-background:new 0 0 711.2 383.6;" xml:space="preserve">
<style type="text/css">
	.st0{clip-path:url(#SVGID_2_);}
	.st1{fill:url(#path3462_1_);}
	.st2{fill:#777BB3;}
	.st3{fill:#FFFFFF;}
</style>
<title  id="title3510">Official PHP Logo</title>
<g id="g3438" transform="matrix(1.25,0,0,-1.25,-4.4,394.29875)">
	<g id="g3440">
		<g>
			<defs>
				<path id="SVGID_1_" d="M11.5,162C11.5,81.7,135.3,16.6,288,16.6l0,0c152.7,0,276.5,65.1,276.5,145.4l0,0
					c0,80.3-123.8,145.4-276.5,145.4l0,0C135.3,307.4,11.5,242.3,11.5,162"/>
			</defs>
			<clipPath id="SVGID_2_">
				<use xlink:href="#SVGID_1_"  style="overflow:visible;"/>
			</clipPath>
			<g id="g3442" class="st0">
				<g id="g3448">
					<g id="g3450">
						
							<radialGradient id="path3462_1_" cx="88.1331" cy="-38.8605" r="1" gradientTransform="matrix(453.8224 0 0 -453.8224 -39819.2695 -17379.4707)" gradientUnits="userSpaceOnUse">
							<stop  offset="0" style="stop-color:#AEB2D5"/>
							<stop  offset="0.3" style="stop-color:#AEB2D5"/>
							<stop  offset="0.75" style="stop-color:#484C89"/>
							<stop  offset="1" style="stop-color:#484C89"/>
						</radialGradient>
						<path id="path3462" class="st1" d="M11.5,162C11.5,81.7,135.3,16.6,288,16.6l0,0c152.7,0,276.5,65.1,276.5,145.4l0,0
							c0,80.3-123.8,145.4-276.5,145.4l0,0C135.3,307.4,11.5,242.3,11.5,162"/>
					</g>
				</g>
			</g>
		</g>
	</g>
	<g id="g3464">
		<g>
			<g id="g3466">
				<g id="g3472" transform="translate(288,27.3594)">
					<path id="path3474" class="st2" d="M0,0c146.7,0,265.7,60.3,265.7,134.6c0,74.4-119,134.6-265.7,134.6S-265.7,209-265.7,134.6
						C-265.7,60.3-146.7,0,0,0"/>
				</g>
			</g>
		</g>
	</g>
	<g id="g3476">
		<g>
			<g id="g3478">
				<g id="g3484" transform="translate(161.7344,145.3066)">
					<path id="path3486" d="M0,0c12.1,0,21.1,2.2,26.8,6.6C32.4,11,36.3,18.5,38.3,29c1.9,9.8,1.2,16.7-2.2,20.3
						C32.8,53.1,25.4,55,14.3,55H-5L-15.7,0H0z M-63.1-67.8c-0.9,0-1.7,0.4-2.3,1.1c-0.6,0.7-0.8,1.6-0.6,2.5l28.3,145.8
						c0.3,1.4,1.5,2.4,2.9,2.4h61.1c19.2,0,33.5-5.2,42.4-15.5c9-10.3,11.8-24.8,8.3-42.9c-1.4-7.4-3.9-14.3-7.3-20.4
						c-3.4-6.2-8-11.9-13.5-16.9C49.6-17.9,42.1-22.4,34-25.1C26-27.7,15.7-29,3.4-29h-24.7l-7.1-36.3c-0.3-1.4-1.5-2.4-2.9-2.4
						H-63.1z"/>
				</g>
				<g id="g3488" transform="translate(159.2236,197.3071)">
					<path id="path3490" class="st3" d="M0,0h16.8c13.4,0,18.1-2.9,19.7-4.7c2.6-2.9,3.1-9.1,1.4-17.8C36-32.2,32.5-39.1,27.5-43
						c-5.2-4-13.6-6-24.9-6h-12L0,0z M28.8,35h-61.1c-2.9,0-5.3-2-5.9-4.9l-28.3-145.8c-0.3-1.8,0.1-3.6,1.3-5
						c1.1-1.4,2.8-2.2,4.6-2.2h31.8c2.9,0,5.3,2,5.9,4.9l6.6,33.9H5.9c12.6,0,23.2,1.4,31.5,4.1c8.5,2.8,16.4,7.5,23.4,14
						c5.8,5.3,10.5,11.2,14.1,17.7c3.6,6.4,6.2,13.6,7.7,21.3c3.7,19.1,0.7,34.4-9,45.5C64,29.4,48.9,35,28.8,35 M-16.8-55H2.5
						c12.8,0,22.3,2.4,28.6,7.2c6.3,4.8,10.5,12.9,12.7,24.2c2.1,10.8,1.1,18.5-2.9,22.9C36.9,3.8,28.9,6,16.8,6H-4.9L-16.8-55
						 M28.8,29c18.4,0,31.8-4.8,40.2-14.5c8.4-9.6,11-23.1,7.6-40.4c-1.4-7.1-3.7-13.6-7-19.5c-3.3-5.9-7.6-11.3-12.9-16.2
						c-6.3-5.9-13.4-10.2-21.1-12.7C27.8-76.7,17.9-78,5.9-78h-27.2l-7.5-38.8h-31.8L-32.2,29H28.8"/>
				</g>
				<g id="g3492" transform="translate(311.583,116.3066)">
					<path id="path3494" d="M0,0c-0.9,0-1.7,0.4-2.3,1.1c-0.6,0.7-0.8,1.6-0.6,2.5L9.6,68.1c1.2,6.1,0.9,10.5-0.8,12.4
						c-1.1,1.1-4.2,3-13.6,3h-22.7L-43.3,2.4C-43.6,1-44.8,0-46.2,0h-31.5c-0.9,0-1.7,0.4-2.3,1.1c-0.6,0.7-0.8,1.6-0.6,2.5
						l28.3,145.8c0.3,1.4,1.5,2.4,2.9,2.4h31.5c0.9,0,1.7-0.4,2.3-1.1c0.6-0.7,0.8-1.6,0.6-2.5l-6.8-35.2H2.6
						c18.6,0,31.2-3.3,38.6-10c7.5-6.9,9.8-17.9,6.9-32.7L34.9,2.4C34.7,1,33.4,0,32,0H0z"/>
				</g>
				<g id="g3496" transform="translate(293.6611,271.0571)">
					<path id="path3498" class="st3" d="M0,0h-31.5c-2.9,0-5.3-2-5.9-4.9l-28.3-145.8c-0.3-1.8,0.1-3.6,1.3-5s2.8-2.2,4.6-2.2h31.5
						c2.9,0,5.3,2,5.9,4.9l15.3,78.6h20.2c9.4,0,11.3-2,11.4-2.1c0.6-0.6,1.3-3.4,0.1-9.8L12-150.6c-0.3-1.8,0.1-3.6,1.3-5
						s2.8-2.2,4.6-2.2h32c2.9,0,5.3,2,5.9,4.9L69-85.1c3.1,15.9,0.4,27.9-7.9,35.5c-7.9,7.3-21.2,10.8-40.6,10.8H-0.3L5.9-7.1
						c0.3,1.8-0.1,3.6-1.3,5C3.5-0.8,1.8,0,0,0 M0-6l-7.5-38.8h28.1c17.7,0,29.8-3.1,36.5-9.2c6.7-6.2,8.7-16.1,6-29.9l-13.2-67.8
						h-32l12.5,64.5c1.4,7.3,0.9,12.3-1.6,15c-2.5,2.7-7.7,4-15.8,4h-25.2l-16.2-83.5h-31.5L-31.5-6H0"/>
				</g>
				<g id="g3500" transform="translate(409.5498,145.3066)">
					<path id="path3502" d="M0,0c12.1,0,21.1,2.2,26.8,6.6C32.4,11,36.3,18.5,38.3,29c1.9,9.8,1.2,16.7-2.2,20.3
						C32.8,53.1,25.4,55,14.3,55H-5L-15.7,0H0z M-63.1-67.8c-0.9,0-1.7,0.4-2.3,1.1c-0.6,0.7-0.8,1.6-0.6,2.5l28.3,145.8
						c0.3,1.4,1.5,2.4,2.9,2.4h61.1c19.2,0,33.5-5.2,42.4-15.5c9-10.3,11.8-24.8,8.3-42.9c-1.4-7.4-3.9-14.3-7.3-20.4
						c-3.4-6.2-8-11.9-13.5-16.9C49.6-17.9,42.1-22.4,34-25.1C26-27.7,15.7-29,3.4-29h-24.7l-7.1-36.3c-0.3-1.4-1.5-2.4-2.9-2.4
						H-63.1z"/>
				</g>
				<g id="g3504" transform="translate(407.0391,197.3071)">
					<path id="path3506" class="st3" d="M0,0h16.8c13.4,0,18.1-2.9,19.7-4.7c2.6-2.9,3.1-9.1,1.4-17.8C36-32.2,32.5-39.1,27.5-43
						c-5.2-4-13.6-6-24.9-6h-12L0,0z M28.8,35h-61.1c-2.9,0-5.3-2-5.9-4.9l-28.3-145.8c-0.3-1.8,0.1-3.6,1.3-5
						c1.1-1.4,2.8-2.2,4.6-2.2h31.8c2.9,0,5.3,2,5.9,4.9l6.6,33.9H5.9c12.6,0,23.2,1.4,31.5,4.1c8.5,2.8,16.4,7.5,23.4,14
						c5.8,5.3,10.5,11.2,14.1,17.7c3.6,6.4,6.2,13.6,7.7,21.3c3.7,19.1,0.7,34.4-9,45.5C64,29.4,48.9,35,28.8,35 M-16.8-55H2.5
						c12.8,0,22.3,2.4,28.6,7.2c6.3,4.8,10.5,12.9,12.7,24.2c2.1,10.8,1.1,18.5-2.9,22.9C36.9,3.8,28.9,6,16.8,6H-4.9L-16.8-55
						 M28.8,29c18.4,0,31.8-4.8,40.2-14.5s11-23.1,7.6-40.4c-1.4-7.1-3.7-13.6-7-19.5c-3.3-5.9-7.6-11.3-12.9-16.2
						c-6.3-5.9-13.4-10.2-21.1-12.7C27.8-76.7,17.9-78,5.9-78h-27.2l-7.5-38.8h-31.8L-32.2,29H28.8"/>
				</g>
			</g>
		</g>
	</g>
</g>
</svg>
