<svg xmlns="http://www.w3.org/2000/svg" viewBox="0 0 80 80"><defs><style>.cls-1{fill:#003265;}</style></defs><g id="Layer_2" data-name="Layer 2"><g id="Layer_1-2" data-name="Layer 1"><path class="cls-1" d="M76.815,47.688,47.687,76.814a10.867,10.867,0,0,1-15.367.007l-.007-.007-5.049-5.049L53.443,45.587H60.56V34.473H49.451V41.66L23.3,67.8,3.185,47.688a10.871,10.871,0,0,1,0-15.374l0,0L32.313,3.185a10.869,10.869,0,0,1,15.372,0l0,0L52.94,8.438,26.971,34.407a5.836,5.836,0,0,0-1.854-.293,6.049,6.049,0,1,0,6.048,6.05v0A6.153,6.153,0,0,0,30.91,38.4l26-25.992,19.9,19.906a10.871,10.871,0,0,1,0,15.374Z"/></g></g></svg>