<svg xmlns="http://www.w3.org/2000/svg" xmlns:xlink="http://www.w3.org/1999/xlink" viewBox="0 0 85 85"><defs><style>.cls-1,.cls-7{fill:#fff;}.cls-2{fill:#ebf0f6;}.cls-3{fill:#005eb3;}.cls-11,.cls-12,.cls-13,.cls-3,.cls-4,.cls-5,.cls-6,.cls-7{fill-rule:evenodd;}.cls-4{fill:#0072d9;}.cls-5{fill:#fbaf3b;}.cls-6{fill:#e98d00;}.cls-8{fill:#252525;}.cls-9{fill:#e48a02;}.cls-10{fill:url(#linear-gradient);}.cls-11{fill:#5670fb;}.cls-12{fill:#3655ff;}.cls-13{fill:#3c59f3;}.cls-14{fill:#040a1e;}</style><linearGradient id="linear-gradient" x1="-999.484" y1="36.707" x2="-999.484" y2="36.544" gradientTransform="translate(65924.732 -2716.727) scale(65.94 74.55)" gradientUnits="userSpaceOnUse"><stop offset="0" stop-color="#0169e1"/><stop offset="1" stop-color="#0f8ef1"/></linearGradient></defs><g id="Layer_2" data-name="Layer 2"><g id="Layer_1-2" data-name="Layer 1"><g id="Group_1571" data-name="Group 1571"><g id="Rectangle_3704" data-name="Rectangle 3704"><rect class="cls-1" width="85" height="85" rx="5"/><path class="cls-2" d="M80,85H5a5.006,5.006,0,0,1-5-5V5A5.006,5.006,0,0,1,5,0H80a5.006,5.006,0,0,1,5,5V80A5.006,5.006,0,0,1,80,85ZM5,1A4,4,0,0,0,1,5V80a4,4,0,0,0,4,4H80a4,4,0,0,0,4-4V5a4,4,0,0,0-4-4Z"/></g><g id="badge"><path id="Path_8138" data-name="Path 8138" class="cls-3" d="M37.691,48.247h9.617v-3.11H37.691Z"/><path id="Path_8139" data-name="Path 8139" class="cls-4" d="M47.309,45.137,40.791,57.122l3.868,2.1,6.518-11.985Z"/><path id="Path_8140" data-name="Path 8140" class="cls-4" d="M37.691,45.137l-3.868,2.1,6.518,11.989,3.868-2.1Z"/><g id="Group_1566" data-name="Group 1566"><path id="Path_8141" data-name="Path 8141" class="cls-5" d="M48.359,58.624a5.86,5.86,0,1,0-5.86,5.86,5.86,5.86,0,0,0,5.86-5.86"/><path id="Path_8142" data-name="Path 8142" class="cls-6" d="M42.5,54.012a4.611,4.611,0,1,0,4.61,4.612h0a4.616,4.616,0,0,0-4.61-4.611m0,9.609a5,5,0,1,1,5-5,5,5,0,0,1-5,5"/><path id="Path_8143" data-name="Path 8143" class="cls-7" d="M42.5,55.387l.727,2.237h2.352l-1.9,1.386.727,2.237-1.9-1.382-1.9,1.382.722-2.237-1.9-1.382h2.352Z"/></g></g><path id="Path_8145" data-name="Path 8145" class="cls-8" d="M9.52,76.228a1.965,1.965,0,0,0,1.728-.974l-.645-.322a1.284,1.284,0,0,1-1.083.625,1.476,1.476,0,0,1-1.485-1.469c0-.028,0-.056,0-.085a1.47,1.47,0,0,1,1.384-1.551q.05,0,.1,0a1.269,1.269,0,0,1,1.083.625l.638-.335a1.928,1.928,0,0,0-1.722-.961A2.166,2.166,0,0,0,7.263,73.85c0,.051,0,.1,0,.153a2.17,2.17,0,0,0,2.112,2.226C9.423,76.231,9.472,76.23,9.52,76.228Zm3.721,0a1.56,1.56,0,0,0,1.6-1.519c0-.04,0-.079,0-.119a1.553,1.553,0,0,0-1.47-1.63c-.043,0-.087,0-.13,0a1.552,1.552,0,0,0-1.6,1.5c0,.044,0,.087,0,.13a1.562,1.562,0,0,0,1.482,1.637C13.162,76.229,13.2,76.229,13.241,76.228Zm0-.6a.936.936,0,0,1-.9-.966c0-.024,0-.048,0-.072a.934.934,0,0,1,.83-1.027c.024,0,.047,0,.07,0a.93.93,0,0,1,.905.954.681.681,0,0,1-.005.078.932.932,0,0,1-.818,1.033c-.027,0-.055,0-.082.006Zm5.159.522v-4.3h-.677v1.619a1.213,1.213,0,0,0-1-.509c-.8,0-1.38.625-1.38,1.631,0,1.032.587,1.638,1.38,1.638a1.25,1.25,0,0,0,1-.5v.426Zm-1.477-.522a.917.917,0,0,1-.89-.944.73.73,0,0,1,.007-.094.916.916,0,0,1,.792-1.025c.03,0,.061-.006.091-.007a1.012,1.012,0,0,1,.8.419v1.232a1.01,1.01,0,0,1-.8.42Zm3.8.6a1.84,1.84,0,0,0,1.264-.458l-.31-.445a1.31,1.31,0,0,1-.89.348.943.943,0,0,1-.987-.858h2.4v-.168a1.533,1.533,0,0,0-1.37-1.68c-.052,0-.1-.008-.157-.008a1.574,1.574,0,0,0-1.581,1.567c0,.021,0,.043,0,.064a1.562,1.562,0,0,0,1.483,1.638c.048,0,.1,0,.145,0Zm.825-1.9H19.793a.852.852,0,0,1,.871-.819.839.839,0,0,1,.881.793v.035Zm3.411,1.9a1.965,1.965,0,0,0,1.728-.974l-.645-.322a1.284,1.284,0,0,1-1.083.625,1.477,1.477,0,0,1-1.488-1.466c0-.029,0-.058,0-.087a1.47,1.47,0,0,1,1.384-1.551q.05,0,.1,0a1.269,1.269,0,0,1,1.083.625l.638-.335a1.928,1.928,0,0,0-1.722-.961A2.166,2.166,0,0,0,22.7,73.851c0,.051,0,.1,0,.153a2.17,2.17,0,0,0,2.113,2.225c.049,0,.1,0,.147,0Zm2.986-.077v-4.3h-.677v4.3Zm2.289.077a1.56,1.56,0,0,0,1.6-1.519c0-.04,0-.079,0-.119a1.553,1.553,0,0,0-1.47-1.63c-.043,0-.087,0-.13,0a1.552,1.552,0,0,0-1.6,1.5c0,.044,0,.087,0,.13a1.562,1.562,0,0,0,1.482,1.637c.038,0,.077,0,.116,0Zm0-.6a.936.936,0,0,1-.905-.966c0-.024,0-.048,0-.072a.934.934,0,0,1,.83-1.027c.024,0,.047,0,.07,0a.93.93,0,0,1,.9.954.681.681,0,0,1,0,.078.932.932,0,0,1-.818,1.033.791.791,0,0,1-.084.006Zm5.068.522V73.037h-.677v2.186a1.029,1.029,0,0,1-.793.406c-.387,0-.632-.155-.632-.638V73.037h-.677v2.2a.892.892,0,0,0,1.006.987,1.488,1.488,0,0,0,1.1-.49v.413Zm3.746,0v-4.3h-.675v1.619a1.213,1.213,0,0,0-1-.509c-.8,0-1.38.625-1.38,1.631,0,1.032.587,1.638,1.38,1.638a1.25,1.25,0,0,0,1-.5v.426Zm-1.475-.521a.917.917,0,0,1-.89-.944.73.73,0,0,1,.007-.094.916.916,0,0,1,.792-1.025c.03,0,.061-.006.091-.007a1.012,1.012,0,0,1,.8.419V75.21A1.009,1.009,0,0,1,37.573,75.629Zm3.424.6c.838,0,1.3-.419,1.3-.974,0-1.238-1.883-.825-1.883-1.373,0-.219.219-.387.574-.387a1.27,1.27,0,0,1,.922.374l.284-.477a1.775,1.775,0,0,0-1.206-.432c-.787,0-1.225.432-1.225.941,0,1.2,1.883.761,1.883,1.373,0,.245-.213.413-.619.413a1.6,1.6,0,0,1-1.054-.432l-.31.484a1.888,1.888,0,0,0,1.331.489Zm4.411-.077v-4.3h-.754v4.3Zm2.7,0V72.514h1.3V71.85h-3.36v.664h1.3v3.637Zm5.081.077c1.154,0,1.664-.619,1.664-1.335,0-1.6-2.5-1.1-2.5-1.909,0-.316.284-.535.722-.535a1.759,1.759,0,0,1,1.251.5l.426-.561a2.228,2.228,0,0,0-1.606-.606c-.948,0-1.567.548-1.567,1.264,0,1.58,2.5,1.019,2.5,1.922,0,.29-.239.593-.858.593a1.845,1.845,0,0,1-1.361-.6l-.426.587a2.35,2.35,0,0,0,1.748.679Zm3.746,0a1.56,1.56,0,0,0,1.6-1.519c0-.04,0-.079,0-.119a1.553,1.553,0,0,0-1.47-1.63c-.043,0-.087,0-.13,0a1.552,1.552,0,0,0-1.6,1.5c0,.044,0,.087,0,.13a1.562,1.562,0,0,0,1.483,1.636c.037,0,.073,0,.11,0Zm0-.6a.936.936,0,0,1-.905-.966c0-.024,0-.048,0-.072a.934.934,0,0,1,.83-1.027c.024,0,.047,0,.07,0a.93.93,0,0,1,.905.954.681.681,0,0,1-.005.078.931.931,0,0,1-.82,1.032.636.636,0,0,1-.087.006Zm2.966.522v-4.3h-.677v4.3Zm3.656,0V73.037h-.684v2.186a1.029,1.029,0,0,1-.793.406c-.387,0-.632-.155-.632-.638V73.037h-.675v2.2a.891.891,0,0,0,.777.992.876.876,0,0,0,.223,0,1.489,1.489,0,0,0,1.1-.491v.413Zm1.816.077a.915.915,0,0,0,.632-.2l-.161-.516a.42.42,0,0,1-.3.116c-.193,0-.3-.161-.3-.374V73.623h.632v-.586h-.632v-.851h-.671v.851h-.52v.587h.52v1.8a.717.717,0,0,0,.618.8A.693.693,0,0,0,65.373,76.228Zm1.453-3.572a.418.418,0,0,0,.419-.417v0a.418.418,0,0,0-.417-.419h0a.418.418,0,0,0-.419.417v0a.417.417,0,0,0,.417.419Zm.335,3.495V73.037h-.677v3.115Zm2.289.077a1.56,1.56,0,0,0,1.6-1.519c0-.04,0-.079,0-.119a1.553,1.553,0,0,0-1.47-1.63c-.043,0-.087,0-.13,0a1.552,1.552,0,0,0-1.6,1.5c0,.044,0,.087,0,.13a1.561,1.561,0,0,0,1.482,1.637c.039,0,.079,0,.119,0Zm0-.6a.936.936,0,0,1-.905-.966c0-.024,0-.048,0-.072a.934.934,0,0,1,.83-1.027c.024,0,.047,0,.07,0a.93.93,0,0,1,.905.954.681.681,0,0,1-.005.078.932.932,0,0,1-.818,1.033q-.04,0-.081.006Zm5.075.522V73.959a.9.9,0,0,0-1.006-1,1.484,1.484,0,0,0-1.1.5v-.422H71.74v3.115h.677v-2.18a1.062,1.062,0,0,1,.8-.413c.38,0,.632.155.632.645v1.947Zm1.948.078c.838,0,1.3-.419,1.3-.974,0-1.238-1.883-.825-1.883-1.373,0-.219.219-.387.574-.387a1.27,1.27,0,0,1,.922.374l.284-.477a1.775,1.775,0,0,0-1.206-.432c-.787,0-1.225.432-1.225.941,0,1.2,1.883.761,1.883,1.373,0,.245-.213.413-.619.413a1.6,1.6,0,0,1-1.051-.432l-.31.484A1.888,1.888,0,0,0,76.473,76.228Z"/><path id="Path_8144" data-name="Path 8144" class="cls-9" d="M16.886,31.069a.976.976,0,0,0,1.075-.868.932.932,0,0,0,.005-.14.893.893,0,0,0-.713-.908.828.828,0,0,0,.64-.852.961.961,0,0,0-.969-.953.839.839,0,0,0-.1.006H14.869v3.714Zm-.234-2.239h-.991v-.78h.991a.391.391,0,0,1,.432.344c0,.015,0,.031,0,.046a.384.384,0,0,1-.377.393A.273.273,0,0,1,16.652,28.83Zm.033,1.543H15.66V29.53h1.025a.424.424,0,0,1,.47.372.436.436,0,0,1,0,.051C17.159,30.217,16.981,30.373,16.685,30.373Zm4.505.7v-.7H19.353V29.53h1.8v-.7h-1.8v-.78h1.838v-.7H18.562v3.714Zm1.944.067c1,0,1.487-.512,1.487-1.192,0-1.387-2.133-.991-2.133-1.576,0-.223.189-.368.523-.368a1.6,1.6,0,0,1,1.08.407l.44-.59a2.07,2.07,0,0,0-1.448-.518c-.874,0-1.409.512-1.409,1.13,0,1.4,2.138.947,2.138,1.593,0,.217-.206.412-.646.412a1.632,1.632,0,0,1-1.179-.508l-.434.618a2.145,2.145,0,0,0,1.581.588Zm3.6-.067V28.05h1.08v-.7H24.851v.7h1.086v3.018Zm4.344.067c1,0,1.487-.512,1.487-1.192,0-1.387-2.133-.991-2.133-1.576,0-.223.189-.368.523-.368a1.6,1.6,0,0,1,1.08.407l.44-.59a2.07,2.07,0,0,0-1.448-.518c-.874,0-1.409.512-1.409,1.13,0,1.4,2.138.947,2.138,1.593,0,.217-.206.412-.646.412a1.631,1.631,0,0,1-1.182-.508l-.434.618a2.143,2.143,0,0,0,1.582.588Zm6.042-.067V27.354H36l-.9,2.322-.9-2.322H33.1v3.714h.791V28.39l1.047,2.679h.345l1.047-2.679v2.679Zm4.2,0-1.431-3.714H38.9l-1.435,3.71h.9l.234-.629H40.19l.234.629Zm-1.348-1.325H38.814l.579-1.6ZM44,31.073v-.7h-1.57V27.354h-.8v3.714Zm2.868,0v-.7H45.3V27.354h-.8v3.714Zm1.671-1.047v-.6H47.2v.6ZM53.1,31.073V27.354H51.984l-.9,2.322-.9-2.322H49.076v3.714h.791V28.39L50.9,31.069h.345L52.3,28.39v2.679Zm3.364,0v-.7H54.621V29.53h1.8v-.7h-1.8v-.78h1.838v-.7H53.83v3.714Zm2.088,0a1.815,1.815,0,0,0,1.958-1.66,1.985,1.985,0,0,0,0-.2,1.82,1.82,0,0,0-1.776-1.861q-.1,0-.2.006H57.077v3.714Zm-.006-.7H57.87V28.05h.679A1.084,1.084,0,0,1,59.7,29.059a.939.939,0,0,1,0,.15,1.113,1.113,0,0,1-1.06,1.164.851.851,0,0,1-.1,0Zm3.325.7V27.354h-.791v3.714Zm2.411.067a1.474,1.474,0,0,0,1.663-1.257,1.44,1.44,0,0,0,.011-.3V27.354h-.807V29.56a.8.8,0,0,1-.719.874.752.752,0,0,1-.15,0,.8.8,0,0,1-.875-.717.824.824,0,0,1,0-.157V27.354h-.8v2.228a1.473,1.473,0,0,0,1.377,1.565,1.416,1.416,0,0,0,.3-.011Zm6.438-.067V27.354H69.6l-.9,2.322-.9-2.322H66.689v3.714h.791V28.39l1.047,2.679h.345l1.047-2.679v2.679Zm-46.949,7.1a1.7,1.7,0,0,0,1.548-.913l-.679-.329a1,1,0,0,1-.869.54A1.159,1.159,0,0,1,22.6,36.326c0-.025,0-.05,0-.075a1.158,1.158,0,0,1,1.093-1.219c.025,0,.049,0,.073,0a1,1,0,0,1,.869.54l.679-.334a1.688,1.688,0,0,0-1.548-.906,1.886,1.886,0,0,0-1.981,1.786c0,.045,0,.09,0,.135a1.889,1.889,0,0,0,1.856,1.921c.043,0,.085,0,.127,0Zm3.787,0a1.864,1.864,0,0,0,1.937-1.79c0-.043,0-.087,0-.131a1.866,1.866,0,0,0-1.8-1.923c-.046,0-.091,0-.136,0a1.866,1.866,0,0,0-1.943,1.786c0,.045,0,.09,0,.135a1.866,1.866,0,0,0,1.811,1.92c.044,0,.089,0,.133,0Zm0-.7a1.128,1.128,0,0,1-1.134-1.12c0-.033,0-.067,0-.1a1.124,1.124,0,0,1,1.021-1.219c.035,0,.071,0,.106,0a1.123,1.123,0,0,1,1.129,1.117c0,.034,0,.069,0,.1a1.125,1.125,0,0,1-1.03,1.214c-.032,0-.063,0-.095,0Zm6.521.635V34.389H32.963l-.9,2.322-.9-2.322H30.055V38.1h.791V35.424L31.893,38.1h.345l1.047-2.679V38.1Zm1.526,0v-1.33h.947a1.16,1.16,0,0,0,1.244-1.071c0-.04,0-.081,0-.121a1.158,1.158,0,0,0-1.114-1.2,1.181,1.181,0,0,0-.133,0H34.812V38.1Zm.835-2.022H35.6v-1h.835a.5.5,0,0,1,.548.446.489.489,0,0,1,0,.054.5.5,0,0,1-.5.5.453.453,0,0,1-.052,0Zm4.906,2.022-1.433-3.719H38.92L37.489,38.1h.9l.234-.629h1.593l.234.629ZM40,36.783H38.838l.579-1.6Zm5.018,1.325V34.389h-.791v2.333L42.5,34.389H41.69V38.1h.791V35.681L44.252,38.1Zm2.562,0V36.583L49,34.389h-.9l-.919,1.487-.918-1.487h-.9l1.426,2.194V38.1Zm5.886,0v-.7H51.947c.963-.7,1.487-1.253,1.487-1.888a1.257,1.257,0,0,0-1.314-1.2.983.983,0,0,0-.108.009,1.892,1.892,0,0,0-1.431.607l.451.523a1.331,1.331,0,0,1,1-.429c.306,0,.6.156.6.484,0,.457-.446.835-1.966,1.96V38.1Zm2.01.067c1.064,0,1.537-.963,1.537-1.921s-.475-1.924-1.538-1.924-1.537.958-1.537,1.916.469,1.924,1.537,1.924Zm0-.7c-.529,0-.73-.535-.73-1.22s.2-1.214.73-1.214.73.529.73,1.214-.2,1.213-.731,1.213Zm4.784.635v-.7H58.74c.963-.7,1.487-1.253,1.487-1.888a1.258,1.258,0,0,0-1.312-1.2c-.037,0-.075.005-.112.01a1.892,1.892,0,0,0-1.431.607l.451.523a1.331,1.331,0,0,1,1-.429c.306,0,.6.156.6.484,0,.457-.446.835-1.966,1.96V38.1Zm2.01.067c1.062-.007,1.537-.97,1.537-1.928s-.475-1.919-1.538-1.919-1.537.958-1.537,1.916.475,1.924,1.537,1.924Zm0-.7c-.529,0-.73-.535-.73-1.22s.2-1.214.73-1.214.73.529.73,1.214-.2,1.211-.731,1.211Z"/><g id="Layer_2-2" data-name="Layer 2"><g id="Layer_1-2-2" data-name="Layer 1-2"><path id="b" class="cls-10" d="M19.088,9.514l3.885,2.241a.686.686,0,0,1,.343.594v4.483a.687.687,0,0,1-.343.6l-3.88,2.237a.684.684,0,0,1-.694,0L14.83,17.53a.352.352,0,0,1-.12-.471.362.362,0,0,1,.125-.118l3.838-2.2a.13.13,0,0,0,.07-.118V12.4a.137.137,0,0,0-.137-.137h0a.132.132,0,0,0-.07.02L14.688,14.5a.351.351,0,0,1-.468-.124.331.331,0,0,1-.048-.176V12.351a.688.688,0,0,1,.352-.6L18.4,9.512a.7.7,0,0,1,.688,0Z"/><path id="c" class="cls-10" d="M19.088,9.514l3.885,2.241a.686.686,0,0,1,.343.594v4.483a.687.687,0,0,1-.343.6l-3.88,2.237a.684.684,0,0,1-.694,0L14.93,17.59a.411.411,0,0,1-.138-.565.4.4,0,0,1,.138-.138L18.4,14.9a.687.687,0,0,0,.351-.6V12.636a.275.275,0,0,0-.281-.268h0a.273.273,0,0,0-.137.037l-3.644,2.111a.353.353,0,0,1-.468-.125.331.331,0,0,1-.048-.176V12.351a.688.688,0,0,1,.352-.6L18.4,9.512a.7.7,0,0,1,.688,0Z"/><path id="d-3" class="cls-11" d="M18.951,9.433l4.159,2.408a.409.409,0,0,1,.206.351v4.8a.415.415,0,0,1-.206.352l-4.156,2.409a.41.41,0,0,1-.417,0L14.83,17.53a.352.352,0,0,1-.12-.471.362.362,0,0,1,.125-.118l3.6-2.066a.62.62,0,0,0,.311-.537v-1.7a.275.275,0,0,0-.413-.231l-3.644,2.111a.353.353,0,0,1-.468-.125.331.331,0,0,1-.048-.176V12.192a.41.41,0,0,1,.208-.351l4.159-2.408A.42.42,0,0,1,18.951,9.433Z"/><path class="cls-12" d="M23.133,17.045,18.6,14.572,14.309,17.21l4.505,2.721L23.138,17.4a.206.206,0,0,0,.074-.282A.2.2,0,0,0,23.133,17.045Z"/><path class="cls-13" d="M18.333,9.554,14.1,11.992V15.08l4.518-1.908a.2.2,0,0,0,.127-.19V9.8a.275.275,0,0,0-.273-.276h0A.289.289,0,0,0,18.333,9.554Z"/><path class="cls-14" d="M30.115,15.912H27.92l-.307.853H26.464l1.9-4.915h1.31l1.891,4.915H30.423ZM28.2,15.006h1.627l-.809-2.252Z"/><path class="cls-14" d="M36.445,14.514c0-.332-.148-.566-.527-.566a.941.941,0,0,0-.736.411v2.406H34.24V14.514c0-.332-.148-.566-.528-.566a.958.958,0,0,0-.737.418v2.4h-.936V13.2h.934v.462a1.561,1.561,0,0,1,1.165-.55.936.936,0,0,1,.985.647,1.51,1.51,0,0,1,1.222-.647A.958.958,0,0,1,37.4,14.19v2.575h-.943Z"/><path class="cls-14" d="M38.343,11.85h.936v1.809a1.368,1.368,0,0,1,1.095-.543,1.647,1.647,0,0,1,1.583,1.869,1.641,1.641,0,0,1-1.583,1.863,1.38,1.38,0,0,1-1.095-.545v.462h-.936Zm1.738,4.166a.919.919,0,0,0,.9-1.031.925.925,0,0,0-.9-1.037,1.025,1.025,0,0,0-.8.411v1.26A1.042,1.042,0,0,0,40.081,16.016Z"/><path class="cls-14" d="M42.592,12.122a.561.561,0,1,1,.563.561.566.566,0,0,1-.563-.561Zm.095,1.082h.936v3.561h-.936Z"/><path class="cls-14" d="M44.776,15.875V14.02h-.589V13.2h.589v-.973h.943V13.2h.721v.816h-.721v1.606c0,.219.116.39.324.39a.51.51,0,0,0,.323-.1l.2.7a1.156,1.156,0,0,1-.781.228A.885.885,0,0,1,44.776,15.875Z"/><path class="cls-14" d="M47.086,12.122a.561.561,0,1,1,.562.561.566.566,0,0,1-.562-.561Zm.1,1.082h.934v3.561h-.934Z"/><path class="cls-14" d="M48.853,14.977A1.882,1.882,0,1,1,50.677,16.8,1.883,1.883,0,0,1,48.853,14.977Zm2.79,0a.916.916,0,1,0-1.817,0,.917.917,0,1,0,1.817,0Z"/><path class="cls-14" d="M55.772,14.609a.576.576,0,0,0-.654-.661,1.015,1.015,0,0,0-.811.418v2.4h-.934V13.2h.934v.462a1.638,1.638,0,0,1,1.245-.55,1.034,1.034,0,0,1,1.156,1.132v2.517h-.936Z"/><path class="cls-14" d="M57.673,11.85h2.584a1.263,1.263,0,0,1,1.407,1.25,1.091,1.091,0,0,1-.846,1.127,1.187,1.187,0,0,1,.944,1.207,1.291,1.291,0,0,1-1.428,1.324H57.673Zm2.357,1.971a.542.542,0,1,0,.062-1.082c-.021,0-.041,0-.062,0H58.72v1.082Zm.035,2.047a.564.564,0,0,0,.633-.582.572.572,0,0,0-.633-.573H58.72v1.155Z"/><path class="cls-14" d="M62.332,14.977A1.882,1.882,0,1,1,64.156,16.8,1.883,1.883,0,0,1,62.332,14.977Zm2.79,0a.916.916,0,1,0-1.819,0,.918.918,0,1,0,1.819,0Z"/><path class="cls-14" d="M68.145,15.559l-.818,1.206H66.29l1.259-1.825-1.186-1.729h1.045l.737,1.092.728-1.1H69.92l-1.193,1.729L70,16.765H68.954Z"/></g></g></g></g></g></svg>