<svg xmlns="http://www.w3.org/2000/svg" viewBox="0 0 369.699 400"><defs><style>.cls-1{fill:#6a797d;}.cls-2{fill:#fff;}.cls-3{fill:#17313b;}.cls-4{fill:#ff3d2e;}</style></defs><g id="Layer_2" data-name="Layer 2"><g id="Layer_1-2" data-name="Layer 1"><polygon class="cls-1" points="369.699 300 369.699 100 184.849 0 0 100 0 300 184.849 400 369.699 300"/><polygon class="cls-2" points="366.767 298.208 366.767 101.898 184.836 3.742 2.905 101.898 2.905 298.208 184.836 396.363 366.767 298.208"/><polygon class="cls-2" points="343.701 286.818 343.701 112.922 185.39 25.974 27.079 112.922 27.079 286.818 185.39 373.767 343.701 286.818"/><polygon class="cls-1" points="359.743 293.857 359.743 106.249 184.836 12.446 9.929 106.249 9.929 293.857 184.836 387.66 359.743 293.857"/><polygon class="cls-2" points="343.701 286.818 343.701 112.922 185.39 25.974 27.079 112.922 27.079 286.818 185.39 373.767 343.701 286.818"/><path class="cls-3" d="M185.39,28.253,341.7,114.1V285.636L185.39,371.487,29.077,285.636V114.1L185.39,28.253m0-2.279L27.079,112.922v173.9L185.39,373.767,343.7,286.818v-173.9L185.39,25.974Z"/><path class="cls-3" d="M174.423,61.278v1.681H170.15V75.253h-1.884V62.959h-4.294V61.278Z"/><path class="cls-3" d="M187.265,73.937A6.357,6.357,0,0,1,178.9,74c-1.114-1.215-1.478-3.1-1.478-5.569s.364-4.477,1.6-5.834a5.4,5.4,0,0,1,4.233-1.6,5.289,5.289,0,0,1,4.152,1.54c1.094,1.235,1.479,3.1,1.479,5.59S188.521,72.559,187.265,73.937Zm-1.417-10.411a3.447,3.447,0,0,0-2.634-.911,3.492,3.492,0,0,0-2.734.992c-.729.81-1.033,2.269-1.033,4.78,0,2.269.243,3.849.993,4.638a3.373,3.373,0,0,0,2.612.892,3.546,3.546,0,0,0,2.755-.973c.77-.85,1.053-2.167,1.053-4.76C186.86,65.815,186.617,64.356,185.848,63.526Z"/><path class="cls-3" d="M198.487,61.278a4.976,4.976,0,0,1,2.957.77c.83.607,1.377,1.62,1.377,3.544,0,1.863-.527,3.018-1.4,3.646a5.076,5.076,0,0,1-2.957.79h-2.8v5.225h-1.883V61.278Zm-2.816,7.089h2.836a2.4,2.4,0,0,0,1.782-.527,3.08,3.08,0,0,0,.567-2.208c0-1.316-.223-1.843-.628-2.227a2.462,2.462,0,0,0-1.843-.466h-2.714Z"/><path class="cls-3" d="M91.835,103.3a5.525,5.525,0,0,1-4.618,2.167,4.655,4.655,0,0,1-3.524-1.3c-1.3-1.337-1.641-3.5-1.641-5.813,0-2.329.324-4.537,1.62-5.894a4.969,4.969,0,0,1,3.889-1.458,5.2,5.2,0,0,1,4.071,1.58l-1.094,1.255A4.115,4.115,0,0,0,87.5,92.65a2.975,2.975,0,0,0-2.613,1.074c-.526.729-.85,2.066-.85,4.557,0,2.694.385,3.95.972,4.659a2.676,2.676,0,0,0,2.228.891,4.384,4.384,0,0,0,3.443-1.661Z"/><path class="cls-3" d="M101.132,91.253a5.742,5.742,0,0,1,2.977.688,3.239,3.239,0,0,1,1.357,2.957,3.533,3.533,0,0,1-2.917,3.829c1.844.465,2.35,2.552,3.1,6.5h-2c-.871-4.233-1.276-5.691-3.119-5.691H98.276v5.691H96.392V91.253ZM98.276,97.9h1.8c2.107,0,3.4-.547,3.4-2.754a2.481,2.481,0,0,0-.547-1.8,2.64,2.64,0,0,0-1.823-.446H98.276Z"/><path class="cls-3" d="M117.984,91.253v1.661h-5.732v4.354H117.5v1.661h-5.246v4.638h5.813v1.661h-7.7V91.253Z"/><path class="cls-3" d="M131.068,105.228l-1.134-3.484h-5.428l-1.175,3.484h-2.005l4.76-13.975h2.369l4.7,13.975ZM127.24,93.217l-2.268,6.927h4.516Z"/><path class="cls-3" d="M144.862,91.253v1.681h-4.274v12.294h-1.883V92.934h-4.294V91.253Z"/><path class="cls-3" d="M150.756,91.253v13.975h-1.883V91.253Z"/><path class="cls-3" d="M156.832,91.253l3.768,11.909,3.828-11.909h1.985l-4.76,13.975h-2.188l-4.7-13.975Z"/><path class="cls-3" d="M178.039,91.253v1.661h-5.732v4.354h5.246v1.661h-5.246v4.638h5.813v1.661h-7.7V91.253Z"/><path class="cls-3" d="M199.428,98.058a8.437,8.437,0,0,1-1.4,4.476l2.714,2.694H198.5l-1.458-1.438a5.02,5.02,0,0,1-3.889,1.661,4.633,4.633,0,0,1-3.18-1.053,3.3,3.3,0,0,1-1.114-2.633,4.7,4.7,0,0,1,2.167-3.97,4.648,4.648,0,0,1-1.316-3.16,3.437,3.437,0,0,1,.952-2.511A4.04,4.04,0,0,1,193.6,91.05a4.166,4.166,0,0,1,3.038,1.114l-1.053,1.215a2.982,2.982,0,0,0-2.086-.769c-1.337,0-1.945.607-1.945,1.9,0,1.64.972,2.511,2.674,4.213L196.9,101.4a7.176,7.176,0,0,0,.851-3.342Zm-7.291.912a2.951,2.951,0,0,0-1.5,2.673c0,1.681.992,2.309,2.511,2.309a3.572,3.572,0,0,0,2.795-1.215Z"/><path class="cls-3" d="M216.118,91.253a5.627,5.627,0,0,1,4.071,1.276c1.236,1.154,1.56,3,1.56,5.651,0,2.268-.243,4.375-1.62,5.711a5.363,5.363,0,0,1-3.95,1.337h-4.8V91.253Zm-2.835,12.314h2.8a3.484,3.484,0,0,0,2.694-.931c.729-.77.992-2.046.992-4.355,0-2.39-.284-3.727-.992-4.5a3.53,3.53,0,0,0-2.694-.871h-2.8Z"/><path class="cls-3" d="M234.267,91.253v1.661h-5.733v4.354h5.246v1.661h-5.246v4.638h5.813v1.661h-7.7V91.253Z"/><path class="cls-3" d="M245.609,93.541a5.51,5.51,0,0,0-3.1-.891c-1.377,0-2.39.466-2.39,2.066,0,3.079,6.806,1.9,6.806,6.786a3.607,3.607,0,0,1-1.54,3.078,5.9,5.9,0,0,1-3.24.871,6.183,6.183,0,0,1-4.132-1.377l.972-1.378a5.352,5.352,0,0,0,3.443,1.114c1.378,0,2.573-.405,2.573-2.227,0-3.363-6.786-2.067-6.786-6.826a3.2,3.2,0,0,1,1.317-2.714,5.291,5.291,0,0,1,3.261-1.013,6.224,6.224,0,0,1,3.727,1.134Z"/><path class="cls-3" d="M253.428,91.253v13.975h-1.884V91.253Z"/><path class="cls-3" d="M268.74,97.775v6.886a12.241,12.241,0,0,1-4.415.77c-2.087,0-3.464-.466-4.416-1.418-1.3-1.3-1.58-3.221-1.58-5.57,0-2.512.345-4.618,1.6-5.894a5.708,5.708,0,0,1,4.335-1.5,5.934,5.934,0,0,1,4.294,1.438l-1.074,1.378a4.9,4.9,0,0,0-3.443-1.175,3.372,3.372,0,0,0-2.755.972c-.648.689-.972,1.782-.972,4.6,0,3.078.385,4.091,1.033,4.739a3.882,3.882,0,0,0,2.876.851,10.283,10.283,0,0,0,2.714-.344V99.435H263.9v-1.66Z"/><path class="cls-3" d="M276.518,91.253l6.441,11.464L282.9,91.253h1.864v13.975H282.25l-6.441-11.443.041,11.443h-1.843V91.253Z"/><path class="cls-3" d="M142.674,135.2l-1.134-3.484h-5.428l-1.175,3.484h-2.005l4.76-13.975h2.369l4.7,13.975Zm-3.828-12.011-2.268,6.927h4.516Z"/><path class="cls-3" d="M158.21,127.75v6.886a12.241,12.241,0,0,1-4.415.77c-2.087,0-3.464-.466-4.416-1.418-1.3-1.3-1.58-3.221-1.58-5.57,0-2.512.345-4.618,1.6-5.894a5.708,5.708,0,0,1,4.335-1.5,5.934,5.934,0,0,1,4.294,1.438l-1.074,1.377a4.9,4.9,0,0,0-3.443-1.174,3.372,3.372,0,0,0-2.755.972c-.648.688-.972,1.782-.972,4.6,0,3.078.385,4.091,1.033,4.739a3.882,3.882,0,0,0,2.876.851,10.283,10.283,0,0,0,2.714-.344V129.41h-3.038v-1.66Z"/><path class="cls-3" d="M171.092,121.228v1.66H165.36v4.355h5.246V128.9H165.36v4.638h5.813V135.2h-7.7V121.228Z"/><path class="cls-3" d="M178.546,121.228l6.441,11.463-.061-11.463h1.863V135.2h-2.511l-6.441-11.444.041,11.444h-1.844V121.228Z"/><path class="cls-3" d="M201.474,133.279a5.522,5.522,0,0,1-4.618,2.167,4.658,4.658,0,0,1-3.524-1.3c-1.3-1.337-1.641-3.5-1.641-5.813,0-2.329.325-4.537,1.621-5.894a4.966,4.966,0,0,1,3.889-1.459,5.21,5.21,0,0,1,4.071,1.58l-1.094,1.256a4.116,4.116,0,0,0-3.038-1.195,2.974,2.974,0,0,0-2.613,1.074c-.527.729-.851,2.066-.851,4.557,0,2.694.385,3.95.973,4.658a2.672,2.672,0,0,0,2.228.892,4.384,4.384,0,0,0,3.443-1.661Z"/><path class="cls-3" d="M207.915,121.228V135.2h-1.883V121.228Z"/><path class="cls-3" d="M220.959,121.228v1.66h-5.732v4.355h5.246V128.9h-5.246v4.638h5.813V135.2h-7.7V121.228Z"/><path class="cls-3" d="M232.3,123.516a5.51,5.51,0,0,0-3.1-.891c-1.377,0-2.39.466-2.39,2.066,0,3.079,6.805,1.9,6.805,6.785a3.61,3.61,0,0,1-1.539,3.079,5.9,5.9,0,0,1-3.241.871,6.18,6.18,0,0,1-4.132-1.378l.973-1.377a5.352,5.352,0,0,0,3.443,1.114c1.377,0,2.572-.405,2.572-2.228,0-3.362-6.785-2.066-6.785-6.825a3.2,3.2,0,0,1,1.317-2.714,5.29,5.29,0,0,1,3.26-1.013,6.222,6.222,0,0,1,3.727,1.134Z"/><polygon class="cls-3" points="343.701 145.215 343.701 155.191 28.986 155.191 28.986 145.215 9.99 145.215 9.99 255.101 28.986 255.101 28.986 245.126 343.701 245.126 343.701 255.101 359.743 255.101 359.743 145.215 343.701 145.215"/><path class="cls-3" d="M143.08,278.426V292.4H141.2V278.426Z"/><path class="cls-3" d="M151.019,278.426l6.441,11.464-.06-11.464h1.863V292.4h-2.512l-6.44-11.443.04,11.443h-1.843V278.426Z"/><path class="cls-3" d="M169.431,278.426A5.627,5.627,0,0,1,173.5,279.7c1.236,1.154,1.56,3,1.56,5.651,0,2.268-.243,4.375-1.621,5.712a5.364,5.364,0,0,1-3.949,1.336h-4.8V278.426ZM166.6,290.74h2.795a3.478,3.478,0,0,0,2.694-.931c.729-.77.993-2.046.993-4.355,0-2.39-.284-3.727-.993-4.5a3.527,3.527,0,0,0-2.694-.871H166.6Z"/><path class="cls-3" d="M181.847,278.426V292.4h-1.883V278.426Z"/><path class="cls-3" d="M195.418,292.4l-1.135-3.483h-5.428L187.68,292.4h-2l4.76-13.975h2.37l4.7,13.975Zm-3.828-12.01-2.269,6.926h4.517Z"/><path class="cls-3" d="M203.844,278.426l6.441,11.464-.061-11.464h1.863V292.4h-2.511l-6.441-11.443.04,11.443h-1.843V278.426Z"/><path class="cls-3" d="M225.658,292.4l-1.134-3.483H219.1l-1.175,3.483h-2l4.759-13.975h2.37l4.7,13.975Zm-3.828-12.01-2.268,6.926h4.516Z"/><path class="cls-3" d="M168.175,322.376h-8.689v-1.215c0-2.674,1.033-3.707,4.193-5.813,1.478-.993,2.592-1.8,2.592-3.484,0-1.661-1.094-2.066-2.491-2.066a4,4,0,0,0-3.079,1.175l-1.114-1.155a5.639,5.639,0,0,1,4.294-1.62c2.248,0,4.294.851,4.294,3.707,0,2.106-1.114,3.078-3.16,4.516-2.552,1.783-3.585,2.573-3.585,4.335l6.745-.061Z"/><path class="cls-3" d="M180.186,321.282a3.911,3.911,0,0,1-3.22,1.358,3.8,3.8,0,0,1-3.16-1.317c-1.033-1.276-1.3-3.3-1.3-5.732,0-2.512.283-4.7,1.4-6.076a3.891,3.891,0,0,1,3.241-1.4,3.808,3.808,0,0,1,3.16,1.337c1.033,1.256,1.3,3.281,1.3,5.712C181.6,317.637,181.32,319.925,180.186,321.282Zm-3.058-11.524c-2.066,0-2.694,1.883-2.694,5.833,0,3.646.527,5.428,2.552,5.428,2.066,0,2.694-1.884,2.694-5.853C179.68,311.54,179.153,309.758,177.128,309.758Z"/><path class="cls-3" d="M186.445,320.715h3.524V310.284l-3.22,2.228-1.013-1.377,4.071-2.734h2.026v12.314h2.856v1.661h-8.244Z"/><path class="cls-3" d="M200.218,320.027a4.267,4.267,0,0,0,2.917.972c2.674,0,2.876-1.56,2.937-5.752a3.346,3.346,0,0,1-3.16,1.681,4.007,4.007,0,0,1-2.754-.972,4.213,4.213,0,0,1-1.135-3.261,4.431,4.431,0,0,1,1.216-3.423,4.594,4.594,0,0,1,3.22-1.094,3.816,3.816,0,0,1,3.545,1.7c.871,1.4.931,3.241.931,5.145,0,2.633-.162,4.739-1.235,6.076a4.5,4.5,0,0,1-3.727,1.519,5.24,5.24,0,0,1-3.727-1.276Zm5.732-7.575c0-1.722-.79-2.694-2.592-2.694-1.884,0-2.451,1.033-2.451,2.876,0,1.965.648,2.815,2.248,2.815C204.958,315.449,205.95,314.4,205.95,312.452Z"/><polygon points="317.237 144.717 52.467 144.717 52.467 145.713 317.237 145.713 317.237 144.717 317.237 144.717"/><polygon points="317.237 254.619 52.467 254.619 52.467 255.615 317.237 255.615 317.237 254.619 317.237 254.619"/><path class="cls-2" d="M131.2,190.92a16.485,16.485,0,0,0-12.8-5.763c-8.5,0-15.636,5.933-15.636,15.637s6.814,15.957,15.557,15.957a16.763,16.763,0,0,0,13.088-5.882l5.457,5.405a25.514,25.514,0,0,1-18.651,8.107c-11.922,0-23.421-8.8-23.421-23.208s10.651-23.527,23.447-23.527,18.625,8.108,18.625,8.108Z"/><rect class="cls-2" x="139.862" y="176.216" width="9.264" height="46.923"/><path class="cls-2" d="M155.838,192.165h7.312v17.857c0,2.808,1.06,6.994,5.935,6.994s8.795-2.808,8.795-7.524V192.165h8.213v30.974H177.88v-1.248a16.229,16.229,0,0,1-8.5,2.517c-4.9,0-13.538-2.146-13.538-15.5Z"/><polygon class="cls-2" points="209.062 192.164 209.062 198.179 203.13 198.179 203.13 223.138 193.83 223.138 193.83 198.179 188.849 198.179 188.849 192.164 193.83 192.164 193.83 181.223 203.13 181.223 203.13 192.164 209.062 192.164"/><ellipse class="cls-4" cx="227.784" cy="207.664" rx="6.004" ry="5.696"/><path class="cls-2" d="M235.994,201.968s-2.55-3.418-8.21-3.418-9.594,4.041-9.594,9.114,4.445,9.127,9.594,9.127a11.668,11.668,0,0,0,8.21-3.431l5.683,5.219s-4.7,5.683-13.893,5.683-17.462-7.034-17.462-16.81S218.661,191,227.784,191a18.787,18.787,0,0,1,13.893,5.683Z"/><path class="cls-2" d="M274.9,205.783v17.355h-8.053V205.306c0-2.306-1.219-6.305-5.831-6.305s-7.96,2.648-7.96,7.456v16.681H244.75V176.163h8.306v17.91a14.233,14.233,0,0,1,8.333-2.438C266.634,191.635,274.9,193.7,274.9,205.783Z"/></g></g></svg>