<svg xmlns="http://www.w3.org/2000/svg" xmlns:xlink="http://www.w3.org/1999/xlink" viewBox="0 0 400 400"><defs><style>.cls-1{fill:#0caa41;}.cls-2{fill:#e2e6f0;}.cls-3{fill:#2f303b;}.cls-4{isolation:isolate;}.cls-5{fill:#fff;}.cls-6{fill:url(#linear-gradient);}</style><linearGradient id="linear-gradient" x1="-463.087" y1="577.115" x2="-465.808" y2="574.393" gradientTransform="matrix(34.789, 0, 0, -34.789, 16360.243, 20193.337)" gradientUnits="userSpaceOnUse"><stop offset="0" stop-color="#1299db"/><stop offset="1" stop-color="#025986"/></linearGradient></defs><g id="Layer_2" data-name="Layer 2"><g id="Layer_1-2" data-name="Layer 1"><rect class="cls-1" x="2.721" y="2.721" width="394.558" height="394.558" rx="10.884"/><path class="cls-2" d="M386.4,400H13.605A13.621,13.621,0,0,1,0,386.4V13.605A13.621,13.621,0,0,1,13.605,0H386.4A13.621,13.621,0,0,1,400,13.605V386.4A13.621,13.621,0,0,1,386.4,400ZM13.605,2.721A10.9,10.9,0,0,0,2.721,13.605V386.4a10.9,10.9,0,0,0,10.884,10.884H386.4A10.9,10.9,0,0,0,397.279,386.4V13.605A10.9,10.9,0,0,0,386.4,2.721Z"/><path class="cls-3" d="M2.721,331.973H397.279V386.4A10.884,10.884,0,0,1,386.4,397.279H13.605A10.884,10.884,0,0,1,2.721,386.4V331.973Z"/><g class="cls-4"><g class="cls-4"><path class="cls-5" d="M79.69,261.224H74.915V235.648H79.69Z"/><path class="cls-5" d="M103.8,239.557H96.086v21.667H91.328V239.557H83.616v-3.909H103.8Z"/><path class="cls-5" d="M133.3,255.192a.953.953,0,0,1,.69.3l1.874,2.035a10.261,10.261,0,0,1-3.829,2.952,13.156,13.156,0,0,1-5.457,1.026,12.848,12.848,0,0,1-5.119-.972,11.268,11.268,0,0,1-3.882-2.706,11.837,11.837,0,0,1-2.468-4.137,15.544,15.544,0,0,1-.858-5.253,14.623,14.623,0,0,1,.92-5.281,12.157,12.157,0,0,1,2.59-4.129,11.741,11.741,0,0,1,3.989-2.7,13.227,13.227,0,0,1,5.13-.965,12.581,12.581,0,0,1,4.961.92,11.835,11.835,0,0,1,3.687,2.4l-1.591,2.211a1.424,1.424,0,0,1-.363.372,1.023,1.023,0,0,1-.61.16,1.164,1.164,0,0,1-.549-.152c-.188-.1-.394-.223-.618-.369s-.483-.311-.778-.486a6.293,6.293,0,0,0-1.026-.487,8.194,8.194,0,0,0-1.354-.372,9.28,9.28,0,0,0-1.778-.151,7.9,7.9,0,0,0-3.138.611,6.835,6.835,0,0,0-2.45,1.767,8.181,8.181,0,0,0-1.592,2.83,11.89,11.89,0,0,0-.566,3.814,11.218,11.218,0,0,0,.61,3.837,8.425,8.425,0,0,0,1.654,2.83,7.036,7.036,0,0,0,2.458,1.759,7.619,7.619,0,0,0,3.043.611,13.206,13.206,0,0,0,1.759-.106,7.739,7.739,0,0,0,1.451-.335,6.445,6.445,0,0,0,1.256-.593,7.759,7.759,0,0,0,1.176-.895,1.591,1.591,0,0,1,.372-.255A.9.9,0,0,1,133.3,255.192Z"/><path class="cls-5" d="M146.637,242.793a9.906,9.906,0,0,1,3.67.657,8.028,8.028,0,0,1,2.83,1.857,8.148,8.148,0,0,1,1.812,2.934,12.132,12.132,0,0,1,0,7.765,8.329,8.329,0,0,1-1.812,2.954,7.954,7.954,0,0,1-2.83,1.877,9.926,9.926,0,0,1-3.67.653,10.036,10.036,0,0,1-3.7-.653,7.92,7.92,0,0,1-2.839-1.877,8.437,8.437,0,0,1-1.822-2.954,11.99,11.99,0,0,1,0-7.765,8.252,8.252,0,0,1,1.822-2.934,7.994,7.994,0,0,1,2.839-1.857A10.015,10.015,0,0,1,146.637,242.793Zm0,15.336a3.843,3.843,0,0,0,3.351-1.52,9.708,9.708,0,0,0,0-8.931,3.817,3.817,0,0,0-3.351-1.542,3.9,3.9,0,0,0-3.405,1.549,7.616,7.616,0,0,0-1.106,4.465,7.521,7.521,0,0,0,1.106,4.448A3.918,3.918,0,0,0,146.637,258.129Z"/><path class="cls-5" d="M159.459,261.224V243.078h2.67a1.074,1.074,0,0,1,1.115.794l.283,1.345a10.268,10.268,0,0,1,1-.973,6.421,6.421,0,0,1,1.115-.76,6.088,6.088,0,0,1,1.273-.5,5.746,5.746,0,0,1,1.5-.186,4.234,4.234,0,0,1,2.82.93,5.584,5.584,0,0,1,1.654,2.466,5.535,5.535,0,0,1,1.062-1.546,5.782,5.782,0,0,1,1.4-1.052,6.465,6.465,0,0,1,1.619-.6,7.754,7.754,0,0,1,1.724-.2,7.193,7.193,0,0,1,2.671.463,5.11,5.11,0,0,1,1.964,1.342,5.948,5.948,0,0,1,1.211,2.157,9.422,9.422,0,0,1,.416,2.921v11.548h-4.368V249.676a3.882,3.882,0,0,0-.762-2.61,2.792,2.792,0,0,0-2.228-.877,3.294,3.294,0,0,0-1.247.232,2.969,2.969,0,0,0-1.008.664,3.009,3.009,0,0,0-.681,1.087,4.235,4.235,0,0,0-.247,1.5v11.548h-4.387V249.676a3.962,3.962,0,0,0-.734-2.655,2.72,2.72,0,0,0-2.15-.832,3.51,3.51,0,0,0-1.776.471,5.879,5.879,0,0,0-1.531,1.281v13.283Z"/><path class="cls-5" d="M193.754,245.554a9.51,9.51,0,0,1,2.53-2.035,6.8,6.8,0,0,1,3.324-.779,5.97,5.97,0,0,1,2.717.619,6.129,6.129,0,0,1,2.121,1.8,8.648,8.648,0,0,1,1.381,2.9,14.653,14.653,0,0,1,.487,3.951,12.414,12.414,0,0,1-.55,3.768,9.175,9.175,0,0,1-1.565,3,7.061,7.061,0,0,1-5.687,2.708,6.5,6.5,0,0,1-2.6-.47,6.3,6.3,0,0,1-1.928-1.3v7.43h-4.369V243.078h2.671a1.074,1.074,0,0,1,1.115.794Zm.23,10.967a4.3,4.3,0,0,0,1.618,1.273,4.825,4.825,0,0,0,1.9.372,4.185,4.185,0,0,0,1.787-.372,3.489,3.489,0,0,0,1.353-1.132,5.6,5.6,0,0,0,.858-1.919,10.9,10.9,0,0,0,.3-2.734,12.209,12.209,0,0,0-.255-2.7,5.28,5.28,0,0,0-.735-1.794,2.921,2.921,0,0,0-1.159-1.01,3.618,3.618,0,0,0-1.548-.319,4.418,4.418,0,0,0-2.317.577,7.033,7.033,0,0,0-1.8,1.618Z"/><path class="cls-5" d="M209.816,245.607a10.765,10.765,0,0,1,7.534-2.867,7.373,7.373,0,0,1,2.848.524,6,6,0,0,1,2.121,1.451,6.171,6.171,0,0,1,1.318,2.218,8.552,8.552,0,0,1,.452,2.83v11.461h-1.983a1.982,1.982,0,0,1-.954-.186,1.286,1.286,0,0,1-.531-.752l-.388-1.307a15.7,15.7,0,0,1-1.345,1.087,7.892,7.892,0,0,1-1.36.786,7.314,7.314,0,0,1-1.515.487,8.77,8.77,0,0,1-1.775.167,6.942,6.942,0,0,1-2.123-.308,4.711,4.711,0,0,1-1.682-.927,4.194,4.194,0,0,1-1.095-1.539,5.444,5.444,0,0,1-.391-2.142,4.243,4.243,0,0,1,.231-1.371,4.017,4.017,0,0,1,.752-1.3,6.218,6.218,0,0,1,1.353-1.167,8.755,8.755,0,0,1,2.043-.957,17.625,17.625,0,0,1,2.82-.661,28.119,28.119,0,0,1,3.68-.311v-1.061a3.979,3.979,0,0,0-.778-2.7,2.848,2.848,0,0,0-2.246-.877,5.294,5.294,0,0,0-1.762.25,7.317,7.317,0,0,0-1.227.556q-.531.31-.965.558a1.924,1.924,0,0,1-.964.247,1.264,1.264,0,0,1-.779-.239,2.075,2.075,0,0,1-.513-.556Zm10.01,7.871a24.123,24.123,0,0,0-3.183.327,8.547,8.547,0,0,0-2.07.609,2.732,2.732,0,0,0-1.114.869,1.862,1.862,0,0,0-.337,1.079,1.9,1.9,0,0,0,.68,1.644,2.954,2.954,0,0,0,1.778.5,5.186,5.186,0,0,0,2.328-.487,6.874,6.874,0,0,0,1.918-1.477Z"/><path class="cls-5" d="M232.807,245.307a11.644,11.644,0,0,1,1.159-1.018,7.433,7.433,0,0,1,1.291-.8,7.226,7.226,0,0,1,1.459-.513,7.4,7.4,0,0,1,1.7-.186,6.53,6.53,0,0,1,2.636.5,5.227,5.227,0,0,1,1.919,1.417,6.189,6.189,0,0,1,1.166,2.173,9.243,9.243,0,0,1,.4,2.788v11.548h-4.369V249.676a3.924,3.924,0,0,0-.76-2.575,2.854,2.854,0,0,0-2.317-.912,4.57,4.57,0,0,0-2.123.513,7.607,7.607,0,0,0-1.876,1.4v13.124H228.72V243.078h2.671a1.076,1.076,0,0,1,1.116.794Z"/><path class="cls-5" d="M254.334,237.79a2.475,2.475,0,0,1-.231,1.06,2.9,2.9,0,0,1-1.5,1.459,2.712,2.712,0,0,1-1.095.22,2.6,2.6,0,0,1-1.071-.22,2.846,2.846,0,0,1-.877-.593,2.889,2.889,0,0,1-.592-.866,2.575,2.575,0,0,1-.221-1.06,2.751,2.751,0,0,1,.221-1.1,2.845,2.845,0,0,1,.592-.885,2.9,2.9,0,0,1,.877-.592,2.649,2.649,0,0,1,1.071-.221,2.764,2.764,0,0,1,1.095.221,2.936,2.936,0,0,1,.893.592,2.861,2.861,0,0,1,.611.885A2.643,2.643,0,0,1,254.334,237.79Zm-.6,5.288v18.146h-4.385V243.078Z"/><path class="cls-5" d="M262.077,252.7a8.62,8.62,0,0,0,.5,2.413A4.915,4.915,0,0,0,263.6,256.8a4.025,4.025,0,0,0,1.512.988,5.439,5.439,0,0,0,1.937.33,5.946,5.946,0,0,0,1.831-.25,8.549,8.549,0,0,0,1.345-.547q.573-.3,1.007-.548a1.7,1.7,0,0,1,.84-.247.9.9,0,0,1,.813.407l1.257,1.591a7.251,7.251,0,0,1-1.629,1.422,9.089,9.089,0,0,1-1.882.922,10.409,10.409,0,0,1-2,.486,14.489,14.489,0,0,1-1.971.141,9.719,9.719,0,0,1-3.519-.627,7.917,7.917,0,0,1-2.83-1.857,8.725,8.725,0,0,1-1.892-3.043,11.794,11.794,0,0,1-.691-4.2,10.059,10.059,0,0,1,.6-3.5,8.4,8.4,0,0,1,1.725-2.846A8.106,8.106,0,0,1,262.8,243.5a9,9,0,0,1,3.651-.71,8.884,8.884,0,0,1,3.168.55,6.853,6.853,0,0,1,2.492,1.6,7.433,7.433,0,0,1,1.637,2.583,9.6,9.6,0,0,1,.593,3.492,2.844,2.844,0,0,1-.213,1.336.873.873,0,0,1-.813.346Zm8.331-2.636a5.346,5.346,0,0,0-.236-1.6,3.8,3.8,0,0,0-.718-1.318,3.343,3.343,0,0,0-1.212-.893,4.151,4.151,0,0,0-1.706-.327,4.044,4.044,0,0,0-2.981,1.079,5.275,5.275,0,0,0-1.387,3.059Z"/><path class="cls-5" d="M289.211,246.615a1.165,1.165,0,0,1-.372.4.958.958,0,0,1-.494.114,1.553,1.553,0,0,1-.68-.175c-.242-.12-.524-.252-.843-.4a7.417,7.417,0,0,0-1.086-.4,5.25,5.25,0,0,0-1.441-.176,3.317,3.317,0,0,0-2.027.548,1.7,1.7,0,0,0-.734,1.432,1.369,1.369,0,0,0,.38.981,3.428,3.428,0,0,0,1.01.7,9.587,9.587,0,0,0,1.424.539c.529.159,1.069.335,1.619.524s1.087.4,1.618.645a5.674,5.674,0,0,1,1.422.92,4.04,4.04,0,0,1,1.389,3.21,6.146,6.146,0,0,1-.467,2.413,5.222,5.222,0,0,1-1.39,1.91,6.544,6.544,0,0,1-2.272,1.257,10.707,10.707,0,0,1-4.953.282,11.04,11.04,0,0,1-1.717-.468,9.657,9.657,0,0,1-1.52-.707,7.471,7.471,0,0,1-1.23-.885l1.01-1.663a1.429,1.429,0,0,1,.459-.46,1.292,1.292,0,0,1,.673-.159,1.4,1.4,0,0,1,.768.231c.241.151.523.319.839.494a7.233,7.233,0,0,0,1.124.494,4.9,4.9,0,0,0,1.637.232,4.222,4.222,0,0,0,1.334-.186,2.781,2.781,0,0,0,.92-.487,1.809,1.809,0,0,0,.531-.7,2.09,2.09,0,0,0,.168-.821,1.46,1.46,0,0,0-.38-1.044,3.306,3.306,0,0,0-1.008-.707,9.533,9.533,0,0,0-1.432-.539c-.537-.16-1.087-.335-1.645-.524a15.428,15.428,0,0,1-1.645-.661,5.681,5.681,0,0,1-1.432-.965,4.354,4.354,0,0,1-1.01-1.432,5.022,5.022,0,0,1-.38-2.052,5.271,5.271,0,0,1,.441-2.123,4.952,4.952,0,0,1,1.3-1.759,6.42,6.42,0,0,1,2.14-1.2,8.927,8.927,0,0,1,2.963-.452,9.093,9.093,0,0,1,3.414.62,7.741,7.741,0,0,1,2.564,1.628Z"/><path class="cls-5" d="M308.472,237.79a2.475,2.475,0,0,1-.232,1.06,2.9,2.9,0,0,1-.608.866,2.945,2.945,0,0,1-.893.593,2.727,2.727,0,0,1-1.1.22,2.612,2.612,0,0,1-1.07-.22,2.82,2.82,0,0,1-1.467-1.459,2.543,2.543,0,0,1-.221-1.06,2.717,2.717,0,0,1,.221-1.1,2.81,2.81,0,0,1,.592-.885,2.875,2.875,0,0,1,.875-.592,2.662,2.662,0,0,1,1.07-.221,2.779,2.779,0,0,1,1.1.221,3,3,0,0,1,.893.592,2.853,2.853,0,0,1,.608.885A2.644,2.644,0,0,1,308.472,237.79Zm-.6,5.288v18.146h-4.387V243.078Z"/><path class="cls-5" d="M316.943,245.307a11.991,11.991,0,0,1,1.159-1.018,7.433,7.433,0,0,1,1.291-.8,7.336,7.336,0,0,1,1.459-.513,7.418,7.418,0,0,1,1.7-.186,6.52,6.52,0,0,1,2.636.5,5.227,5.227,0,0,1,1.919,1.417,6.173,6.173,0,0,1,1.166,2.173,9.243,9.243,0,0,1,.4,2.788v11.548H324.3V249.676a3.908,3.908,0,0,0-.76-2.575,2.854,2.854,0,0,0-2.317-.912,4.576,4.576,0,0,0-2.123.513,7.654,7.654,0,0,0-1.874,1.4v13.124h-4.368V243.078h2.67a1.072,1.072,0,0,1,1.114.794Z"/></g><g class="cls-4"><path class="cls-5" d="M98.6,289.9h1.115a2.858,2.858,0,0,0,1.113-.186,1.907,1.907,0,0,0,.762-.593l7.056-8.931a2.565,2.565,0,0,1,.929-.787,2.968,2.968,0,0,1,1.229-.223h4.1l-8.613,10.632a4.789,4.789,0,0,1-1.575,1.379,3.571,3.571,0,0,1,1.052.593,4.649,4.649,0,0,1,.893,1l8.88,11.974h-4.192a2.618,2.618,0,0,1-1.265-.239,1.981,1.981,0,0,1-.7-.7l-7.233-9.444a1.909,1.909,0,0,0-.779-.673,3.269,3.269,0,0,0-1.273-.194H98.6v11.249H93.84V279.185H98.6Z"/><path class="cls-5" d="M124.652,286.331a9.906,9.906,0,0,1,3.67.656,8.026,8.026,0,0,1,2.83,1.858,8.135,8.135,0,0,1,1.812,2.933,12.132,12.132,0,0,1,0,7.765,8.325,8.325,0,0,1-1.812,2.955,7.974,7.974,0,0,1-2.83,1.876,9.906,9.906,0,0,1-3.67.654,10.012,10.012,0,0,1-3.7-.654,7.944,7.944,0,0,1-2.84-1.876,8.43,8.43,0,0,1-1.821-2.955,11.99,11.99,0,0,1,0-7.765,8.236,8.236,0,0,1,1.821-2.933,8,8,0,0,1,2.84-1.858A10.012,10.012,0,0,1,124.652,286.331Zm0,15.335a3.842,3.842,0,0,0,3.351-1.52,9.708,9.708,0,0,0,0-8.931,3.819,3.819,0,0,0-3.351-1.541,3.9,3.9,0,0,0-3.405,1.549,7.61,7.61,0,0,0-1.106,4.464,7.525,7.525,0,0,0,1.106,4.449A3.92,3.92,0,0,0,124.652,301.666Z"/><path class="cls-5" d="M141.9,278.478v26.284h-4.369V278.478Z"/><path class="cls-5" d="M151.164,278.478v15.051h.813a1.734,1.734,0,0,0,.7-.114,1.425,1.425,0,0,0,.522-.468l4.511-5.572a2.075,2.075,0,0,1,.627-.566,1.8,1.8,0,0,1,.893-.194h4l-5.643,6.739a4.633,4.633,0,0,1-1.309,1.22,3.415,3.415,0,0,1,.663.619,8.05,8.05,0,0,1,.558.76l6.05,8.809H159.6a2.134,2.134,0,0,1-.885-.168,1.373,1.373,0,0,1-.619-.611l-4.633-6.879a1.307,1.307,0,0,0-.513-.532,1.979,1.979,0,0,0-.8-.122h-.991v8.312h-4.369V278.478Z"/><path class="cls-5" d="M165.808,289.145a10.764,10.764,0,0,1,7.534-2.867,7.366,7.366,0,0,1,2.848.523,6.014,6.014,0,0,1,2.122,1.451,6.189,6.189,0,0,1,1.318,2.219,8.522,8.522,0,0,1,.451,2.83v11.461H178.1a1.982,1.982,0,0,1-.954-.186,1.286,1.286,0,0,1-.532-.752l-.389-1.308a15.685,15.685,0,0,1-1.343,1.087,7.952,7.952,0,0,1-1.362.787,7.294,7.294,0,0,1-1.513.486,8.709,8.709,0,0,1-1.777.168,6.916,6.916,0,0,1-2.123-.309,4.692,4.692,0,0,1-1.681-.927,4.2,4.2,0,0,1-1.1-1.539,5.472,5.472,0,0,1-.389-2.141,4.28,4.28,0,0,1,.23-1.372,4.038,4.038,0,0,1,.752-1.3,6.235,6.235,0,0,1,1.352-1.167,8.8,8.8,0,0,1,2.044-.956,17.568,17.568,0,0,1,2.82-.662,28.118,28.118,0,0,1,3.679-.311V293.3a3.972,3.972,0,0,0-.778-2.7,2.843,2.843,0,0,0-2.246-.877,5.252,5.252,0,0,0-1.76.25,7.262,7.262,0,0,0-1.229.555c-.353.207-.675.393-.963.558a1.917,1.917,0,0,1-.965.247,1.264,1.264,0,0,1-.779-.239,2.036,2.036,0,0,1-.512-.555Zm10.01,7.871a23.787,23.787,0,0,0-3.183.327,8.5,8.5,0,0,0-2.069.608,2.719,2.719,0,0,0-1.114.869,1.872,1.872,0,0,0-.337,1.079,1.9,1.9,0,0,0,.681,1.645,2.96,2.96,0,0,0,1.777.494,5.192,5.192,0,0,0,2.327-.486,6.865,6.865,0,0,0,1.918-1.478Z"/><path class="cls-5" d="M190.517,305.044a4.768,4.768,0,0,1-3.635-1.334,5.157,5.157,0,0,1-1.265-3.689V289.886h-1.856a.861.861,0,0,1-.6-.228.9.9,0,0,1-.247-.691v-1.733l2.918-.478.919-4.951a.922.922,0,0,1,.973-.744h2.264v5.714h4.847v3.111h-4.847v9.835a1.955,1.955,0,0,0,.416,1.326,1.431,1.431,0,0,0,1.141.478,2.017,2.017,0,0,0,.68-.1,3.863,3.863,0,0,0,.479-.2c.135-.072.256-.138.362-.205a.621.621,0,0,1,.318-.095.513.513,0,0,1,.319.095,1.62,1.62,0,0,1,.266.293l1.308,2.123a6.641,6.641,0,0,1-2.193,1.2A8.171,8.171,0,0,1,190.517,305.044Z"/><path class="cls-5" d="M197.733,289.145a10.766,10.766,0,0,1,7.534-2.867,7.355,7.355,0,0,1,2.848.523,6.049,6.049,0,0,1,2.124,1.451,6.232,6.232,0,0,1,1.318,2.219,8.548,8.548,0,0,1,.449,2.83v11.461h-1.98a1.982,1.982,0,0,1-.954-.186,1.277,1.277,0,0,1-.531-.752l-.391-1.308a15.678,15.678,0,0,1-1.342,1.087,8,8,0,0,1-1.363.787,7.246,7.246,0,0,1-1.512.486,8.726,8.726,0,0,1-1.778.168,6.925,6.925,0,0,1-2.123-.309,4.692,4.692,0,0,1-1.681-.927,4.188,4.188,0,0,1-1.1-1.539,5.472,5.472,0,0,1-.389-2.141,4.28,4.28,0,0,1,.23-1.372,4.019,4.019,0,0,1,.752-1.3,6.235,6.235,0,0,1,1.352-1.167,8.8,8.8,0,0,1,2.044-.956,17.544,17.544,0,0,1,2.822-.662,28.07,28.07,0,0,1,3.677-.311V293.3a3.961,3.961,0,0,0-.778-2.7,2.843,2.843,0,0,0-2.246-.877,5.25,5.25,0,0,0-1.759.25,7.274,7.274,0,0,0-1.23.555q-.531.31-.963.558a1.917,1.917,0,0,1-.965.247,1.264,1.264,0,0,1-.779-.239,2.036,2.036,0,0,1-.512-.555Zm10.01,7.871a23.787,23.787,0,0,0-3.183.327,8.478,8.478,0,0,0-2.067.608,2.723,2.723,0,0,0-1.117.869,1.878,1.878,0,0,0-.336,1.079,1.9,1.9,0,0,0,.682,1.645,2.961,2.961,0,0,0,1.778.494,5.186,5.186,0,0,0,2.325-.486,6.865,6.865,0,0,0,1.918-1.478Z"/><path class="cls-5" d="M216.571,309.1a.822.822,0,0,1-.319-.656.678.678,0,0,1,.1-.317,1.425,1.425,0,0,1,.239-.318c.13-.141.29-.317.478-.524a7.024,7.024,0,0,0,.566-.707,6.825,6.825,0,0,0,.521-.866,4.366,4.366,0,0,0,.364-1,2.471,2.471,0,0,1-1.026-.2,2.294,2.294,0,0,1-.786-.555,2.525,2.525,0,0,1-.513-.832,2.837,2.837,0,0,1-.186-1.044,2.332,2.332,0,0,1,.707-1.688,2.365,2.365,0,0,1,.813-.513,2.857,2.857,0,0,1,1.044-.186,2.7,2.7,0,0,1,1.175.24,2.252,2.252,0,0,1,.832.653,3.016,3.016,0,0,1,.5.954,3.84,3.84,0,0,1,.168,1.143,6.691,6.691,0,0,1-.258,1.786,9.056,9.056,0,0,1-.752,1.873A10.525,10.525,0,0,1,219,308.158a11.15,11.15,0,0,1-1.671,1.626Z"/><path class="cls-5" d="M240.04,304.762h-4.775V279.185h4.775Z"/><path class="cls-5" d="M249.415,288.845a11.517,11.517,0,0,1,1.159-1.018,7.35,7.35,0,0,1,1.291-.8,7.226,7.226,0,0,1,1.459-.513,7.4,7.4,0,0,1,1.7-.186,6.53,6.53,0,0,1,2.636.5,5.205,5.205,0,0,1,1.919,1.416,6.212,6.212,0,0,1,1.167,2.174,9.268,9.268,0,0,1,.4,2.787v11.549h-4.369V293.213a3.926,3.926,0,0,0-.76-2.575,2.852,2.852,0,0,0-2.317-.911,4.573,4.573,0,0,0-2.123.513,7.6,7.6,0,0,0-1.876,1.4v13.125h-4.369V286.615H248a1.077,1.077,0,0,1,1.116.8Z"/><path class="cls-5" d="M281.569,278.478v26.284H278.9a1.028,1.028,0,0,1-1.1-.8l-.372-1.749a9.149,9.149,0,0,1-2.521,2.033,6.815,6.815,0,0,1-3.317.779,5.915,5.915,0,0,1-4.855-2.416,8.605,8.605,0,0,1-1.379-2.91,14.681,14.681,0,0,1-.486-3.962,12.427,12.427,0,0,1,.547-3.749A9.145,9.145,0,0,1,267,288.985a7.32,7.32,0,0,1,2.458-1.99,7.088,7.088,0,0,1,3.218-.717,6.4,6.4,0,0,1,2.6.478,6.7,6.7,0,0,1,1.926,1.291v-9.569ZM277.2,291.249a4.281,4.281,0,0,0-1.618-1.272,4.728,4.728,0,0,0-1.884-.372,4.146,4.146,0,0,0-1.786.372,3.586,3.586,0,0,0-1.36,1.121,5.44,5.44,0,0,0-.869,1.911,10.989,10.989,0,0,0-.3,2.731,12,12,0,0,0,.258,2.7,5.264,5.264,0,0,0,.734,1.8,2.792,2.792,0,0,0,1.166,1.01,3.756,3.756,0,0,0,1.539.308,4.465,4.465,0,0,0,2.317-.566,6.9,6.9,0,0,0,1.8-1.608Z"/><path class="cls-5" d="M291.544,281.327a2.471,2.471,0,0,1-.231,1.06,2.9,2.9,0,0,1-.608.867,2.942,2.942,0,0,1-.893.592,2.727,2.727,0,0,1-1.1.221,2.62,2.62,0,0,1-1.071-.221,2.814,2.814,0,0,1-1.466-1.459,2.54,2.54,0,0,1-.221-1.06,2.709,2.709,0,0,1,.221-1.1,2.8,2.8,0,0,1,.592-.885,2.886,2.886,0,0,1,.874-.593,2.67,2.67,0,0,1,1.071-.22,2.778,2.778,0,0,1,1.1.22,3,3,0,0,1,.893.593,2.841,2.841,0,0,1,.608.885A2.635,2.635,0,0,1,291.544,281.327Zm-.6,5.288v18.147h-4.387V286.615Z"/><path class="cls-5" d="M295.506,289.145a10.766,10.766,0,0,1,7.534-2.867,7.36,7.36,0,0,1,2.849.523,6.036,6.036,0,0,1,2.123,1.451,6.218,6.218,0,0,1,1.318,2.219,8.548,8.548,0,0,1,.449,2.83v11.461H307.8a1.982,1.982,0,0,1-.954-.186,1.277,1.277,0,0,1-.531-.752l-.391-1.308a15.678,15.678,0,0,1-1.342,1.087,8,8,0,0,1-1.363.787,7.227,7.227,0,0,1-1.512.486,8.719,8.719,0,0,1-1.778.168,6.925,6.925,0,0,1-2.123-.309,4.666,4.666,0,0,1-1.679-.927,4.2,4.2,0,0,1-1.1-1.539,5.491,5.491,0,0,1-.388-2.141,4.306,4.306,0,0,1,.229-1.372,4.038,4.038,0,0,1,.752-1.3,6.283,6.283,0,0,1,1.352-1.167,8.8,8.8,0,0,1,2.044-.956,17.57,17.57,0,0,1,2.822-.662,28.071,28.071,0,0,1,3.678-.311V293.3a3.961,3.961,0,0,0-.779-2.7,2.842,2.842,0,0,0-2.245-.877,5.252,5.252,0,0,0-1.76.25,7.31,7.31,0,0,0-1.23.555c-.353.207-.675.393-.962.558a1.914,1.914,0,0,1-.964.247,1.26,1.26,0,0,1-.779-.239,2.01,2.01,0,0,1-.513-.555Zm10.011,7.871a23.786,23.786,0,0,0-3.184.327,8.478,8.478,0,0,0-2.067.608,2.713,2.713,0,0,0-1.116.869,1.877,1.877,0,0,0-.335,1.079,1.9,1.9,0,0,0,.68,1.645,2.963,2.963,0,0,0,1.778.494,5.186,5.186,0,0,0,2.325-.486,6.882,6.882,0,0,0,1.919-1.478Z"/></g></g><path class="cls-5" d="M126.569,355.257h-4.613a.478.478,0,0,0-.489.468.081.081,0,0,0,0,.022V358.2a7.833,7.833,0,0,0-6.779-3.429c-5.175,0-9.649,3.913-9.649,10.833s4.264,10.765,9.856,10.765a7.847,7.847,0,0,0,6.71-3.214v1.328c0,2.993-1.466,5.382-6.152,5.382a8.3,8.3,0,0,1-5.872-2.237.468.468,0,0,0-.662.025.414.414,0,0,0-.037.046l-2.1,3.494c-.272.419-.209.7-.07.838a12.768,12.768,0,0,0,8.936,3.01c8.808,0,11.393-4.9,11.393-10.275V355.676A.469.469,0,0,0,126.569,355.257Zm-10.346,16.076a5.285,5.285,0,0,1-5.449-5.115c0-.159,0-.318.007-.477a5.287,5.287,0,0,1,4.971-5.585q.236-.014.471-.006a5.246,5.246,0,0,1,5.45,5.034,5.172,5.172,0,0,1-.008.557,5.247,5.247,0,0,1-4.885,5.585A5.173,5.173,0,0,1,116.223,371.333Zm20.9-23.9v28.3a.48.48,0,0,1-.468.49h-4.648a.48.48,0,0,1-.49-.468V347.429a.479.479,0,0,1,.47-.488h4.66a.479.479,0,0,1,.489.468.081.081,0,0,1,0,.022Zm13.7,7.4c-4.405,0-7.689,1.466-9.156,4.334a.506.506,0,0,0,.139.558l3.355,2.376a.456.456,0,0,0,.628-.138h0a5.442,5.442,0,0,1,5.034-2.237c2.449,0,3.636.909,3.636,2.1v.357c0,.489-.272.77-1.119.838l-5.733.489a6.643,6.643,0,0,0-6.71,6.564,6.51,6.51,0,0,0,6.5,6.523c.187,0,.373-.007.559-.023a7.3,7.3,0,0,0,6.433-3.284v2.378a.479.479,0,0,0,.468.49h4.648a.48.48,0,0,0,.49-.468V363.224c0-5.73-3.078-8.389-9.16-8.389Zm3.636,12.93a4.484,4.484,0,0,1-4.614,4.351c-.069,0-.139,0-.208-.011-1.956,0-2.936-.909-2.936-2.236,0-1.19.909-2.028,2.585-2.308l5.17-.628Zm27.483,2.1c0,4.754-3.494,6.781-9.018,6.781A11.968,11.968,0,0,1,163.9,373.5a.519.519,0,0,1,0-.628l2.655-3.426a.466.466,0,0,1,.657-.043.581.581,0,0,1,.043.043,8.386,8.386,0,0,0,6.22,2.307c1.537,0,2.795-.419,2.795-1.608,0-1.118-1.119-1.4-4.626-2.177-3.075-.628-6.92-2.027-6.92-6.571,0-4.193,3.355-6.64,8.808-6.64a11.368,11.368,0,0,1,8.052,2.8.441.441,0,0,1,.079.618l-.008.01-2.517,3.295a.4.4,0,0,1-.629.071,8.268,8.268,0,0,0-5.314-1.817c-1.747,0-2.656.557-2.656,1.466,0,1.048,1.118,1.328,4.822,2.1,3.494.838,6.571,2.177,6.571,6.572Zm21.249,0c0,4.754-3.494,6.781-9.018,6.781a11.982,11.982,0,0,1-9.028-3.143.519.519,0,0,1,0-.628l2.655-3.426a.466.466,0,0,1,.657-.043.581.581,0,0,1,.043.043,8.386,8.386,0,0,0,6.22,2.307c1.537,0,2.795-.419,2.795-1.608,0-1.118-1.119-1.4-4.626-2.177-3.075-.628-6.92-2.027-6.92-6.571,0-4.193,3.355-6.64,8.808-6.64a11.376,11.376,0,0,1,8.055,2.8.441.441,0,0,1,.078.618l-.008.01-2.517,3.285a.4.4,0,0,1-.628.07,8.271,8.271,0,0,0-5.314-1.806c-1.747,0-2.656.557-2.656,1.466,0,1.048,1.118,1.328,4.821,2.1,3.494.838,6.572,2.177,6.572,6.572Zm24.522-22.92h-4.626a.479.479,0,0,0-.489.468.081.081,0,0,0,0,.022v10.9a8.262,8.262,0,0,0-6.991-3.565c-5.1,0-9.437,3.913-9.437,10.974s4.335,10.975,9.508,10.975a8.026,8.026,0,0,0,6.92-3.494v2.449a.478.478,0,0,0,.467.489h4.648a.478.478,0,0,0,.49-.467V347.358A.466.466,0,0,0,227.714,346.941Zm-10.34,24.4a5.285,5.285,0,0,1-5.449-5.115c-.005-.159,0-.318.007-.477a5.452,5.452,0,1,1,10.9,0,5.283,5.283,0,0,1-4.967,5.584c-.166.009-.333.011-.5.005Zm25.445-16.566a10.683,10.683,0,0,0-11.238,10.1c-.016.292-.019.583-.011.874a11.257,11.257,0,0,0,22.509,0,10.684,10.684,0,0,0-10.372-10.985c-.294-.008-.589,0-.883.011Zm0,16.5a5.4,5.4,0,0,1-5.592-5.192c0-.133,0-.267,0-.4a5.592,5.592,0,0,1,11.181-.246q0,.123,0,.246a5.355,5.355,0,0,1-5.107,5.592C243.14,371.272,242.979,371.272,242.819,371.265Zm25.578-16.5a10.683,10.683,0,0,0-11.238,10.1q-.022.438-.011.874a11.257,11.257,0,0,0,22.509,0,10.721,10.721,0,0,0-10.451-10.984c-.27-.007-.539,0-.809.01Zm0,16.5a5.4,5.4,0,0,1-5.592-5.192c0-.133,0-.267,0-.4a5.592,5.592,0,0,1,11.184,0,5.4,5.4,0,0,1-5.195,5.59c-.132,0-.265,0-.4,0Zm29.3-15.518a.712.712,0,0,0-.348-.561,5.308,5.308,0,0,0-2.373-.353,7.163,7.163,0,0,0-6.639,3.844v-2.93a.479.479,0,0,0-.468-.49h-4.441a.479.479,0,0,0-.49.468v20.014a.48.48,0,0,0,.468.49h4.648a.48.48,0,0,0,.49-.468v-8.972a5.8,5.8,0,0,1,5.551-6.041,5.889,5.889,0,0,1,.881.03,7.22,7.22,0,0,1,2.1.348.448.448,0,0,0,.545-.326.409.409,0,0,0,.013-.093Z"/><g class="cls-4"><path class="cls-5" d="M151.588,54.422V38.2H145.75V34.455h15.926V38.2h-5.807V54.422Z"/><path class="cls-5" d="M164.218,44.454a10.433,10.433,0,0,1,20.865,0,10.433,10.433,0,0,1-20.865,0Zm16.5,0c0-3.744-2.365-6.558-6.048-6.558-3.711,0-6.076,2.814-6.076,6.558,0,3.71,2.365,6.556,6.076,6.556C178.348,51.01,180.713,48.164,180.713,44.454Z"/><path class="cls-5" d="M189.57,54.422V34.455h9.341c4.339,0,6.7,2.933,6.7,6.436,0,3.473-2.394,6.407-6.7,6.407h-5.089v7.124Zm11.706-13.531a2.7,2.7,0,0,0-2.965-2.695h-4.489v5.36h4.489A2.7,2.7,0,0,0,201.276,40.891Z"/><path class="cls-5" d="M218.394,54.422V51.068c8.174-6.045,10.568-8.081,10.568-10.536,0-1.767-1.586-2.6-3.234-2.6a7.137,7.137,0,0,0-5.357,2.3l-2.426-2.814a10.176,10.176,0,0,1,7.695-3.264c4.281,0,7.632,2.395,7.632,6.378,0,3.412-2.814,6.375-7.993,10.148h8.145v3.742Z"/><path class="cls-5" d="M237.46,44.454c0-5.15,2.546-10.3,8.264-10.3s8.262,5.15,8.262,10.3-2.546,10.327-8.262,10.327S237.46,49.6,237.46,44.454Zm12.184,0c0-3.683-1.047-6.526-3.92-6.526-2.846,0-3.922,2.843-3.922,6.526s1.076,6.556,3.922,6.556S249.644,48.135,249.644,44.454Z"/></g><g class="cls-4"><path class="cls-5" d="M29.285,78.468c0-6.317,4.79-10.329,10.657-10.329A9.318,9.318,0,0,1,48.174,72.6l-3.5,1.916a5.74,5.74,0,0,0-4.73-2.6,6.562,6.562,0,0,0,0,13.113A6.633,6.633,0,0,0,44.163,83.5V81.1H38.9V77.389h9.52v7.664a11.049,11.049,0,0,1-8.473,3.741C34.075,88.794,29.285,84.752,29.285,78.468Z"/><path class="cls-5" d="M53.11,88.435V68.468h4.281V84.694h8.443v3.741Z"/><path class="cls-5" d="M84,88.435l-1.257-3.382H74.184l-1.258,3.382H68.107L75.8,68.468h5.329l7.693,19.967ZM78.465,72.72l-3.114,8.591h6.227Z"/><path class="cls-5" d="M90.585,85.621,92.92,82.3a8.775,8.775,0,0,0,6.347,2.723c2.365,0,3.471-1.049,3.471-2.216,0-3.473-11.5-1.047-11.5-8.562,0-3.321,2.874-6.077,7.574-6.077a11.11,11.11,0,0,1,7.784,2.785l-2.365,3.173a8.581,8.581,0,0,0-5.808-2.185c-1.8,0-2.814.779-2.814,1.975,0,3.143,11.465,1.018,11.465,8.471,0,3.654-2.633,6.407-7.992,6.407A11.526,11.526,0,0,1,90.585,85.621Z"/><path class="cls-5" d="M110.041,85.621l2.334-3.321a8.777,8.777,0,0,0,6.347,2.723c2.365,0,3.472-1.049,3.472-2.216,0-3.473-11.5-1.047-11.5-8.562,0-3.321,2.874-6.077,7.575-6.077a11.106,11.106,0,0,1,7.783,2.785l-2.365,3.173a8.581,8.581,0,0,0-5.807-2.185c-1.8,0-2.814.779-2.814,1.975,0,3.143,11.465,1.018,11.465,8.471,0,3.654-2.634,6.407-7.994,6.407A11.521,11.521,0,0,1,110.041,85.621Z"/><path class="cls-5" d="M130.873,88.435V68.468h7.873c6.257,0,10.6,3.981,10.6,9.968,0,6.048-4.341,10-10.568,10Zm14.13-10c0-3.5-2.155-6.226-6.227-6.226h-3.653V84.694h3.623A5.984,5.984,0,0,0,145,78.436Z"/><path class="cls-5" d="M152.9,78.468A10.433,10.433,0,1,1,163.35,88.794,10.033,10.033,0,0,1,152.9,78.468Zm16.5,0c0-3.744-2.365-6.558-6.048-6.558-3.711,0-6.076,2.814-6.076,6.558,0,3.709,2.365,6.555,6.076,6.555C167.033,85.023,169.4,82.177,169.4,78.468Z"/><path class="cls-5" d="M177.3,78.468a10.433,10.433,0,1,1,10.447,10.326A10.033,10.033,0,0,1,177.3,78.468Zm16.5,0c0-3.744-2.365-6.558-6.049-6.558-3.71,0-6.075,2.814-6.075,6.558,0,3.709,2.365,6.555,6.075,6.555C191.428,85.023,193.793,82.177,193.793,78.468Z"/><path class="cls-5" d="M213.935,88.435l-3.922-7.095H206.9v7.095h-4.249V68.468h9.341c4.161,0,6.733,2.724,6.733,6.436a5.778,5.778,0,0,1-4.4,5.929l4.52,7.6Zm.42-13.56a2.7,2.7,0,0,0-2.966-2.665H206.9V77.6h4.491A2.709,2.709,0,0,0,214.355,74.875Z"/><path class="cls-5" d="M243.867,88.435l-3.922-7.095H236.83v7.095h-4.249V68.468h9.341c4.161,0,6.733,2.724,6.733,6.436a5.778,5.778,0,0,1-4.4,5.929l4.52,7.6Zm.42-13.56a2.7,2.7,0,0,0-2.966-2.665H236.83V77.6h4.491A2.709,2.709,0,0,0,244.287,74.875Z"/><path class="cls-5" d="M267.124,88.435l-1.257-3.382h-8.562l-1.26,3.382h-4.817l7.693-19.967h5.328l7.692,19.967ZM261.586,72.72l-3.114,8.591H264.7Z"/><path class="cls-5" d="M289.062,88.435l-9.518-13.023V88.435h-4.252V68.468h4.372l9.25,12.543V68.468h4.251V88.435Z"/><path class="cls-5" d="M310.464,88.435l-6.048-8.022L302.859,82.3v6.135H298.61V68.468h4.249V77.36l7.066-8.892h5.24l-7.934,9.37,8.471,10.6Z"/><path class="cls-5" d="M319.143,88.435V68.468h4.249V88.435Z"/><path class="cls-5" d="M342.61,88.435l-9.518-13.023V88.435H328.84V68.468h4.371l9.25,12.543V68.468h4.252V88.435Z"/><path class="cls-5" d="M351.2,78.468c0-6.317,4.792-10.329,10.659-10.329a9.32,9.32,0,0,1,8.232,4.459l-3.5,1.916a5.741,5.741,0,0,0-4.73-2.6,6.562,6.562,0,0,0,0,13.113,6.63,6.63,0,0,0,4.22-1.528V81.1H360.81V77.389h9.518v7.664a11.041,11.041,0,0,1-8.471,3.741C355.99,88.794,351.2,84.752,351.2,78.468Z"/></g><rect class="cls-6" x="155.238" y="116.098" width="94.664" height="94.664" rx="2.721"/><path class="cls-5" d="M200.939,141.962a22.556,22.556,0,0,0-10.572,8.411,21.983,21.983,0,0,0-3.537,16.28,12.519,12.519,0,0,0,9.453,9.726,11.271,11.271,0,0,0,7.867-1.2c2.721-1.609,3.442-3.693,6.351-4.923a10.508,10.508,0,0,1,8.577.1,21.052,21.052,0,0,1-12.338,12.928,21.627,21.627,0,0,1-29.8-20.136,21.4,21.4,0,0,1,23.989-21.181Z"/><path class="cls-5" d="M205.366,152.248a16.064,16.064,0,0,1,1.434,1.314,10.359,10.359,0,0,0,4.825,3.382,10.926,10.926,0,0,0,6.78-.068,10.608,10.608,0,0,0-4.742-4.552A10.446,10.446,0,0,0,205.366,152.248Z"/><path class="cls-5" d="M202.618,174.354a13.935,13.935,0,0,1-5.271-12.014,13.679,13.679,0,0,1,5.888-10.579,11.706,11.706,0,0,1,6.411-1.753,11.444,11.444,0,0,1,10.068,6.3,7.123,7.123,0,0,0,4.082-6.326,6.877,6.877,0,0,0-3.306-5.255,20.624,20.624,0,0,0-9.929-2.862,21.84,21.84,0,0,0-13.018,3.4,20.66,20.66,0,0,0-6.335,6.394,21.544,21.544,0,0,0-3.368,11.524,13.161,13.161,0,0,0,2.364,7.551A10.191,10.191,0,0,0,202.618,174.354Z"/><path class="cls-5" d="M207.192,184.632A21.979,21.979,0,0,0,220.278,182a6.483,6.483,0,0,0,3.072-6.917,7,7,0,0,0-2.994-4.025,23.075,23.075,0,0,1-3.836,6.858A22.565,22.565,0,0,1,207.192,184.632Z"/><path class="cls-5" d="M176.267,187.848a3.338,3.338,0,0,0,.868,1.714c.416.408.89.528,1.268.144.454-.46.084-.957-.3-1.654-.408-.756-.689-1.562.046-2.3a1.734,1.734,0,0,1,2.451.006,1.819,1.819,0,0,1,.153.176,3.614,3.614,0,0,1,.936,1.532l-.732.74a3.422,3.422,0,0,0-.86-1.632c-.392-.387-.816-.506-1.17-.15-.438.446-.06.936.286,1.587.43.8.718,1.616-.046,2.386a1.793,1.793,0,0,1-2.7-.18,4.053,4.053,0,0,1-.974-1.594Z"/><path class="cls-5" d="M181.41,189.184l.761.62-2.514,3.089-.762-.621Zm1.6-1.178a.614.614,0,1,1-.449-.136A.611.611,0,0,1,183.01,188.006Z"/><path class="cls-5" d="M186.574,194.71a.947.947,0,0,0,.2-.655.663.663,0,0,0-.324-.447,1.465,1.465,0,0,0-1.088-.114,2.1,2.1,0,0,1-.12.212l-1.3,2.128-.838-.506,1.208-1.994a.884.884,0,0,0,.2-.651.648.648,0,0,0-.332-.446,1.475,1.475,0,0,0-1.1-.106l-1.42,2.332-.838-.506,2.068-3.407.83.506-.218.362v.016a1.874,1.874,0,0,1,1.361.221,1.311,1.311,0,0,1,.693,1.148,2.12,2.12,0,0,1,1.571.226,1.36,1.36,0,0,1,.672.884,1.633,1.633,0,0,1-.311,1.186l-1.3,2.128-.839-.506Z"/><path class="cls-5" d="M188.008,199.861l-.914-.353,2.076-5.377.906.348-.084.212.016.014a1.857,1.857,0,0,1,1.11.084,1.93,1.93,0,0,1,1.076,2.508q-.019.048-.042.1a2.024,2.024,0,0,1-2.567,1.268q-.068-.024-.135-.051a1.987,1.987,0,0,1-.748-.49h-.016Zm1.676-2.046a1.14,1.14,0,0,0,1.488-.621,1.125,1.125,0,0,0,.039-.111,1.16,1.16,0,0,0-.513-1.557c-.027-.013-.055-.026-.083-.037a1.41,1.41,0,0,0-.9-.038L189,197.309a1.647,1.647,0,0,0,.688.506Z"/><path class="cls-5" d="M194.239,193.6l.945.256-1.633,5.964-.944-.255Z"/><path class="cls-5" d="M194.746,201.976l1.425-2-1.012-3.775,1.042.183.324,1.306c.12.49.22.884.31,1.328h.017c.255-.408.544-.817.8-1.217l.71-1.042.982.174-3.594,5.225Z"/><path class="cls-5" d="M201.766,195.208l1.633-.03a3.169,3.169,0,0,1,1.668.272,1.3,1.3,0,0,1,.71,1.171,1.211,1.211,0,0,1-.86,1.216v.014a1.36,1.36,0,0,1,1.148,1.374,1.534,1.534,0,0,1-.74,1.387,3.385,3.385,0,0,1-1.8.409l-1.633.03Zm2,2.449c.566-.016,1-.272,1-.816a.7.7,0,0,0-.378-.634,2,2,0,0,0-1.026-.144h-.544l.03,1.592Zm-.213,2.476a2.175,2.175,0,0,0,1.162-.234.748.748,0,0,0,.324-.672c-.016-.566-.454-.846-1.23-.83l-.944.022.038,1.736Z"/><path class="cls-5" d="M206.811,196.868l.958-.136.076.545h.016a1.4,1.4,0,0,1,1.064-.762,1.032,1.032,0,0,1,.272,0l.128.927a1.247,1.247,0,0,0-.323,0,1.3,1.3,0,0,0-1.021.741l.348,2.476-.974.136Z"/><path class="cls-5" d="M209.875,194.4a.609.609,0,1,1-.476.724A.62.62,0,0,1,209.875,194.4Zm-.076,1.987.957-.213.847,3.9-.958.212Z"/><path class="cls-5" d="M211.214,193.8l.944-.272,1.684,5.956-.944.272Z"/><path class="cls-5" d="M213.056,193.244l.922-.324,2.046,5.837-.922.324Z"/><path class="cls-5" d="M215.431,192.64a.607.607,0,1,1-.332.794.606.606,0,0,1,.332-.794Zm.294,1.962.906-.379,1.548,3.671-.906.378Z"/><path class="cls-5" d="M221.352,196a1.905,1.905,0,0,1-.859.89,1.564,1.564,0,0,1-.936.2,1.089,1.089,0,0,1-.817-.6,1.136,1.136,0,0,1,0-1.088,2.041,2.041,0,0,1,.855-.771,3.558,3.558,0,0,1,.718-.285l-.114-.2a.7.7,0,0,0-.43-.384,1.035,1.035,0,0,0-.689.144,2.278,2.278,0,0,0-.892.882l-.422-.784a2.733,2.733,0,0,1,1.034-.922,2.046,2.046,0,0,1,1.306-.272,1.329,1.329,0,0,1,.876.732l.727,1.36c.106.2.248.286.413.2a.53.53,0,0,0,.166-.15l.362.681a1.19,1.19,0,0,1-.383.315,1.008,1.008,0,0,1-.893.068Zm-.753-1.088a2.422,2.422,0,0,0-.583.217c-.353.188-.642.49-.459.838.152.286.476.286.786.123a1.381,1.381,0,0,0,.574-.591Z"/><path class="cls-5" d="M221.263,191.8l.786-.566.25.348h.017a2,2,0,0,1,.753-1.192,1.4,1.4,0,0,1,1.1-.272,1.552,1.552,0,0,1,.958.754l1.451,2.008-.792.574-1.361-1.872a1.069,1.069,0,0,0-.528-.46.683.683,0,0,0-.557.128,1.486,1.486,0,0,0-.545,1.021l1.579,2.2-.792.574Z"/><path class="cls-5" d="M229.426,190.212a1.757,1.757,0,0,1-.476.681,1.3,1.3,0,0,1-.983.37,1.593,1.593,0,0,1-1.012-.626l-1.148-1.26-.514.468-.558-.62.514-.468-.718-.787.612-.786.83.914.83-.756.56.62-.83.754,1.056,1.162c.3.332.612.544.944.25a1.233,1.233,0,0,0,.324-.528Z"/><path class="cls-5" d="M225.981,185.461l.77-.83,2.74,2.9-.43.46Zm3.858,2.817a.609.609,0,1,1-.163.435.61.61,0,0,1,.163-.435Z"/><path class="cls-5" d="M173.366,144.825a3.57,3.57,0,0,1-1.036-4.942c.043-.066.088-.13.135-.193a3.693,3.693,0,0,1,1.981-1.4l1.342,1.018a2.955,2.955,0,0,0-1.905,1.088,2.312,2.312,0,0,0,3.43,2.939,2.16,2.16,0,0,0,.184-.21,2.956,2.956,0,0,0,.544-2.125l1.341,1.018a3.679,3.679,0,0,1-.816,2.288,3.569,3.569,0,0,1-5,.684C173.5,144.935,173.43,144.881,173.366,144.825Z"/><path class="cls-5" d="M177.516,139.222a3.575,3.575,0,1,1,5.17.658,3.621,3.621,0,0,1-5.092-.557C177.567,139.29,177.541,139.256,177.516,139.222Zm4.081-3.352c-.87-1.064-1.932-1.361-2.762-.672s-.767,1.79.1,2.851,1.94,1.347,2.775.659.751-1.785-.111-2.849Z"/><path class="cls-5" d="M182.25,130.762l2.321-1.243a3.752,3.752,0,1,1,3.846,6.444c-.1.06-.2.115-.308.165l-2.321,1.244Zm5,4.057a2.187,2.187,0,1,0-2.068-3.855l-.585.315,2.068,3.856Z"/><path class="cls-5" d="M189.747,127.067l4.5-1.347.438,1.467-2.756.816.362,1.211,2.215-.661.435,1.453-2.215.661.482,1.611,2.756-.817.438,1.467-4.5,1.347Z"/><path class="cls-5" d="M196.022,129.1a3.57,3.57,0,0,1,2.83-4.181c.078-.015.156-.027.234-.037a3.692,3.692,0,0,1,2.386.449l.2,1.674a2.958,2.958,0,0,0-2.107-.607,1.98,1.98,0,0,0-1.722,2.209,1.879,1.879,0,0,0,.052.267,1.986,1.986,0,0,0,1.951,2.02,1.843,1.843,0,0,0,.258-.012,2.959,2.959,0,0,0,1.905-1.088l.2,1.673a3.671,3.671,0,0,1-2.212,1,3.57,3.57,0,0,1-3.959-3.133C196.032,129.256,196.026,129.176,196.022,129.1Z"/><path class="cls-5" d="M205.222,124.808l-.338,6.071,2.8.163-.087,1.489-4.572-.272.427-7.554Z"/><path class="cls-5" d="M208.5,128.7a3.686,3.686,0,1,1-.036.126Q208.476,128.76,208.5,128.7Zm5.219,1.409c.359-1.333-.032-2.372-1.088-2.658s-1.94.408-2.3,1.744.04,2.376,1.11,2.664,1.913-.414,2.272-1.75Z"/><path class="cls-5" d="M216.446,131.266l1.84-3.44,1.589.849-1.788,3.344c-.6,1.13-.519,1.954.31,2.4s1.576.059,2.177-1.067l1.788-3.344,1.54.816-1.839,3.439a3.2,3.2,0,1,1-5.617-2.993Z"/><path class="cls-5" d="M225.981,132.245l1.94,1.685a3.741,3.741,0,1,1-4.665,5.85c-.081-.064-.158-.131-.233-.2l-1.94-1.684Zm-2.052,6.065a2.183,2.183,0,1,0,2.863-3.3h0l-.49-.424-2.863,3.295Z"/><path class="cls-5" d="M226.852,141.989l1.36-.615a3.146,3.146,0,0,0,.591,2.213c.345.411.792.585,1.181.258s.307-.631-.1-1.526a2.292,2.292,0,0,1,.5-3.059,2.161,2.161,0,0,1,3.048.215,2.1,2.1,0,0,1,.176.234,3.61,3.61,0,0,1,.817,2.133l-1.236.564a3.442,3.442,0,0,0-.688-1.8c-.3-.362-.661-.449-.939-.215s-.272.5.038,1.2c.735,1.535.58,2.539-.424,3.38a2.288,2.288,0,0,1-3.467-.477A3.629,3.629,0,0,1,226.852,141.989Z"/></g></g></svg>