<svg xmlns="http://www.w3.org/2000/svg" viewBox="0 0 200 200"><defs><style>.cls-1{fill:#f2eeef;}.cls-2{fill:#f9fbfa;}.cls-3{fill:#d2d2d2;}.cls-4{fill:#eaeaea;}.cls-5{fill:#f39a3e;}.cls-6{fill:#d52027;}.cls-7{fill:#83143d;}.cls-8{fill:#87c489;}.cls-9{fill:#1d7c7b;}.cls-10{fill:#56c1c9;}.cls-11{fill:#272660;}.cls-12{fill:#29265f;}.cls-13{fill:#9998c2;}</style></defs><g id="Layer_2" data-name="Layer 2"><g id="Layer_1-2" data-name="Layer 1"><circle class="cls-1" cx="100" cy="100" r="100"/><polygon class="cls-2" points="117.925 88.375 99.614 99.329 81.303 88.488 99.704 78.644 117.925 88.375"/><polygon class="cls-3" points="99.614 99.329 99.704 120.013 117.925 109.685 117.925 88.375 99.614 99.329"/><polygon class="cls-4" points="99.614 99.329 99.704 120.013 81.303 109.527 81.303 88.488 99.614 99.329"/><polygon class="cls-5" points="99.814 65.131 87.264 71.863 99.704 78.644 117.925 88.375 117.925 74.847 99.814 65.131"/><path class="cls-6" d="M117.925,74.847l9.923,5.323A4.232,4.232,0,0,1,130.08,83.9v18.863l-12.155,6.923V74.847Z"/><path class="cls-7" d="M130.08,102.762l-12.155,6.923L99.7,120.013l11.4,6.361,16.737-8.953a4.233,4.233,0,0,0,2.236-3.732Z"/><polygon class="cls-8" points="81.303 109.527 81.303 122.537 99.814 132.416 111.107 126.374 99.704 120.013 81.303 109.527"/><path class="cls-9" d="M81.3,88.488,68.968,95.343v18.073a4.232,4.232,0,0,0,2.24,3.733L81.3,122.537V88.488Z"/><path class="cls-10" d="M87.264,71.863,71.2,80.48a4.234,4.234,0,0,0-2.232,3.73V95.343L81.3,88.488l18.4-9.844Z"/><path class="cls-11" d="M53.318,26.023l.361,3.473a7.491,7.491,0,0,0-3.405.62c-1.488.755-2.4,1.409-1.883,2.661s3.507-.135,4.307-.383,3.1-.987,4.572-.192a4.8,4.8,0,0,1,2.52,5.3c-.5,2.8-5.367,5.863-9.719,5.863l-.451-3.675a8.4,8.4,0,0,0,4.578-.835c2.492-1.184,2.007-2.4,1.556-2.751s-1.15-.473-3.3.293-5.175,1.81-6.883-.981a4.986,4.986,0,0,1,.541-6.426C47.427,27.416,50.308,26.136,53.318,26.023Z"/><path class="cls-11" d="M66.758,17.725l3.586-1.049s1.454,5.006,2.063,7.07,1.725,4.938,4.533,4.3,2.638-3.281,2.5-4.16-2.638-9.2-2.638-9.2l3.551-.981s1.624,5.514,2.4,8.051.981,7.915-4.77,9.5-8.016-3.247-8.456-4.431S66.758,17.725,66.758,17.725Z"/><path class="cls-11" d="M97.021,11.861l-.677,15.921s4.826.226,7.622.316,5.751-.97,5.751-3.947a3.968,3.968,0,0,0-2.842-4.092,3.957,3.957,0,0,0,2.487-3.89,3.825,3.825,0,0,0-3.569-3.958C104.761,12.135,97.021,11.861,97.021,11.861Z"/><path class="cls-1" d="M100.567,15.1l-.118,3.332s2.672.118,3.737.118,1.4-.845,1.455-1.64-.457-1.539-1.641-1.607S100.567,15.1,100.567,15.1Z"/><path class="cls-1" d="M100.279,21.344l-.1,3.535s3.264.1,4.363.084,1.4-1.232,1.421-1.808a1.655,1.655,0,0,0-1.353-1.642C103.713,21.445,100.279,21.344,100.279,21.344Z"/><polygon class="cls-11" points="123.721 15.103 122.728 18.085 127.284 19.709 123.179 31.616 126.562 32.833 130.846 20.927 135.357 22.505 136.484 19.393 123.721 15.103"/><polygon class="cls-11" points="138.108 37.749 151.999 27.917 154.705 29.947 150.51 46.409 147.263 44.109 148.3 40.591 144.241 37.749 141.22 39.959 138.108 37.749"/><polygon class="cls-1" points="146.248 35.923 149.259 38.054 150.916 32.54 146.248 35.923"/><polygon class="cls-12" points="37.533 164.054 46.598 152.892 48.944 154.876 48.628 162.408 55.844 160.559 58.234 162.453 49.259 173.548 47.173 171.868 53.566 163.952 46.159 165.678 45.736 165.314 46.147 157.785 39.698 165.768 37.533 164.054"/><polygon class="cls-12" points="65.744 166.625 75.553 170.785 74.538 173.153 67.198 170.109 65.947 173.018 72.948 176.028 71.967 178.396 64.999 175.352 63.748 178.396 71.054 181.406 70.039 183.876 60.129 179.715 65.744 166.625"/><polygon class="cls-12" points="83.355 173.142 86.467 173.457 90.211 180.087 95.262 174.45 98.329 174.81 96.818 189.017 94.134 188.679 95.194 178.464 90.03 184.011 89.421 183.988 85.599 177.415 84.517 187.597 81.743 187.292 83.355 173.142"/><path class="cls-12" d="M106.763,174.224l2.57,14.117s5.728-1.038,7.622-1.4,3.969-2.053,3.609-4.33a3.5,3.5,0,0,0-2.887-3.315,2.947,2.947,0,0,0,1.195-3.563c-.721-2.548-3.022-3.022-5.7-2.593S106.763,174.224,106.763,174.224Z"/><polygon class="cls-12" points="126.291 169.601 135.898 165.001 137.025 167.437 129.832 170.842 131.252 173.773 138.153 170.481 139.258 172.713 132.312 176.028 133.688 178.96 140.859 175.487 142.031 177.877 132.357 182.523 126.291 169.601"/><path class="cls-12" d="M142.9,160.536s4.329-3.653,5.479-4.634a4.721,4.721,0,0,1,6.8.744,4.14,4.14,0,0,1,0,5.548l6.7.947-2.571,2.131-6.258-.88-1.928,1.691,3.078,3.586-2.1,1.827Z"/><path class="cls-13" d="M168.555,31.389A96.951,96.951,0,0,0,31.445,168.5,96.951,96.951,0,0,0,168.555,31.389Zm-136.208.9A95.712,95.712,0,0,1,194.026,82.11L165.642,97.256a65.7,65.7,0,0,0-131.292.191L5.94,82.28A95,95,0,0,1,32.347,32.29ZM101.14,64.424l34.222-18.31a64.438,64.438,0,0,1,29.026,51.81l-.3.161Zm61.593,34.384L99.8,132.4,36.892,98.8l62.9-33.657ZM99.787,63.7,65.667,45.455a64.3,64.3,0,0,1,68.457-.132Zm-1.356.727L35.608,98.043a64.43,64.43,0,0,1,28.835-51.8Zm.008,68.7L62.5,152.3A64.38,64.38,0,0,1,35.578,99.944v-.4Zm1.357.722L136.14,153.25a64.3,64.3,0,0,1-72.467-.132Zm1.356-.722L164.09,99.531l.332.179v.234a64.386,64.386,0,0,1-27.109,52.485ZM4.324,99.944A96.943,96.943,0,0,1,5.706,83.6L34.184,98.8,5.375,114.223A96.9,96.9,0,0,1,4.324,99.944ZM167.653,167.6A95.706,95.706,0,0,1,5.583,115.558L34.3,100.19a65.7,65.7,0,0,0,131.39.2l28.694,15.342A94.961,94.961,0,0,1,167.653,167.6ZM165.689,98.94c0-.089,0-.174,0-.259l28.584-15.253A97.445,97.445,0,0,1,194.6,114.4Z"/><path class="cls-1" d="M109.861,176.2l.577,3.254s2.729-.5,4.262-.767,1.858-1.291,1.63-1.967-.863-1.43-2.529-1.167S109.861,176.2,109.861,176.2Z"/><path class="cls-1" d="M110.867,181.8l.631,3.518s3.383-.564,4.6-.812,1.88-1.105,1.713-1.984c-.155-.823-1.172-1.714-3.1-1.41S110.867,181.8,110.867,181.8Z"/><path class="cls-1" d="M146.6,160.773l2.976,3.433s2.2-1.979,3.366-2.971a2.246,2.246,0,0,0-3.044-3.281C148.357,159.206,146.6,160.773,146.6,160.773Z"/></g></g></svg>