<svg xmlns="http://www.w3.org/2000/svg" width="40" height="23.185" viewBox="0 0 40 23.185"><defs><style>.a{fill:#69737f;}</style></defs><path class="a" d="M20.044,0H36.49A3.245,3.245,0,0,1,40,3.515Q40,11.579,40,19.643a3.248,3.248,0,0,1-3.512,3.518h-33A3.24,3.24,0,0,1,.007,19.716q-.014-8.144,0-16.287A3.229,3.229,0,0,1,3.49,0Q11.767-.006,20.044,0ZM20,.615C14.431.615,8.862.645,3.294.6A2.752,2.752,0,0,0,.6,3.278c.03,5.533.011,11.067.014,16.6a2.607,2.607,0,0,0,2.682,2.689q16.706,0,33.413,0a2.61,2.61,0,0,0,2.683-2.688c0-5.533-.017-11.067.014-16.6a2.767,2.767,0,0,0-2.7-2.684C31.138.646,25.569.615,20,.615Z" transform="translate(0 0.015)"/><path class="a" d="M18.942,15.251c-.391,1.222-.733,2.314-1.09,3.4-.153.466-.215,1.083-.545,1.336-.308.236-.916.087-1.393.1-1.718.041-3.436.07-5.154.122a1.034,1.034,0,0,1-.869-.385c-.876-.952-1.779-1.879-2.684-2.8a.609.609,0,0,1-.176-.7c.639-2.115,1.244-4.24,1.885-6.354a.864.864,0,0,1,.452-.5c1.423-.535,2.858-1.038,4.293-1.541a2.1,2.1,0,0,1,.668-.139c2.2-.01,4.4-.007,6.6,0,.1,0,.207.02.406.04l-1.542,4.243L14.544,8.632,11.537,19.157Z" transform="translate(-2.362 -2.623)"/><path class="a" d="M25.573,20.277V19.208c.825.2.894-.4,1.072-.944,1-3.04,2.016-6.072,3.025-9.108.076-.228.134-.462.211-.732l-.656-.07V7.317h6.6V8.388c-.911-.256-.976.443-1.167,1.019q-1.534,4.629-3.074,9.256c-.05.15-.095.3-.157.5l.782.061v1.053Z" transform="translate(-8.646 -2.464)"/><path class="a" d="M37.956,20.3V19.221a2.338,2.338,0,0,0,.527-.037.529.529,0,0,0,.33-.247c1.172-3.484,2.331-6.973,3.505-10.5l-.713-.1V7.3h6.627V8.372c-.911-.228-.973.453-1.167,1.041-1.008,3.057-2.033,6.108-3.05,9.162-.061.182-.105.369-.166.587l.75.059a6.332,6.332,0,0,1-.012.813c-.013.1-.163.252-.251.252C42.228,20.3,40.12,20.3,37.956,20.3Z" transform="translate(-12.833 -2.458)"/></svg>