<svg id="Layer_1" data-name="Layer 1" xmlns="http://www.w3.org/2000/svg" viewBox="0 0 2734.22 677.39"><defs><style>.cls-1{fill:#fff;}</style></defs><title>CodeClouds</title><path class="cls-1" d="M312.94,57.24S245.36,79.59,201.44,146s-45.86,136.35-37.28,171.69c9,37.09,34.71,87.34,99.71,102.54,19.38,4.53,53.66,4.68,83-12.69,28.61-17,36.32-39,67-51.92,21.78-9.2,51.12-15.11,90.47,1,0,0-26.5,96.47-130.16,136.34S158.88,494.57,104,416.62c-28.87-41-44.28-86.6-44.08-136A227.69,227.69,0,0,1,104,147.26C161.39,69.7,243.4,51.43,312.94,57.24Z"/><path class="cls-1" d="M359.64,165.73a166.87,166.87,0,0,1,15.1,13.89c6.16,6.66,21,26,50.88,35.71,22.7,7.33,50.74,7.06,71.5-.74,0,0-15.55-32.27-50-48.06S376.9,157.66,359.64,165.73Z"/><path class="cls-1" d="M330.66,398.93s-59.45-40.16-55.59-126.72c2.09-46.78,29.05-90.71,62.16-111.61a123.12,123.12,0,0,1,67.63-18.44c50.38,1.3,84,28,106.11,66.49,0,0,44.34-19.72,43.2-66.74-.43-17.33-11.13-39.48-34.88-55.4C497.89,72.17,457.88,58,414.54,56.32,373,54.71,327.14,61,277.23,92.22c-25.57,16-49,39.45-66.79,67.42a226.41,226.41,0,0,0-35.65,121.53c0,25.84,7.82,56.36,24.9,79.64C248.36,427.16,320.17,405.46,330.66,398.93Z"/><path class="cls-1" d="M378.85,507.29s73.75,10.81,138-27.75c32.4-19.44,37.35-55,32.39-72.93-2.81-10.2-11.24-29.84-31.6-42.48,0,0-13.41,40.86-40.48,72.28S421.36,490.48,378.85,507.29Z"/><path class="cls-1" d="M1428.79,556.66c9.71,9.21,23.52,16,36,16,6.58,0,12.83-1.8,16.94-5.09a19.1,19.1,0,0,0,6.91-15c0-11.51-9.87-16-23.36-21.88-15.29-6.74-28-13.32-28-30.92A33.9,33.9,0,0,1,1449,473.93c7.24-6.25,16.78-9.7,27.8-9.7a61.84,61.84,0,0,1,34.54,11l-3,16.61c-9.38-7.73-21.55-13.16-32.9-13.16-5.92,0-11.68,1.48-16,4.93a17.88,17.88,0,0,0-6.58,14.15c0,11.18,9.37,14.64,23.35,21.05,16,7.24,28,13.82,28,31.58a35.24,35.24,0,0,1-13.82,28.46c-7.24,5.42-16.45,8-26.65,8a61.87,61.87,0,0,1-38-13.15Z"/><path class="cls-1" d="M1531.59,504.19h14.8l-14.31,80.93h-14.8ZM1544.42,466a9.83,9.83,0,0,1,10,9.86,11,11,0,0,1-11.19,10.86,9.69,9.69,0,0,1-9.86-9.87A10.87,10.87,0,0,1,1544.42,466Z"/><path class="cls-1" d="M1569.25,504.19h14.81l-1.81,10,.32.16c7.41-6.41,17.44-12,28.3-12,10.69,0,19.07,5.43,22.2,14.64,11.18-9.7,22-14.64,32.57-14.64,14.3,0,24,9.05,24,23.69a67.66,67.66,0,0,1-1.32,11.68l-8.39,47.37h-14.8l8.23-46.39a55.25,55.25,0,0,0,1.15-9.54c0-7.89-4.12-13-13.16-13s-18.09,5.1-27,13.16a81.82,81.82,0,0,1-1.15,8.39l-8.39,47.37H1610l8.23-46.39a55.25,55.25,0,0,0,1.15-9.54c0-7.89-4.11-13-13.16-13-9.21,0-17.93,5.26-26.65,13l-9.86,55.93h-14.81Z"/><path class="cls-1" d="M1728,509.13a34.12,34.12,0,0,1,20.4-6.75c18.91,0,32.89,14.64,32.89,36.52,0,12.5-4.6,25.66-13.32,34.7-8.22,8.55-19.9,13.32-33.39,13.32a50.43,50.43,0,0,1-19.74-3.78l-.32.17-6.75,38h-14.8l20.72-117.11h14.81l-.83,4.77Zm-11,60.52a43.53,43.53,0,0,0,18.59,4.28,28.67,28.67,0,0,0,22-9.54c5.92-6.58,8.88-15.79,8.88-24.51,0-15.13-8.55-24.17-21-24.17a34.07,34.07,0,0,0-20.23,7.23Z"/><path class="cls-1" d="M1813.34,459.46h14.8l-22.2,125.66h-14.81Z"/><path class="cls-1" d="M1824.36,621.3l30.09-45.4-21.21-71.71h16l8.22,28.46c2.63,9,5.27,18.58,7.41,27.14h.32c5.43-8.89,11.19-18.26,17.11-27.47l17.93-28.13h16.12L1841,621.3Z"/><path class="cls-1" d="M1978.14,466h32.07c13.82,0,22.87,2.3,29.28,6.74a25.39,25.39,0,0,1,11,21.54c0,13-8.06,24.51-23,29.45v.33c10.69,3.61,18.26,12.33,18.26,24.67a34.4,34.4,0,0,1-13.32,26.64c-7.9,6.09-18.92,9.71-35.69,9.71h-39.64ZM1999.69,571c11.18,0,18.75-2.14,23.85-6.74a20.6,20.6,0,0,0,6.57-15.3c0-11.84-9.7-18.91-25.33-18.91h-22.36l-7.24,41Zm10-53c12,0,25.16-5.59,25.16-20.07,0-5.75-2.13-10.19-6.58-13.32-4.11-3-9.86-4.44-19.73-4.44H1991.3L1984.55,518Z"/><path class="cls-1" d="M2070.9,504.19h14.81L2083.24,518l.33.16c6.91-8.71,19.41-14.63,29.77-14.63a25.51,25.51,0,0,1,5.1.49L2116,518.34A37.75,37.75,0,0,0,2111,518c-11.52,0-22.54,6.41-30.76,16.78l-8.88,50.33h-14.8Z"/><path class="cls-1" d="M2136.69,504.19h14.81l-14.31,80.93h-14.8ZM2149.52,466a9.83,9.83,0,0,1,10,9.86,11,11,0,0,1-11.19,10.86,9.7,9.7,0,0,1-9.87-9.87A10.88,10.88,0,0,1,2149.52,466Z"/><path class="cls-1" d="M2185.54,459.46h14.81l-22.21,125.66h-14.8Z"/><path class="cls-1" d="M2223.21,459.46H2238l-22.2,125.66H2201Z"/><path class="cls-1" d="M2256.27,504.19h14.8l-14.31,80.93H2242ZM2269.1,466a9.83,9.83,0,0,1,10,9.86,11,11,0,0,1-11.19,10.86,9.69,9.69,0,0,1-9.86-9.87A10.87,10.87,0,0,1,2269.1,466Z"/><path class="cls-1" d="M2352.49,585.12h-14.81L2339,578l-.33-.16c-5.76,4.77-13.16,9-23,9-17.6,0-31.41-13.65-31.41-34.7,0-12.17,4.6-26,14.31-36,9.54-9.87,22-13.82,33.88-13.82s22.86,4.12,33.06,8.89Zm-3.29-65.3a44,44,0,0,0-18.26-4.28,28.83,28.83,0,0,0-22.7,10.2,39.47,39.47,0,0,0-9.21,25.33c0,14.64,8.72,22.86,19.57,22.86,8.06,0,16.29-4.44,23.19-11.68Z"/><path class="cls-1" d="M2389.66,504.19h14.8l-1.81,9.87.33.17c8.22-6.58,18.09-11.85,29.11-11.85,14.31,0,24.18,9.21,24.18,24.84a60.63,60.63,0,0,1-1.32,11.35l-8.22,46.55h-14.8l8.05-45.56a54.48,54.48,0,0,0,1.16-9.71c0-8.22-3.79-13.65-13-13.65-9.37,0-19.4,5.76-28.12,12.66l-9.87,56.26h-14.8Z"/><path class="cls-1" d="M2510.71,585.77a39.36,39.36,0,0,1-9.37,1.15c-13.49,0-24.68-7.07-24.68-22.86a68.32,68.32,0,0,1,1.16-11.51l6.24-35h-14.63l2.3-13.33h14.8l3.95-22.86,15-.82-4.11,23.68h23.84l-2.3,13.33h-24l-6.09,34.54a62.45,62.45,0,0,0-1.15,9.86c0,7.08,3.78,11.52,12.17,11.52a34.05,34.05,0,0,0,9.38-1.48Z"/><path class="cls-1" d="M2539.66,566.2a9.83,9.83,0,0,1,10,9.87,11,11,0,0,1-11.18,10.85,9.69,9.69,0,0,1-9.87-9.86A10.88,10.88,0,0,1,2539.66,566.2ZM2550,466h17.1l-18.58,82.56h-9.21Z"/><path class="cls-1" d="M640,282.52c0-69.28,48.21-111.78,103.81-111.78,26.36,0,51.75,7.86,67.82,21.43v49.28c-15.43-14.64-36-25-59.14-25-32.46,0-57.21,23.22-57.21,66.07,0,42.49,24.75,66.06,57.21,66.06,23.14,0,43.71-10.35,59.14-25v49.28c-16.07,13.57-41.46,21.42-67.82,21.42C688.21,394.29,640,351.8,640,282.52Z"/><path class="cls-1" d="M828.67,282.52c0-65.71,47.88-113.21,107-113.21,58.82,0,106.39,47.5,106.39,113.21s-47.57,113.2-106.39,113.2C876.55,395.72,828.67,348.23,828.67,282.52Zm158.13,0c0-41.07-19-67.85-51.11-67.85-32.46,0-51.74,26.78-51.74,67.85s19.28,67.85,51.74,67.85C967.83,350.37,986.8,323.59,986.8,282.52Z"/><path class="cls-1" d="M1068.43,175.39h75.21c79.38,0,111.84,48.21,111.84,107.13S1223,389.65,1143.64,389.65h-75.21Zm71,169.62c43.39,0,63-19.64,63-62.49s-19.6-62.5-63-62.5h-19V345Z"/><path class="cls-1" d="M1281.52,175.39h134V219h-82V255h65.88v43.21h-65.88v47.85h82v43.57h-134Z"/><path class="cls-1" d="M1425.83,282.52c0-69.28,48.21-111.78,103.81-111.78,26.36,0,51.75,7.86,67.82,21.43v49.28c-15.43-14.64-36-25-59.14-25-32.46,0-57.21,23.22-57.21,66.07,0,42.49,24.75,66.06,57.21,66.06,23.14,0,43.71-10.35,59.14-25v49.28c-16.07,13.57-41.46,21.42-67.82,21.42C1474,394.29,1425.83,351.8,1425.83,282.52Z"/><path class="cls-1" d="M1629,175.39H1681V346.08h82v43.57H1629Z"/><path class="cls-1" d="M1766.84,282.52c0-65.71,47.89-113.21,107-113.21,58.82,0,106.39,47.5,106.39,113.21s-47.57,113.2-106.39,113.2C1814.73,395.72,1766.84,348.23,1766.84,282.52Zm158.13,0c0-41.07-19-67.85-51.11-67.85-32.46,0-51.74,26.78-51.74,67.85s19.28,67.85,51.74,67.85C1906,350.37,1925,323.59,1925,282.52Z"/><path class="cls-1" d="M2004.35,290.73V175.39h52.71V287.52c0,37.85,13.5,58.21,41.14,58.21,28,0,41.46-20.36,41.46-58.21V175.39h51.1V290.73c0,72.5-41.14,105-93.2,105C2045.81,395.72,2004.35,363.23,2004.35,290.73Z"/><path class="cls-1" d="M2220.33,175.39h75.21c79.38,0,111.85,48.21,111.85,107.13s-32.47,107.13-111.85,107.13h-75.21Zm71,169.62c43.39,0,63-19.64,63-62.49s-19.61-62.5-63-62.5h-19V345Z"/><path class="cls-1" d="M2419,366.08l11.57-42.14c14.46,13.57,35.35,28.57,60.74,28.57,15.75,0,28-6.78,28-21.78,0-13.93-8.35-18.93-36-26.79-44-11.42-59.14-37.49-59.14-69.27,0-38.93,27.64-64.28,70.71-64.28a105.43,105.43,0,0,1,63.31,21.78l-10.6,38.57c-14.47-10-34.71-18.57-53.36-18.57-13.82,0-22.49,6.43-22.49,17.14,0,10,5.78,15.71,27.64,21.78,48.21,12.5,67.81,35,67.81,73.57,0,50.35-36.64,69.28-75.85,69.28C2458.17,393.94,2434.06,380,2419,366.08Z"/><path class="cls-1" d="M2609.2,181.68V224.9h-14.41V181.68h-17.32V171h49.21v10.69ZM2685,224.9V195.44c0-1.3.16-5.51.16-5.83a52.72,52.72,0,0,1-1.78,5.83l-11.82,29.46h-9.22l-11.66-29.46a40.39,40.39,0,0,1-1.94-5.83c0,.32.16,4.53.16,5.83V224.9h-12.3V171h15.86l14.9,36.75L2681.88,171h15.71V224.9Z"/></svg>