<svg xmlns="http://www.w3.org/2000/svg" width="40" height="34.059" viewBox="0 0 40 34.059"><defs><style>.a{fill:#6b7280;}</style></defs><g transform="translate(0 -0.066)"><g transform="translate(0 0.066)"><path class="a" d="M37.612,24.294H2.4a2.4,2.4,0,0,0-2.4,2.4V31.73a2.4,2.4,0,0,0,2.4,2.395H37.626A2.387,2.387,0,0,0,40,31.724V26.681A2.388,2.388,0,0,0,37.612,24.294Zm-16.439.887h.443l2.029,2.969h.01V25.181h.354v3.487h-.443l-2.029-3h-.01v3h-.354ZM19.24,27.333h1.233v.28H19.24Zm-4.991,0h1.233v.28H14.249ZM7.5,33.169l-.965-1.63H5.948v1.63H5.594V29.681H6.618a2.169,2.169,0,0,1,.476.05,1.081,1.081,0,0,1,.379.16.752.752,0,0,1,.249.287.965.965,0,0,1,.089.434.856.856,0,0,1-.257.623.872.872,0,0,1-.28.184,1.176,1.176,0,0,1-.354.089l1.02,1.66Zm3.26,0H8.544V29.681h2.162V30H8.9v1.2h1.69v.315H8.9v1.346h1.867Zm.03-7.987h1.158a2.085,2.085,0,0,1,.652.108,1.8,1.8,0,0,1,.592.328,1.658,1.658,0,0,1,.426.546,1.872,1.872,0,0,1,0,1.525,1.684,1.684,0,0,1-.426.544,1.778,1.778,0,0,1-.592.327,2.055,2.055,0,0,1-.652.109H10.795Zm3.6,7.735a2.242,2.242,0,0,1-.615.257,2.732,2.732,0,0,1-.685.084,1.89,1.89,0,0,1-.729-.137,1.728,1.728,0,0,1-.577-.382,1.768,1.768,0,0,1-.377-.579,1.952,1.952,0,0,1-.135-.734,1.911,1.911,0,0,1,.139-.735,1.722,1.722,0,0,1,.382-.578,1.758,1.758,0,0,1,.576-.382,1.864,1.864,0,0,1,.722-.139,1.96,1.96,0,0,1,.729.125,1.572,1.572,0,0,1,.531.349l-.246.245a1.274,1.274,0,0,0-.434-.3,1.471,1.471,0,0,0-.576-.106,1.431,1.431,0,0,0-.6.123,1.375,1.375,0,0,0-.456.332,1.476,1.476,0,0,0-.287.485,1.716,1.716,0,0,0,0,1.161,1.438,1.438,0,0,0,.287.481,1.37,1.37,0,0,0,.456.329,1.413,1.413,0,0,0,.6.124,2.134,2.134,0,0,0,.542-.065,1.339,1.339,0,0,0,.4-.162V31.657h-.812v-.316h1.167Zm1.26.252H15.3V29.681h.354Zm2.841-.466a.961.961,0,0,1-.259.313,1.082,1.082,0,0,1-.363.182,1.463,1.463,0,0,1-.411.059,1.567,1.567,0,0,1-.316-.032,1.4,1.4,0,0,1-.3-.1,1.216,1.216,0,0,1-.267-.162,1.163,1.163,0,0,1-.216-.226l.3-.227a.944.944,0,0,0,.318.313.906.906,0,0,0,.48.125.918.918,0,0,0,.271-.042.759.759,0,0,0,.249-.127.714.714,0,0,0,.182-.212.657.657,0,0,0,0-.6.631.631,0,0,0-.19-.2,1.2,1.2,0,0,0-.27-.135c-.1-.036-.209-.072-.32-.108s-.228-.077-.34-.124a1.124,1.124,0,0,1-.3-.179.84.84,0,0,1-.215-.274,1,1,0,0,1,.02-.832.9.9,0,0,1,.263-.3,1.094,1.094,0,0,1,.359-.173,1.458,1.458,0,0,1,.389-.055,1.335,1.335,0,0,1,.605.126,1.026,1.026,0,0,1,.379.3l-.28.227a.852.852,0,0,0-.291-.254.893.893,0,0,0-.428-.1.921.921,0,0,0-.261.039.763.763,0,0,0-.241.122.615.615,0,0,0-.176.2.6.6,0,0,0-.066.291.545.545,0,0,0,.064.276.621.621,0,0,0,.169.184.987.987,0,0,0,.241.126c.091.033.184.066.283.1.122.039.243.082.366.127a1.294,1.294,0,0,1,.332.181.848.848,0,0,1,.241.28.885.885,0,0,1,.093.43A.961.961,0,0,1,18.493,32.7Zm.2-5.335a2.051,2.051,0,0,1-.057.46,1.247,1.247,0,0,1-.2.451,1.143,1.143,0,0,1-.4.342,1.59,1.59,0,0,1-1.288,0,1.149,1.149,0,0,1-.4-.342,1.266,1.266,0,0,1-.2-.451,2.051,2.051,0,0,1-.057-.46V25.181h.355v2.147a1.7,1.7,0,0,0,.049.411,1.029,1.029,0,0,0,.16.354.824.824,0,0,0,.293.252,1.1,1.1,0,0,0,.9,0,.815.815,0,0,0,.293-.252.988.988,0,0,0,.16-.354,1.7,1.7,0,0,0,.05-.411V25.181h.354ZM21.552,30H20.384v3.172H20.03V30H18.863v-.316h2.689ZM24.3,33.169H22.074V29.681h2.162V30H22.428v1.2h1.69v.315h-1.69v1.346H24.3Zm.433-5.836h1.233v.28H24.728ZM26.9,33.169l-.966-1.63h-.59v1.63H24.99V29.681h1.024a2.152,2.152,0,0,1,.475.05,1.072,1.072,0,0,1,.379.16.752.752,0,0,1,.249.287.965.965,0,0,1,.089.434.87.87,0,0,1-.068.35.861.861,0,0,1-.468.458,1.192,1.192,0,0,1-.355.089l1.02,1.66Zm.578-4.412a1.653,1.653,0,0,1-.316-.032,1.4,1.4,0,0,1-.3-.1,1.216,1.216,0,0,1-.267-.162,1.138,1.138,0,0,1-.216-.227l.3-.226a.931.931,0,0,0,.318.312.9.9,0,0,0,.48.126.918.918,0,0,0,.271-.042A.761.761,0,0,0,28,28.281a.709.709,0,0,0,.182-.211.657.657,0,0,0,0-.6.631.631,0,0,0-.19-.2,1.157,1.157,0,0,0-.27-.135q-.153-.055-.32-.109c-.116-.035-.228-.077-.34-.123a1.125,1.125,0,0,1-.3-.179.852.852,0,0,1-.215-.274.885.885,0,0,1-.081-.4.872.872,0,0,1,.1-.434.91.91,0,0,1,.263-.3,1.117,1.117,0,0,1,.359-.173,1.5,1.5,0,0,1,.389-.053,1.35,1.35,0,0,1,.605.125,1.04,1.04,0,0,1,.379.3l-.28.226A.848.848,0,0,0,28,25.489a.893.893,0,0,0-.428-.1.924.924,0,0,0-.261.04.761.761,0,0,0-.241.12.638.638,0,0,0-.176.2.607.607,0,0,0-.066.291.539.539,0,0,0,.064.276.611.611,0,0,0,.169.185.984.984,0,0,0,.241.125c.091.033.184.066.283.1.122.04.243.082.366.128a1.292,1.292,0,0,1,.332.179.86.86,0,0,1,.241.28.89.89,0,0,1,.093.432.919.919,0,0,1-.358.763,1.064,1.064,0,0,1-.363.183,1.463,1.463,0,0,1-.411.059Zm2.682,4.412H27.94V29.681H30.1V30H28.295v1.2h1.69v.315h-1.69v1.346h1.867ZM30.6,26.4a.867.867,0,0,1-.466.458.878.878,0,0,1-1.144-.458.837.837,0,0,1-.068-.337.854.854,0,0,1,.257-.614.9.9,0,0,1,.277-.186.864.864,0,0,1,.678,0,.906.906,0,0,1,.278.186.854.854,0,0,1,.187.276.832.832,0,0,1,.069.338.819.819,0,0,1-.069.337Zm3.081,5.789a1.645,1.645,0,0,1-.426.544,1.807,1.807,0,0,1-.59.328,2.092,2.092,0,0,1-.653.108H30.856V29.681h1.157a2.061,2.061,0,0,1,.653.109,1.784,1.784,0,0,1,.59.327,1.646,1.646,0,0,1,.426.547,1.869,1.869,0,0,1,0,1.524Zm.989-2.288h-.3v.812h-.136V29.9h-.308v-.123h.745Zm1.2.812h-.136v-.785h0l-.316.785h-.087l-.316-.785h0v.785h-.136v-.935h.211l.292.717.293-.717h.2ZM13.314,27.451a1.3,1.3,0,0,1-.288.456,1.438,1.438,0,0,1-.485.323,1.772,1.772,0,0,1-.687.123h-.7V25.5h.7a1.771,1.771,0,0,1,.687.124,1.421,1.421,0,0,1,.485.322,1.31,1.31,0,0,1,.288.455,1.486,1.486,0,0,1,0,1.054Zm12.03,3.783V29.987h.63a1.683,1.683,0,0,1,.36.035.82.82,0,0,1,.276.108.532.532,0,0,1,.177.192.611.611,0,0,1,.064.291.523.523,0,0,1-.232.466,1.181,1.181,0,0,1-.66.156ZM13.411,26.924a1.5,1.5,0,0,1-.1.527,1.3,1.3,0,0,1-.288.456,1.438,1.438,0,0,1-.485.322,1.771,1.771,0,0,1-.687.123h-.7V25.5h.7a1.771,1.771,0,0,1,.687.124,1.421,1.421,0,0,1,.485.322,1.31,1.31,0,0,1,.288.455A1.5,1.5,0,0,1,13.411,26.924ZM5.948,31.234V29.987h.631a1.672,1.672,0,0,1,.359.035.81.81,0,0,1,.276.108.513.513,0,0,1,.177.192.6.6,0,0,1,.065.291.523.523,0,0,1-.232.466,1.183,1.183,0,0,1-.66.156Zm1.508-.621a.523.523,0,0,1-.232.466,1.183,1.183,0,0,1-.66.156H5.948V29.987h.631a1.672,1.672,0,0,1,.359.035.81.81,0,0,1,.276.108.513.513,0,0,1,.177.192A.6.6,0,0,1,7.456,30.613Zm17.888.621V29.987h.63a1.683,1.683,0,0,1,.36.035.82.82,0,0,1,.276.108.532.532,0,0,1,.177.192.611.611,0,0,1,.064.291.523.523,0,0,1-.232.466,1.181,1.181,0,0,1-.66.156Zm1.507-.621a.523.523,0,0,1-.232.466,1.181,1.181,0,0,1-.66.156h-.615V29.987h.63a1.683,1.683,0,0,1,.36.035.82.82,0,0,1,.276.108.532.532,0,0,1,.177.192.611.611,0,0,1,.064.291Zm6.62.813a1.477,1.477,0,0,1-.1.527,1.31,1.31,0,0,1-.288.455,1.421,1.421,0,0,1-.485.322,1.772,1.772,0,0,1-.687.124h-.7V30h.7a1.771,1.771,0,0,1,.687.123,1.438,1.438,0,0,1,.485.323,1.315,1.315,0,0,1,.288.456A1.472,1.472,0,0,1,33.472,31.426Zm-3-5.651a.736.736,0,0,0-.391-.391.755.755,0,0,0-.575,0,.737.737,0,0,0-.234,1.2.7.7,0,0,0,.234.159.733.733,0,0,0,.809-.159.761.761,0,0,0,.157-.235.708.708,0,0,0,.057-.284.717.717,0,0,0-.057-.287Zm-.487.774-.229-.41h-.126v.41h-.177v-.981H29.8a.577.577,0,0,1,.134.016.359.359,0,0,1,.117.049.28.28,0,0,1,.083.089.269.269,0,0,1,.031.134.251.251,0,0,1-.061.175.314.314,0,0,1-.166.09l.265.429Zm0-.7a.114.114,0,0,1-.068.117.378.378,0,0,1-.146.028h-.141v-.279h.16a.351.351,0,0,1,.133.026.1.1,0,0,1,.062.108ZM15.956,10.079,26.449,21.025l-1.062,1.062-1.708-1.708-1.8,1.708a3.915,3.915,0,0,1-4,.7,4.212,4.212,0,0,1-2.2-2.061,3.728,3.728,0,0,1-.136-2.989,4.53,4.53,0,0,1,1.072-1.591L17.657,15.1l1.089,1.106L17.63,17.322a2.584,2.584,0,0,0-.747,1.383,2.275,2.275,0,0,0,.682,2.065,2.429,2.429,0,0,0,3.3.2c.192-.178,1.736-1.736,1.736-1.736L15.956,12.3Zm9.174,5.236a2.683,2.683,0,0,0-1.558-1.92V11.832a3.86,3.86,0,0,1,1.857.99,3.981,3.981,0,0,1,1.214,3.292,4.291,4.291,0,0,1-1.254,2.558l-1.107-1.107A2.518,2.518,0,0,0,25.131,15.315Zm-4.6-3.016a2.056,2.056,0,0,0,.556-.995,1.65,1.65,0,0,0-.482-1.6,1.811,1.811,0,0,0-1.624-.542,1.986,1.986,0,0,0-1.083.578l-.616.616L16.172,9.252l.785-.711a3.784,3.784,0,0,1,1.384-.814,3.38,3.38,0,0,1,3.214.683,2.507,2.507,0,0,1,.337.342,3.249,3.249,0,0,1,.711,2.992,3.754,3.754,0,0,1-1.123,1.782l-.6.552-1.061-1.061Zm16.879,4.807a17,17,0,0,1-.981,5.711H34.132a14.9,14.9,0,1,0-27.512,0H4.3a17.045,17.045,0,1,1,33.106-5.711ZM9.493,20.2a1.668,1.668,0,0,0-.289-.581,1.156,1.156,0,0,0-1.241-.44,1.2,1.2,0,0,0-.915.765,1.419,1.419,0,0,0-.019.749l.292,1.039,2.415-.677Zm-1.869.972-.189-.632a.81.81,0,0,1,.012-.455.765.765,0,0,1,.593-.464.773.773,0,0,1,.8.267.93.93,0,0,1,.115.173,1.063,1.063,0,0,1,.073.181l.147.491Zm-1.079-5.31H8.233A.852.852,0,0,1,8.706,16a1.039,1.039,0,0,1,.473.935.951.951,0,0,1-.979.992H6.507v-.479H8.2a.491.491,0,0,0,.5-.553.524.524,0,0,0-.5-.58H6.546Zm.283-1.751.2-.606,2.1-.567-1.772-.58.176-.469,2.437.84-.2.521s-2.183.58-2.2.6,1.83.56,1.83.56l-.139.456Zm5.264-5.446a2.354,2.354,0,0,0-.226-.844l-.333.334a.959.959,0,0,1,.14.506l-.564,0s.06-.654-.286-.869a.649.649,0,0,0-.854.217.606.606,0,0,0,.065.932,1.047,1.047,0,0,0,.56.15s-.306,1.006.69,1.067c0,0,.873.046.847-1.081h.385l.371-.417Zm-1.372,0a.55.55,0,0,1-.469-.064.258.258,0,0,1-.066-.241A.329.329,0,0,1,10.5,8.11c.307-.009.217.557.217.557Zm.566,1.026c-.41,0-.312-.6-.312-.6h.714c0,.291.009.6-.4.6ZM16.38,5.864a.6.6,0,0,0-.684-.313.667.667,0,0,0,.117-.8c-.276-.472-.867-.208-.867-.208l-.964.423,1.042,2.32,1-.443a.69.69,0,0,0,.391-.893.7.7,0,0,0-.04-.084Zm-1.844-.7s.149-.074.487-.222a.353.353,0,0,1,.332,0,.341.341,0,0,1,.156.224.3.3,0,0,1-.05.25.355.355,0,0,1-.14.109l-.514.238Zm1.318,1.311-.6.258-.286-.626.522-.256a.341.341,0,0,1,.466.121l.01.018a.336.336,0,0,1-.089.466l-.029.017Zm2.865-1.424a.721.721,0,0,0,.422-.868c-.143-.619-.852-.512-.852-.512l-1.028.111.367,2.5.479-.055-.169-1.018s.242-.028.33-.042l.712.944.553-.065Zm-.142-.367a.679.679,0,0,1-.256.109l-.45.062-.108-.737.634-.072a.307.307,0,0,1,.325.287v.017a.338.338,0,0,1-.145.335ZM21.9,3.663l-.419-.052L20.111,6l.535.038.266-.517,1.076.117.127.577.547.064Zm-.8,1.475.521-.951.267,1.029Zm4.841-.032a1.22,1.22,0,0,0-.554-.486l-.97-.466L23.423,6.5l1.045.46a1.271,1.271,0,0,0,1.47-1.857Zm-.375,1.023a.855.855,0,0,1-1.2.35l-.359-.164.642-1.528.575.257a.8.8,0,0,1,.348.314.789.789,0,0,1-.009.772Zm2.388.465s-.541.079-.059.678a.932.932,0,0,1,.216.834.679.679,0,0,1-.374.456.837.837,0,0,1-.812-.065.942.942,0,0,1-.534-.928h.417c-.033.44.469.791.736.576l.013-.01a.331.331,0,0,0,.045-.466l-.267-.4a.708.708,0,0,1,.182-.981.91.91,0,0,1,1.269.351,1.157,1.157,0,0,1,.147.437l-.445.046c-.112-.583-.535-.526-.535-.526ZM30.225,8.7l-.479-.616.322-.264,1.26,1.554L31,9.64l-.488-.586-1.652,1.329-.293-.362Zm2.362,3.133a1.119,1.119,0,0,0-.12-.371l-.384-.847-2.317,1.066.2.454.977-.454.132.278-.738.977.239.528.777-1.09a.7.7,0,0,0,.865.177.657.657,0,0,0,.363-.717Zm-.6.36c-.3.136-.469-.224-.469-.224l-.221-.454.612-.284.245.513a.342.342,0,0,1-.166.45Zm1.334,1.6.293,1.614-.436.09-.22-1.187-.566.1.222,1.158-.432.082L31.963,14.5l-.633.127.224,1.228-.44.081-.3-1.671Zm.393,3.279-.049,1.669-.438-.015.032-1.206-.567-.026-.045,1.147-.435-.019.044-1.147L31.6,17.43l-.071,1.243-.423-.02.089-1.705Zm-.285,3.044-.6,1.935-.424-.127.218-.733-1.994-.635.136-.44,1.994.606.244-.743Z" transform="translate(0 -0.066)"/></g></g></svg>