<svg xmlns="http://www.w3.org/2000/svg" viewBox="0 0 95.217 14.002">
  <title>five-star</title>
  <g>
    <path d="M7.357,11.611,2.811,14,3.68,8.935,0,5.348l5.086-.739L7.36,0,9.631,4.611l5.086.739-3.68,3.587L11.906,14Z" fill="#00c0ff"/>
    <path d="M27.482,11.611,22.936,14l.869-5.065-3.68-3.587,5.086-.739L27.485,0l2.271,4.611,5.086.739-3.68,3.587L32.031,14Z" fill="#00c0ff"/>
    <path d="M47.607,11.611,43.061,14l.869-5.065L40.25,5.348l5.086-.739L47.61,0l2.271,4.611,5.086.739-3.68,3.587L52.156,14Z" fill="#00c0ff"/>
    <path d="M67.732,11.611,63.186,14l.869-5.065-3.68-3.587,5.086-.739L67.735,0l2.271,4.611,5.086.739-3.68,3.587L72.281,14Z" fill="#00c0ff"/>
    <path d="M87.857,11.611,83.311,14l.869-5.065L80.5,5.348l5.086-.739L87.86,0l2.271,4.611,5.086.739-3.68,3.587L92.406,14Z" fill="#00c0ff"/>
  </g>
</svg>
