<svg xmlns="http://www.w3.org/2000/svg" width="40" height="40" viewBox="0 0 40 40"><defs><style>.a{fill:#6b7280;}</style></defs><g transform="translate(-20.306 -20.229)"><path class="a" d="M40.295,60.229A20,20,0,1,1,60.306,40.256,20.011,20.011,0,0,1,40.295,60.229Zm.025-39.043A19.04,19.04,0,1,0,59.343,40.248,19.029,19.029,0,0,0,40.319,21.186Z" transform="translate(0 0)"/><path class="a" d="M56.8,43.8A12.99,12.99,0,1,1,43.824,30.808,12.978,12.978,0,0,1,56.8,43.8ZM43.81,31.213A12.54,12.54,0,1,0,56.347,43.76,12.527,12.527,0,0,0,43.81,31.213Z" transform="translate(-3.505 -3.526)"/><path class="a" d="M44.781,71.648c-.459.761-.933,1.5-1.375,2.256a.267.267,0,0,1-.355.155c-.5-.142-.457-.039-.471-.6-.011-.467-.03-.933-.039-1.4-.006-.332-.011-.664,0-1q-.206.7-.413,1.406c-.112.38-.229.759-.335,1.141-.037.135-.093.188-.24.149-.745-.2-.646-.048-.438-.738.285-.948.593-1.89.881-2.837.059-.2.142-.266.348-.2a5.493,5.493,0,0,0,.679.168c.156.029.2.108.209.261a20.212,20.212,0,0,1,.038,2.5c.224-.405.411-.759.611-1.1.216-.373.449-.737.667-1.109a.207.207,0,0,1,.264-.109c.26.067.521.133.783.192.125.028.159.095.137.213q-.322,1.721-.641,3.443c-.023.121-.077.171-.205.135-.157-.044-.315-.083-.475-.115s-.2-.12-.162-.275c.171-.8.335-1.592.5-2.388C44.763,71.742,44.772,71.695,44.781,71.648Z" transform="translate(-6.887 -16.576)"/><path class="a" d="M60.777,69.043c-.009.087.061.138.1.2.389.616.777,1.233,1.176,1.843.1.151.076.236-.077.315a2.458,2.458,0,0,0-.324.2c-.124.09-.2.077-.289-.06q-.91-1.47-1.833-2.933c-.073-.115-.07-.186.055-.254a1.9,1.9,0,0,0,.376-.238.54.54,0,0,1,.723-.018c.709.41,1.449.764,2.129,1.233-.32-.474-.635-.947-.933-1.431-.115-.187-.228-.375-.349-.558-.069-.1-.057-.166.052-.239.547-.367.543-.369.889.188.527.847,1.053,1.694,1.587,2.536.094.147.067.205-.064.317a.874.874,0,0,1-1.2.057c-.6-.4-1.273-.706-1.883-1.106C60.873,69.071,60.839,69.027,60.777,69.043Z" transform="translate(-13.059 -15.54)"/><path class="a" d="M65.931,34.481a2.136,2.136,0,0,1-1.154-.435,5.972,5.972,0,0,1-1.139-1.133c-.077-.095-.077-.155.018-.247q1.222-1.178,2.43-2.369c.131-.129.216-.131.351-.012a7.006,7.006,0,0,1,1.171,1.222,1.672,1.672,0,0,1-.059,2.119A2.216,2.216,0,0,1,65.931,34.481Zm1.142-1.975a1.4,1.4,0,0,0-.561-1.185c-.07-.063-.127-.035-.183.02q-.789.767-1.58,1.533a.127.127,0,0,0-.009.2,1.223,1.223,0,0,0,1.324.485A1.553,1.553,0,0,0,67.073,32.506Z" transform="translate(-14.425 -3.323)"/><path class="a" d="M34.776,69.64A2.32,2.32,0,0,1,36.4,67.511a1.833,1.833,0,0,1,2.179,2.226A2.124,2.124,0,0,1,36.873,71.4,1.881,1.881,0,0,1,34.776,69.64Zm.9.147a.786.786,0,0,0,1.144.766,1.788,1.788,0,0,0,.931-1.6.776.776,0,0,0-.992-.68A1.727,1.727,0,0,0,35.676,69.787Z" transform="translate(-4.823 -15.746)"/><path class="a" d="M41.186,25.2a.947.947,0,0,1,.944.517.958.958,0,0,1-.053,1.081c-.11.155-.091.216.086.273a.732.732,0,0,1,.347.271c.239.316.471.637.71.953.069.091.041.137-.053.172-.2.075-.4.149-.595.227-.121.047-.188-.025-.248-.107-.167-.229-.33-.459-.494-.689a.569.569,0,0,0-.787-.239c-.124.047-.143.107-.1.224.133.343.251.691.391,1.031.069.167.026.249-.14.293-.068.017-.133.049-.2.073-.413.151-.415.152-.566-.251-.367-.98-.73-1.961-1.1-2.939-.061-.159-.039-.24.117-.314a7.691,7.691,0,0,1,1.28-.507A1.529,1.529,0,0,1,41.186,25.2Zm-.234.739a1.268,1.268,0,0,0-.54.149.116.116,0,0,0-.071.169c.091.237.179.476.269.714a.12.12,0,0,0,.164.089,1.144,1.144,0,0,0,.53-.3.474.474,0,0,0,.079-.533A.418.418,0,0,0,40.952,25.936Z" transform="translate(-6.33 -1.656)"/><path class="a" d="M55.172,73.513c.045-.881.041-1.851.045-2.82,0-.167.049-.262.221-.3.247-.059.491-.135.735-.209a.2.2,0,0,1,.266.095q.993,1.519,2,3.031c.1.155.076.224-.1.256-.055.01-.109.032-.163.046-.659.171-.459.261-.851-.328-.247-.371-.241-.376-.66-.255-.143.041-.283.093-.429.122s-.2.123-.191.273c.015.2.017.409.027.614a.2.2,0,0,1-.164.233c-.185.047-.369.1-.551.156-.135.041-.183-.016-.181-.144C55.173,74.053,55.172,73.827,55.172,73.513Zm.817-2.445c0,.293,0,.574,0,.854,0,.644,0,.643.615.419.1-.037.14-.077.073-.182C56.447,71.8,56.22,71.434,55.989,71.068Z" transform="translate(-11.622 -16.645)"/><path class="a" d="M36.162,27.335a.115.115,0,0,1,.118.059c.092.134.183.27.273.4.073.109-.012.151-.083.2-.3.206-.606.418-.917.615-.133.085-.147.153-.058.285.31.465.305.468.767.159l.53-.353c.035-.023.074-.067.107-.064.258.025.262.293.4.434.083.083.033.147-.051.2-.289.191-.573.393-.865.579-.133.085-.155.164-.056.288.133.164.194.443.379.489s.357-.189.535-.3c.217-.133.427-.279.636-.424.089-.061.142-.049.21.037.361.466.363.464-.127.791-.465.311-.931.619-1.39.939-.147.1-.229.105-.336-.057-.623-.945-1.257-1.885-1.891-2.824-.077-.115-.116-.193.033-.291.558-.363,1.108-.737,1.662-1.106C36.085,27.373,36.13,27.353,36.162,27.335Z" transform="translate(-4.658 -2.368)"/><path class="a" d="M62.122,30.785a3.152,3.152,0,0,1-.337.537c-.045.051-.106-.005-.153-.034-.6-.369-1.207-.74-1.813-1.106-.117-.071-.133-.133-.059-.253q.9-1.454,1.784-2.917c.1-.169.184-.182.347-.079q.816.517,1.649,1.008c.137.081.155.15.068.283-.358.547-.191.492-.737.177-.227-.131-.45-.269-.67-.411-.1-.067-.163-.061-.237.051-.329.5-.333.5.182.811.194.117.385.238.581.353.091.054.119.116.051.206l-.011.018c-.276.493-.276.493-.761.2-.193-.119-.388-.235-.579-.356-.105-.067-.18-.056-.244.056-.088.154-.179.306-.279.452-.075.109-.051.171.058.236.341.2.677.413,1.014.621C62.035,30.672,62.1,30.7,62.122,30.785Z" transform="translate(-13.136 -2.213)"/><path class="a" d="M52.322,72.334A1.271,1.271,0,0,1,51.1,73.612a2.107,2.107,0,0,1-.359.038c-.174,0-.219.081-.209.237.019.3.027.608.047.911.01.154-.049.221-.2.221a3.3,3.3,0,0,0-.445.025c-.176.025-.244-.041-.251-.216-.023-.545-.055-1.088-.083-1.632l-.084-1.632c-.016-.3-.014-.311.279-.355a5.2,5.2,0,0,1,1.457-.073A1.141,1.141,0,0,1,52.322,72.334ZM50.746,71.8l-.195.027c-.1.013-.138.068-.13.174.018.231.022.464.035.7.014.255.06.292.313.26.042-.005.083-.015.125-.022a.59.59,0,0,0,.549-.631C51.41,71.974,51.182,71.794,50.746,71.8Z" transform="translate(-9.732 -16.961)"/><path class="a" d="M31.322,66.187a1.386,1.386,0,0,0,.7,1.119c.235.169.237.166.06.407-.27.368-.275.374-.645.081a2.581,2.581,0,0,1-.986-1.371,1.484,1.484,0,0,1,.055-.979,2.145,2.145,0,0,1,1.7-1.381,2.025,2.025,0,0,1,1.855.779,2.131,2.131,0,0,1,.371.541c.018.038.055.081.048.115-.052.27-.329.261-.5.387-.117.087-.151-.039-.2-.116s-.083-.149-.13-.219a1.208,1.208,0,0,0-2.121-.019A1.017,1.017,0,0,0,31.322,66.187Z" transform="translate(-3.364 -14.604)"/><path class="a" d="M30.567,32.513a2.391,2.391,0,0,1,1.272-1.839.136.136,0,0,1,.215.05c0,.006.009.011.012.017.089.145.235.282.254.435.025.2-.229.207-.35.309a1.186,1.186,0,0,0-.4,1.539,1.493,1.493,0,0,0,.785.683,1.026,1.026,0,0,0,1.1-.233,1.754,1.754,0,0,0,.444-.563c.061-.131.125-.161.259-.081.5.295.514.327.162.8a2.257,2.257,0,0,1-1.556,1.045A2.127,2.127,0,0,1,30.567,32.513Z" transform="translate(-3.42 -3.471)"/><path class="a" d="M55.457,26.771c-.325-.071-.652-.134-.974-.217-.184-.047-.265-.006-.3.191-.061.355-.151.705-.223,1.059-.029.147-.093.207-.249.162a3.623,3.623,0,0,0-.478-.1c-.161-.024-.189-.1-.157-.251.217-.981.427-1.964.639-2.947.031-.145.069-.289.1-.435.022-.119.073-.168.2-.139.65.143,1.3.281,1.952.418.141.029.183.1.15.24-.144.625-.025.531-.636.415-.243-.047-.486-.1-.725-.159-.133-.033-.2,0-.226.135a3.652,3.652,0,0,1-.1.456c-.051.163.019.212.164.239.285.054.567.121.851.181s.283.06.224.351c-.02.1-.045.193-.066.29C55.589,26.74,55.547,26.786,55.457,26.771Z" transform="translate(-10.92 -1.285)"/><path class="a" d="M66.147,65.016c-.181-.405-.348-.817-.547-1.213a.371.371,0,0,1,.088-.535A3.793,3.793,0,0,0,66,62.952c.159-.161.18-.157.251.066.172.547.359,1.089.5,1.643A1.766,1.766,0,0,0,67.4,65.67c.207.158.378.362.571.538.1.091.108.167.01.265-.125.125-.245.255-.359.39-.09.106-.162.1-.261.007-.3-.285-.6-.559-.9-.842a.7.7,0,0,0-.311-.17q-1.036-.276-2.07-.557c-.224-.061-.227-.071-.065-.245.135-.145.275-.285.4-.437a.244.244,0,0,1,.317-.073c.388.153.781.295,1.172.44.065.025.131.045.2.068Z" transform="translate(-14.533 -14.203)"/><path class="a" d="M45.821,24.753c-.189.023-.4.048-.611.071-.049.005-.119.025-.145,0-.178-.161-.1-.393-.142-.592-.031-.143.1-.144.2-.156l2-.249c.175-.021.351-.038.525-.068.145-.025.2.027.223.172.088.556.093.555-.459.627-.493.063-.5.064-.443.543.091.772.185,1.544.287,2.315.025.189,0,.3-.222.3a2.081,2.081,0,0,0-.421.053c-.169.037-.231-.033-.25-.191-.1-.829-.2-1.657-.3-2.484-.009-.071-.024-.14-.03-.21C46.017,24.769,45.955,24.725,45.821,24.753Z" transform="translate(-8.204 -1.175)"/><path class="a" d="M58.949,25.493c.2.083.429.164.646.267.115.055.027.153,0,.223-.25.639-.5,1.275-.759,1.913-.167.42-.341.838-.5,1.261-.059.157-.133.2-.284.121a2.7,2.7,0,0,0-.413-.165c-.18-.053-.208-.137-.137-.311.325-.791.639-1.587.957-2.382.1-.263.209-.526.316-.787C58.8,25.566,58.818,25.476,58.949,25.493Z" transform="translate(-12.386 -1.754)"/><path class="a" d="M51.673,24.342c-.044,1.024-.09,2.047-.129,3.071-.007.179-.064.257-.254.231a3.188,3.188,0,0,0-.445-.012c-.153,0-.215-.063-.208-.219.023-.487.037-.975.057-1.461.025-.593.054-1.186.082-1.779,0-.085.016-.169.022-.253.007-.106.059-.145.167-.138.176.012.353.018.53.017.145,0,.2.056.19.2-.011.112,0,.226,0,.339Z" transform="translate(-10.11 -1.184)"/><path class="a" d="M44.288,56.3A12.078,12.078,0,1,1,56.38,44.254,12.064,12.064,0,0,1,44.288,56.3Zm2.305-14.611a4.94,4.94,0,0,0,.053.907,2.428,2.428,0,0,0,1.75,2.112,4.537,4.537,0,0,0,2.577.017,2.536,2.536,0,0,0,1.838-1.8,4.759,4.759,0,0,0,0-2.722,2.359,2.359,0,0,0-1.828-1.737,4.964,4.964,0,0,0-2.043-.054,2.564,2.564,0,0,0-2.211,2.037A4.606,4.606,0,0,0,46.594,41.687Zm-6.246,1.965h0c0,.205,0,.411,0,.616.006.573-.067.489.5.5.109,0,.217.019.3-.1.2-.275.319-.306.631-.152a3.814,3.814,0,0,0,2.3.333,2.087,2.087,0,0,0,1.489-.807,1.914,1.914,0,0,0-.989-2.991,11.691,11.691,0,0,0-1.532-.343,3.568,3.568,0,0,1-1.02-.281.56.56,0,0,1-.3-.81.685.685,0,0,1,.451-.33,2.615,2.615,0,0,1,1.879.189,1.379,1.379,0,0,1,.66.749c.166.426.164.427.635.353a.3.3,0,0,1,.042-.005c.125,0,.172-.061.171-.186,0-.581,0-1.161,0-1.742,0-.055.009-.115-.041-.158a.889.889,0,0,0-.657.074.456.456,0,0,1-.681.151,3.677,3.677,0,0,0-2.252-.333,1.669,1.669,0,0,0-1.56,1.49,1.781,1.781,0,0,0,1.116,2.065,5.366,5.366,0,0,0,1.2.333,5.63,5.63,0,0,1,1.5.349.577.577,0,0,1,.365.741.728.728,0,0,1-.581.582A3.216,3.216,0,0,1,42.3,43.9a1.594,1.594,0,0,1-1.135-.967c-.054-.134,0-.339-.154-.394a1.509,1.509,0,0,0-.462,0c-.144,0-.205.063-.2.205C40.35,43.043,40.348,43.347,40.348,43.652ZM38.012,38.5H36.8c-.413,0-.407,0-.408.417,0,.163.041.237.221.255.441.044.545.175.546.615q0,1.827,0,3.653c0,.489-.091.6-.573.657-.145.017-.2.073-.192.213a1.012,1.012,0,0,1,0,.191c-.023.2.056.271.263.269.849-.01,1.7,0,2.549-.005.451,0,.4.055.411-.41,0-.175-.04-.247-.231-.261-.428-.032-.534-.164-.534-.595V39.738c0-.391.1-.531.475-.559.248-.019.322-.114.287-.339a.479.479,0,0,1,0-.127c.02-.17-.058-.22-.221-.217C38.932,38.5,38.472,38.5,38.012,38.5ZM39,48.45c-.011-.155-.015-.311-.035-.465a2.154,2.154,0,0,0-.079-.373.91.91,0,0,0-1-.711.88.88,0,0,0-.89.76A3.312,3.312,0,0,0,36.94,48.9a1.548,1.548,0,0,0,.233.7.973.973,0,0,0,1.62-.1A2.386,2.386,0,0,0,39,48.45Zm2.458-.073c0-.079-.007-.228-.025-.375a2.29,2.29,0,0,0-.077-.373.911.911,0,0,0-.986-.727.884.884,0,0,0-.908.765,3.315,3.315,0,0,0-.06,1.2,1.561,1.561,0,0,0,.253.757.977.977,0,0,0,1.6-.1A2.4,2.4,0,0,0,41.454,48.376Zm8.115-.057a2.455,2.455,0,0,0-.1-.667.915.915,0,0,0-.989-.752.884.884,0,0,0-.915.781,3.324,3.324,0,0,0-.048,1.244,1.528,1.528,0,0,0,.23.677.972.972,0,0,0,1.619-.1A2.544,2.544,0,0,0,49.569,48.319Zm-13.045-.073a1.443,1.443,0,0,0-.263-.969,1.076,1.076,0,0,0-1.134-.333.876.876,0,0,0-.673.736,1.9,1.9,0,0,0,0,.529.713.713,0,0,0,.5.629.81.81,0,0,0,.869-.159c.033-.032.055-.1.112-.075s.027.1.019.154c-.084.55-.457.81-1.079.753-.1-.009-.214-.031-.216.121,0,.132-.064.313.149.338a1.394,1.394,0,0,0,1.537-.716A2.35,2.35,0,0,0,36.524,48.246Zm16.575-1.3c-.212,0-.425,0-.637,0-.114,0-.165.049-.173.164-.025.381-.061.761-.082,1.143-.014.252.1.349.351.305a1.254,1.254,0,0,1,.609,0,.452.452,0,0,1,.326.561.479.479,0,0,1-.481.373,1.692,1.692,0,0,1-.708-.109c-.054-.018-.119-.068-.169.013a.393.393,0,0,0,.183.506,1.97,1.97,0,0,0,1.13.01.865.865,0,0,0,.655-.779.9.9,0,0,0-.417-.987,1.172,1.172,0,0,0-.62-.1c-.286,0-.3-.005-.267-.3s.035-.3.336-.3c.191,0,.383-.007.573,0s.2-.109.2-.249,0-.261-.191-.256S53.3,46.943,53.1,46.943Zm-7,3c.275,0,.551-.009.827,0,.18.007.236-.065.232-.236s-.017-.278-.225-.271c-.282.01-.565,0-.848,0-.062,0-.145.018-.175-.046s.049-.106.091-.148c.23-.23.465-.455.694-.686a1.16,1.16,0,0,0,.327-.514c.148-.567-.011-.964-.539-1.1a1.4,1.4,0,0,0-1.3.276c-.053.043-.09.076-.046.156.145.262.261.3.513.149.025-.014.049-.029.074-.041a.571.571,0,0,1,.657.026.547.547,0,0,1-.035.651.9.9,0,0,1-.087.12c-.122.137-.243.276-.371.407-.231.239-.461.479-.7.707a.438.438,0,0,0-.09.472c.038.14.2.069.3.073C45.627,49.952,45.861,49.946,46.094,49.946Zm5.337-1.475c0-.439,0-.877,0-1.317,0-.075.017-.181-.081-.195a.65.65,0,0,0-.513.051c-.254.191-.5.393-.749.592-.057.046-.1.1-.057.181.119.247.229.277.443.107.061-.049.119-.1.179-.149.043-.035.078-.1.137-.085.075.025.052.107.052.167,0,.587,0,1.175,0,1.762,0,.365,0,.354.357.363.193,0,.243-.068.239-.248C51.424,49.292,51.431,48.881,51.431,48.47Zm-8.115,0c0-.439,0-.877,0-1.316,0-.075.018-.181-.081-.2a.653.653,0,0,0-.513.051c-.254.192-.5.394-.749.593-.057.046-.1.1-.057.181.118.247.228.277.442.107.055-.044.107-.092.165-.133s.087-.136.169-.09c.06.033.035.116.035.177q0,.871,0,1.741c0,.365,0,.354.357.363.192,0,.243-.067.239-.248C43.31,49.292,43.317,48.881,43.316,48.47Zm1.368,1.191c0-.223-.1-.331-.317-.334a.311.311,0,0,0-.357.326.318.318,0,0,0,.349.338A.292.292,0,0,0,44.684,49.662Zm-.329-2.038q-.337-.005-.346.307a.316.316,0,0,0,.333.354.306.306,0,0,0,.342-.34C44.684,47.728,44.581,47.626,44.356,47.624Z" transform="translate(-3.972 -3.971)"/><path class="a" d="M56.311,44.982a4.124,4.124,0,0,1,.088-1.1,1.511,1.511,0,0,1,2.1-1.067,1.029,1.029,0,0,1,.517.483,2.378,2.378,0,0,1,.263.825,6.014,6.014,0,0,1-.053,2.256,1.474,1.474,0,0,1-2.121.981,1.2,1.2,0,0,1-.579-.728,3.119,3.119,0,0,1-.149-.6A5.67,5.67,0,0,1,56.311,44.982Z" transform="translate(-12.001 -7.487)"/><path class="a" d="M41.036,56.061a3.24,3.24,0,0,1-.092.732.371.371,0,0,1-.353.315.364.364,0,0,1-.365-.324,3.027,3.027,0,0,1-.009-1.408c.058-.247.2-.381.375-.37.233.015.32.185.369.379A3.491,3.491,0,0,1,41.036,56.061Z" transform="translate(-6.61 -11.592)"/><path class="a" d="M43.833,56.057a2.87,2.87,0,0,1,.1-.739c.055-.174.156-.311.356-.31a.353.353,0,0,1,.344.3,2.839,2.839,0,0,1,0,1.528.346.346,0,0,1-.337.277.353.353,0,0,1-.354-.281A2.977,2.977,0,0,1,43.833,56.057Z" transform="translate(-7.842 -11.593)"/><path class="a" d="M56,56.052a2.782,2.782,0,0,1,.105-.762.361.361,0,0,1,.333-.282.346.346,0,0,1,.352.283,2.8,2.8,0,0,1,0,1.548.342.342,0,0,1-.341.27.358.358,0,0,1-.349-.29A3.057,3.057,0,0,1,56,56.052Z" transform="translate(-11.899 -11.593)"/><path class="a" d="M36.408,55.562c0-.324.174-.557.427-.559a.541.541,0,0,1,.487.569.485.485,0,0,1-.493.479A.439.439,0,0,1,36.408,55.562Z" transform="translate(-5.367 -11.591)"/></g></svg>