<svg xmlns="http://www.w3.org/2000/svg" width="50" height="23.569" viewBox="0 0 50 23.569"><defs><style>.a,.b{fill:#69737f;}.a{opacity:0.5;}</style></defs><path class="a" d="M69.814,42.887c-.258-.076-1.532-.413-3.078-.817-.876-.231-1.838-.483-2.753-.72h0l-1.433-.375h0l-1.5-.39-.007,0-.825-.213c-.989-.252-1.418-.655-.89-.781s8.739-2.367,9.629-2.618.956-.5.792-.806-.693-.276-1.253-.116S57.805,39.01,57.013,39.237s-.989.15-.758-.025S64.1,32.263,64.2,31.961s-.791-.377-1.484.2-9.7,8.208-9.7,8.208c-.627.856,1.385-5.287,2.077-7.4s-1.094-1.14-1.5.136c-.4,1.258-1.419,4.416-2.356,7.566v0h0c-.181.609-.359,1.218-.529,1.812,0,0-.588-.9-1.327-2.015v0c-1.1-1.664-2.534-3.82-2.869-4.256-.56-.73-1.2.576-.814,1.156.269.4,1.3,1.926,2.365,3.546h0c.4.607.8,1.227,1.17,1.806h0c.554.871,1.031,1.649,1.3,2.151v0c.2.365.281.583.2.581a38.594,38.594,0,0,1-4.107-.917l-.612-.156c-2.131-.546-4.249-1.11-4.647-1.178a.69.69,0,0,0-.12-.011c-.684-.007-.766,1.019.483,1.3.319.073,1.064.256,2.008.492h0c.643.163,1.377.348,2.13.543h0l1.47.384h0c1.321.348,2.555.685,3.3.913h0c.505.155.785.26.713.285-.363.125-8.838,2.568-10.223,2.92s.132,1.183.956.957,7.881-2.266,10.057-2.9,1.913-.478,2.012-.2-6.991,6.218-7.56,6.714c-.849.74.694.779,1.69-.092,8.179-7.149,9-7.855,9.036-7.527S55.2,54.9,55.4,55.173s1.154.151,1.484-.956,2.506-10.927,2.638-10.7l.1.175c.258.426.943,1.55,1.713,2.787,1.094,1.759,2.357,3.748,2.8,4.289.825,1.007,1.715.2,1.484-.151-.1-.153-1.257-1.91-2.5-3.841v0c-.307-.477-.62-.965-.924-1.441v0c-.217-.34-.428-.673-.63-.994-.812-1.294-1.463-2.37-1.6-2.715v0c-.032-.079-.036-.12-.011-.116l.03,0c.239.047,1.453.35,2.93.723h0l.767.193h0l3.252.826c1.03.26,1.857.467,2.187.545C70.3,44.07,70.5,43.089,69.814,42.887ZM57.265,44.465a1.958,1.958,0,0,1-.456.746,1.976,1.976,0,0,1-2.681,0,2,2,0,0,1-.469-.782,2.36,2.36,0,0,1-.118-.741,2.454,2.454,0,0,1,.118-.732,2.12,2.12,0,0,1,.469-.808,1.783,1.783,0,0,1,1.339-.524,1.838,1.838,0,0,1,1.808,1.284,2.535,2.535,0,0,1,.118.78A2.328,2.328,0,0,1,57.265,44.465Z" transform="translate(-22.193 -31.729)"/><g transform="translate(0 8.716)"><path class="b" d="M13.27,51.07v-6.19h2.144l1.439,2.339a6.677,6.677,0,0,1,.585,1.1H17.5a7.271,7.271,0,0,1-.195-1.466V44.879H19.46v6.19H17.307l-1.541-2.441a8.23,8.23,0,0,1-.427-.807h-.065a7.624,7.624,0,0,1,.139,1.142V51.07Z" transform="translate(-13.27 -44.74)"/><path class="b" d="M25.654,50.3l-.167.77H23.111l2.144-6.19h2.487l2.209,6.19H27.566l-.2-.77Zm.909-3.35H26.48a3.221,3.221,0,0,1-.1.7l-.306,1.188h.9l-.288-1.188A6.84,6.84,0,0,1,26.563,46.949Z" transform="translate(-16.484 -44.74)"/><path class="b" d="M37.193,46.789a2.4,2.4,0,0,0-1.262-.464.738.738,0,0,0-.427.111.253.253,0,0,0-.111.223c0,.13.019.251.362.325l.715.158a2.09,2.09,0,0,1,1.058.529A1.653,1.653,0,0,1,38,48.9a1.994,1.994,0,0,1-.557,1.457,2.917,2.917,0,0,1-2.181.789,5.146,5.146,0,0,1-2.107-.483l-.2-.084.678-1.745.241.186a2.181,2.181,0,0,0,1.253.455.768.768,0,0,0,.483-.111.332.332,0,0,0,.121-.278.3.3,0,0,0-.074-.213.841.841,0,0,0-.427-.148l-.548-.1a1.869,1.869,0,0,1-1.077-.529,1.545,1.545,0,0,1-.445-1.142,2,2,0,0,1,.6-1.476,2.882,2.882,0,0,1,2.153-.8,3.5,3.5,0,0,1,1.884.538Z" transform="translate(-19.698 -44.673)"/><path class="b" d="M45.366,46.789a2.4,2.4,0,0,0-1.262-.464.738.738,0,0,0-.427.111.253.253,0,0,0-.111.223c0,.13.019.251.362.325l.715.158a2.09,2.09,0,0,1,1.058.529,1.653,1.653,0,0,1,.473,1.225,1.994,1.994,0,0,1-.557,1.457,2.917,2.917,0,0,1-2.181.789,5.146,5.146,0,0,1-2.107-.483l-.2-.084L41.8,48.83l.241.186a2.181,2.181,0,0,0,1.253.455.768.768,0,0,0,.483-.111.332.332,0,0,0,.121-.278.3.3,0,0,0-.074-.213.841.841,0,0,0-.427-.148l-.548-.1a1.868,1.868,0,0,1-1.077-.529,1.545,1.545,0,0,1-.445-1.142,2,2,0,0,1,.6-1.476,2.882,2.882,0,0,1,2.153-.8,3.5,3.5,0,0,1,1.884.538Z" transform="translate(-22.367 -44.673)"/><path class="b" d="M54.109,50.891a4.728,4.728,0,0,1-1.559.251,3.25,3.25,0,0,1-2.283-.9,3.2,3.2,0,0,1-.9-2.283,3.308,3.308,0,0,1,.928-2.348,3.2,3.2,0,0,1,2.339-.937,4.674,4.674,0,0,1,1.476.241l.065,2.357a1.961,1.961,0,0,0-1.309-.613,1.218,1.218,0,0,0-.9.38,1.31,1.31,0,0,0-.325.882,1.226,1.226,0,0,0,.362.891,1.279,1.279,0,0,0,.919.353,1.73,1.73,0,0,0,1.253-.585Z" transform="translate(-25.059 -44.673)"/><path class="b" d="M63.517,50.148a3.824,3.824,0,0,1-5.142,0,3.342,3.342,0,0,1,0-4.483,3.824,3.824,0,0,1,5.142,0,3.342,3.342,0,0,1,0,4.483Zm-3.378-3.165a1.39,1.39,0,0,0-.353.928,1.315,1.315,0,0,0,.353.919,1.191,1.191,0,0,0,1.615,0,1.3,1.3,0,0,0,.353-.919,1.259,1.259,0,0,0-.353-.928,1.12,1.12,0,0,0-.807-.316A1.074,1.074,0,0,0,60.138,46.984Z" transform="translate(-27.719 -44.673)"/><path class="b" d="M68.042,51.07l1-6.19h2.311l.724,2.534a4.589,4.589,0,0,1,.139.715h.056a2.683,2.683,0,0,1,.121-.715l.724-2.534h2.292l1.012,6.19H74.26l-.278-2.775a5.881,5.881,0,0,1-.037-.612h-.037c-.028.158-.084.4-.121.52l-.919,2.868H71.55l-.826-2.71a2.581,2.581,0,0,1-.121-.677h-.065c0,.121,0,.362-.009.483l-.306,2.9Z" transform="translate(-31.158 -44.74)"/></g><g transform="translate(30.121 16.073)"><path class="b" d="M58,58.878,59.017,55.6l.966,2.62,1.71-2.624.088,3.281h-.387l-.031-2.159L59.88,59.009l-.847-2.289L58.4,58.878Z" transform="translate(-58 -55.598)"/><path class="b" d="M67.113,56.186h-1.4l-.124.921h1.364l-.047.326H65.537l-.16,1.205h1.4l-.047.326H64.949l.423-3.1h1.787Z" transform="translate(-60.269 -55.683)"/><path class="b" d="M68.775,58.878,69.793,55.6l.966,2.62,1.71-2.624.088,3.281h-.387l-.031-2.159-1.482,2.289-.847-2.289-.635,2.159Z" transform="translate(-61.519 -55.598)"/><path class="b" d="M76.71,55.86a1.238,1.238,0,0,1,.857.247.654.654,0,0,1,.2.493.909.909,0,0,1-.119.447.69.69,0,0,1-.32.261,1.117,1.117,0,0,1,.346.2.656.656,0,0,1,.212.517.821.821,0,0,1-.315.684,1.584,1.584,0,0,1-.95.256h-.9l.424-3.1Zm-.558,2.778h.465a1.3,1.3,0,0,0,.646-.135.53.53,0,0,0,.238-.461.432.432,0,0,0-.253-.419,1.231,1.231,0,0,0-.558-.093H76.3Zm.191-1.415h.248a.976.976,0,0,0,.609-.158.5.5,0,0,0,.186-.414.411.411,0,0,0-.191-.363.907.907,0,0,0-.46-.1h-.253Z" transform="translate(-63.789 -55.683)"/><path class="b" d="M82.275,56.186h-1.4l-.124.921H82.11l-.047.326H80.7l-.16,1.205h1.4l-.047.326H80.111l.424-3.1h1.787Z" transform="translate(-65.221 -55.683)"/><path class="b" d="M85.4,55.86a1.274,1.274,0,0,1,.863.228.678.678,0,0,1,.248.554.814.814,0,0,1-.274.661,1.286,1.286,0,0,1-.723.275l.9,1.387H85.95l-.863-1.359h-.1L84.8,58.964h-.382l.423-3.1ZM85.03,57.3h.243a1.052,1.052,0,0,0,.64-.163.567.567,0,0,0,.2-.442.452.452,0,0,0-.232-.419,1.272,1.272,0,0,0-.486-.088H85.18Z" transform="translate(-66.629 -55.683)"/></g><g transform="translate(44.868 8.552)"><path class="b" d="M79.9,45.54a1.118,1.118,0,1,1,1.118,1.112A1.082,1.082,0,0,1,79.9,45.54Zm2.128,0a1.01,1.01,0,1,0-1.01,1.01A.97.97,0,0,0,82.027,45.54Zm-.986.12h-.293v.484H80.64V44.936h.371c.287,0,.442.143.442.359a.346.346,0,0,1-.293.347l.371.5h-.137Zm-.018-.1c.215,0,.317-.108.317-.257s-.108-.263-.317-.263h-.275v.52Z" transform="translate(-79.899 -44.428)"/></g></svg>