<svg id="Layer_1" data-name="Layer 1" xmlns="http://www.w3.org/2000/svg" viewBox="0 0 2734.25 677.39"><defs><style>.cls-1{fill:#0e90d0;}.cls-2{fill:#014e72;}</style></defs><title>CodeClouds</title><path class="cls-1" d="M312.71,57.34S245.08,79.7,201.13,146.16,155.23,282.61,163.82,318c9,37.12,34.74,87.41,99.79,102.62,19.39,4.53,53.69,4.68,83-12.71,28.63-17,36.35-39,67.05-51.95,21.81-9.21,51.17-15.13,90.55,1,0,0-26.53,96.55-130.26,136.44S158.54,495,103.63,417c-28.88-41-44.3-86.68-44.11-136.11a228,228,0,0,1,44.11-133.46C161.05,69.81,243.12,51.52,312.71,57.34Z"/><path class="cls-1" d="M359.44,165.9a167.3,167.3,0,0,1,15.12,13.91c6.16,6.66,21,26.06,50.91,35.73,22.72,7.34,50.79,7.07,71.56-.74,0,0-15.56-32.29-50-48.09S376.72,157.83,359.44,165.9Z"/><path class="cls-2" d="M330.45,399.28s-59.5-40.2-55.63-126.82c2.09-46.81,29.07-90.77,62.2-111.69a123.23,123.23,0,0,1,67.68-18.45c50.42,1.3,84.05,28,106.19,66.54,0,0,44.38-19.74,43.23-66.8-.42-17.33-11.13-39.51-34.91-55.44C497.8,72.27,457.76,58.09,414.39,56.41c-41.6-1.61-87.47,4.7-137.42,35.92-25.58,16-49,39.48-66.83,67.48a226.57,226.57,0,0,0-35.69,121.62c0,25.86,7.83,56.4,24.93,79.7C248.09,427.53,319.94,405.81,330.45,399.28Z"/><path class="cls-2" d="M378.67,507.72s73.8,10.82,138.1-27.76c32.42-19.46,37.37-55,32.41-73-2.81-10.21-11.25-29.87-31.62-42.52,0,0-13.43,40.89-40.52,72.34S421.22,490.9,378.67,507.72Z"/><path class="cls-1" d="M1429.4,557.13c9.71,9.22,23.54,16,36,16,6.58,0,12.84-1.82,17-5.11a19.09,19.09,0,0,0,6.92-15c0-11.52-9.88-16-23.38-21.89-15.3-6.75-28-13.33-28-30.94a33.9,33.9,0,0,1,11.69-25.84c7.24-6.26,16.79-9.72,27.82-9.72a62,62,0,0,1,34.56,11l-3,16.63c-9.38-7.74-21.56-13.17-32.92-13.17-5.93,0-11.69,1.48-16,4.94a17.87,17.87,0,0,0-6.58,14.15c0,11.2,9.38,14.65,23.37,21.07,16,7.24,28,13.83,28,31.6a35.25,35.25,0,0,1-13.82,28.48c-7.24,5.43-16.46,8.07-26.67,8.07a61.91,61.91,0,0,1-38-13.17Z"/><path class="cls-1" d="M1532.28,504.62h14.81l-14.32,81H1518Zm12.84-38.18a9.83,9.83,0,0,1,10,9.87,11,11,0,0,1-11.2,10.87,9.7,9.7,0,0,1-9.87-9.88A10.89,10.89,0,0,1,1545.12,466.44Z"/><path class="cls-1" d="M1570,504.62h14.81l-1.81,10,.33.17c7.41-6.42,17.45-12,28.32-12,10.69,0,19.09,5.43,22.22,14.65,11.19-9.71,22.05-14.65,32.59-14.65,14.32,0,24,9.05,24,23.7a68.66,68.66,0,0,1-1.32,11.69l-8.39,47.41h-14.82l8.23-46.42a54.44,54.44,0,0,0,1.15-9.55c0-7.9-4.11-13-13.16-13s-18.11,5.1-27,13.17c-.16,2.47-.66,5.59-1.15,8.39l-8.4,47.41h-14.81l8.23-46.42a55.45,55.45,0,0,0,1.15-9.55c0-7.9-4.11-13-13.16-13-9.22,0-18,5.27-26.67,13l-9.87,56h-14.82Z"/><path class="cls-1" d="M1728.81,509.56a34.15,34.15,0,0,1,20.41-6.75c18.93,0,32.92,14.65,32.92,36.54,0,12.51-4.61,25.68-13.33,34.73-8.23,8.56-19.92,13.34-33.41,13.34a50.48,50.48,0,0,1-19.76-3.79l-.33.16-6.75,38h-14.81l20.74-117.2h14.81l-.82,4.78Zm-11,60.57a43.62,43.62,0,0,0,18.6,4.28,28.7,28.7,0,0,0,22.06-9.54c5.92-6.59,8.89-15.81,8.89-24.53,0-15.14-8.56-24.2-21.07-24.2a34.1,34.1,0,0,0-20.25,7.25Z"/><path class="cls-1" d="M1814.24,459.85h14.81l-22.22,125.76H1792Z"/><path class="cls-1" d="M1825.27,621.82l30.12-45.43-21.24-71.77h16l8.23,28.48c2.63,9,5.27,18.6,7.41,27.16h.32c5.44-8.89,11.2-18.27,17.12-27.49l17.94-28.15h16.14l-75.39,117.2Z"/><path class="cls-1" d="M1979.17,466.44h32.09c13.83,0,22.88,2.3,29.3,6.74a25.45,25.45,0,0,1,11,21.57c0,13-8.07,24.52-23,29.46v.33c10.69,3.62,18.27,12.34,18.27,24.69a34.39,34.39,0,0,1-13.34,26.66c-7.9,6.09-18.93,9.72-35.71,9.72H1958.1Zm21.56,105c11.19,0,18.76-2.14,23.87-6.75a20.61,20.61,0,0,0,6.58-15.31c0-11.85-9.71-18.93-25.35-18.93h-22.38l-7.25,41Zm10-53c12,0,25.18-5.6,25.18-20.08,0-5.76-2.14-10.21-6.58-13.33-4.12-3-9.88-4.45-19.75-4.45h-17.29l-6.75,37.86Z"/><path class="cls-1" d="M2072,504.62h14.81l-2.47,13.83.33.16c6.92-8.72,19.43-14.65,29.8-14.65a25.5,25.5,0,0,1,5.1.5l-2.47,14.32a37.92,37.92,0,0,0-4.94-.33c-11.52,0-22.55,6.42-30.78,16.79l-8.89,50.37h-14.81Z"/><path class="cls-1" d="M2137.84,504.62h14.81l-14.32,81h-14.81Zm12.84-38.18a9.83,9.83,0,0,1,10,9.87,11,11,0,0,1-11.19,10.87,9.71,9.71,0,0,1-9.88-9.88A10.89,10.89,0,0,1,2150.68,466.44Z"/><path class="cls-1" d="M2186.73,459.85h14.81l-22.22,125.76h-14.81Z"/><path class="cls-1" d="M2224.42,459.85h14.81L2217,585.61H2202.2Z"/><path class="cls-1" d="M2257.5,504.62h14.82l-14.32,81h-14.82Zm12.84-38.18a9.83,9.83,0,0,1,10,9.87,11,11,0,0,1-11.19,10.87,9.71,9.71,0,0,1-9.88-9.88A10.89,10.89,0,0,1,2270.34,466.44Z"/><path class="cls-1" d="M2353.79,585.61H2339l1.32-7.08-.33-.17c-5.76,4.78-13.17,9.06-23,9.06-17.61,0-31.44-13.67-31.44-34.73,0-12.19,4.61-26,14.33-36.05,9.54-9.88,22.05-13.83,33.9-13.83s22.88,4.12,33.09,8.89Zm-3.29-65.35a44,44,0,0,0-18.27-4.28,28.83,28.83,0,0,0-22.71,10.21,39.43,39.43,0,0,0-9.22,25.34c0,14.65,8.72,22.88,19.59,22.88,8.06,0,16.29-4.44,23.2-11.68Z"/><path class="cls-1" d="M2391,504.62h14.82L2404,514.5l.32.16c8.23-6.58,18.11-11.85,29.14-11.85,14.32,0,24.19,9.22,24.19,24.86a60.51,60.51,0,0,1-1.31,11.35l-8.23,46.59h-14.82l8.07-45.6a55.11,55.11,0,0,0,1.15-9.71c0-8.23-3.79-13.66-13-13.66-9.38,0-19.42,5.76-28.15,12.67l-9.87,56.3h-14.82Z"/><path class="cls-1" d="M2512.14,586.26a39.48,39.48,0,0,1-9.38,1.16c-13.5,0-24.69-7.08-24.69-22.88a68.35,68.35,0,0,1,1.15-11.53l6.25-35h-14.65l2.31-13.34h14.81l3.95-22.88,15-.82-4.11,23.7h23.86l-2.3,13.34h-24l-6.09,34.56a62.83,62.83,0,0,0-1.16,9.88c0,7.07,3.79,11.52,12.18,11.52a34.06,34.06,0,0,0,9.39-1.48Z"/><path class="cls-1" d="M2541.11,566.68a9.83,9.83,0,0,1,10,9.87,11,11,0,0,1-11.2,10.87,9.7,9.7,0,0,1-9.87-9.88A10.89,10.89,0,0,1,2541.11,566.68Zm10.37-100.24h17.11L2550,549.06h-9.21Z"/><path class="cls-1" d="M640,282.78c0-69.33,48.25-111.86,103.89-111.86,26.38,0,51.78,7.86,67.87,21.44v49.32c-15.44-14.65-36-25-59.19-25-32.48,0-57.25,23.23-57.25,66.11,0,42.53,24.77,66.12,57.25,66.12,23.16,0,43.75-10.37,59.19-25V373.2c-16.09,13.58-41.49,21.44-67.87,21.44C688.27,394.64,640,352.11,640,282.78Z"/><path class="cls-1" d="M828.83,282.78c0-65.76,47.92-113.29,107.1-113.29,58.86,0,106.47,47.53,106.47,113.29S994.79,396.07,935.93,396.07C876.75,396.07,828.83,348.54,828.83,282.78Zm158.24,0c0-41.1-19-67.9-51.14-67.9-32.48,0-51.78,26.8-51.78,67.9s19.3,67.9,51.78,67.9C968.1,350.68,987.07,323.88,987.07,282.78Z"/><path class="cls-1" d="M1068.77,175.57H1144c79.44,0,111.93,48.24,111.93,107.21S1223.48,390,1144,390h-75.27Zm71.09,169.75c43.42,0,63-19.65,63-62.54s-19.62-62.54-63-62.54h-19V345.32Z"/><path class="cls-1" d="M1282,175.57h134.12v43.6h-82v36.09h65.93v43.25h-65.93v47.88h82V390H1282Z"/><path class="cls-2" d="M1426.44,282.78c0-69.33,48.25-111.86,103.89-111.86,26.38,0,51.78,7.86,67.87,21.44v49.32c-15.44-14.65-36-25-59.19-25-32.48,0-57.25,23.23-57.25,66.11,0,42.53,24.77,66.12,57.25,66.12,23.16,0,43.75-10.37,59.19-25V373.2c-16.09,13.58-41.49,21.44-67.87,21.44C1474.69,394.64,1426.44,352.11,1426.44,282.78Z"/><path class="cls-2" d="M1629.72,175.57h52.11V346.39h82V390H1629.72Z"/><path class="cls-2" d="M1767.7,282.78c0-65.76,47.93-113.29,107.11-113.29,58.86,0,106.46,47.53,106.46,113.29s-47.6,113.29-106.46,113.29C1815.63,396.07,1767.7,348.54,1767.7,282.78Zm158.25,0c0-41.1-19-67.9-51.14-67.9-32.49,0-51.78,26.8-51.78,67.9s19.29,67.9,51.78,67.9C1907,350.68,1926,323.88,1926,282.78Z"/><path class="cls-2" d="M2005.4,291V175.57h52.75V287.78c0,37.89,13.51,58.26,41.17,58.26,28,0,41.49-20.37,41.49-58.26V175.57H2192V291c0,72.55-41.17,105.07-93.28,105.07C2046.89,396.07,2005.4,363.55,2005.4,291Z"/><path class="cls-2" d="M2221.54,175.57h75.26c79.45,0,111.94,48.24,111.94,107.21S2376.25,390,2296.8,390h-75.26Zm71.08,169.75c43.43,0,63-19.65,63-62.54s-19.61-62.54-63-62.54h-19V345.32Z"/><path class="cls-2" d="M2420.31,366.41l11.58-42.17c14.48,13.58,35.38,28.59,60.8,28.59,15.75,0,28-6.79,28-21.8,0-13.94-8.37-18.94-36-26.81-44.06-11.43-59.18-37.52-59.18-69.33,0-38.95,27.66-64.33,70.76-64.33a105.56,105.56,0,0,1,63.37,21.8L2549,231c-14.47-10-34.73-18.58-53.39-18.58-13.83,0-22.52,6.43-22.52,17.15,0,10,5.79,15.73,27.67,21.8,48.24,12.51,67.86,35,67.86,73.62,0,50.39-36.67,69.33-75.9,69.33C2459.56,394.28,2435.43,380.35,2420.31,366.41Z"/><path class="cls-2" d="M2609,181.77V225h-14.4V181.77h-17.33V171.09h49.22v10.68ZM2684.73,225V195.53c0-1.29.16-5.5.16-5.83a52.08,52.08,0,0,1-1.78,5.83L2671.3,225h-9.23l-11.66-29.46a41.24,41.24,0,0,1-1.94-5.83c0,.33.16,4.54.16,5.83V225h-12.3v-53.9h15.86l14.9,36.74,14.57-36.74h15.7V225Z"/></svg>